<?xml version="1.0" encoding="utf-8"?>
<!-- Generator: Adobe Illustrator 16.0.4, SVG Export Plug-In . SVG Version: 6.00 Build 0)  -->
<!DOCTYPE svg PUBLIC "-//W3C//DTD SVG 1.1//EN" "http://www.w3.org/Graphics/SVG/1.1/DTD/svg11.dtd">
<svg version="1.1" id="Layer_1" xmlns="http://www.w3.org/2000/svg" xmlns:xlink="http://www.w3.org/1999/xlink" x="0px" y="0px"
	 width="1200px" height="600px" viewBox="0 0 1200 600" enable-background="new 0 0 1200 600" xml:space="preserve">
<g>
	<polygon fill="#4A4A4C" points="238.64,285.249 226.667,303.842 214.692,285.249 204.268,285.249 221.892,312.231 221.892,332 
		231.442,332 231.442,312.231 249.064,285.249 	"/>
	<path fill="#4A4A4C" d="M298.659,294.723c-6.935-3.351-17.893-4.32-17.893,2.232c0,3.049,3.426,4.566,7.501,5.83
		c9.421,2.902,15.518,6.615,15.518,15.251c0,19.971-28.161,16.249-33.303,10.371l4.302-7.435c7.415,5.313,19.243,4.879,19.243-2.448
		c0-3.845-3.798-5.737-8.567-7.391c-8.48-2.938-14.45-5.611-14.45-13.721c0-14.627,18.877-15.375,30.767-10.366L298.659,294.723z"/>
	<path fill="#4A4A4C" d="M347.049,323.064c7.662,0,14.354-2.886,14.354-14.373c0-11.556-6.693-14.51-14.354-14.51h-6.413v28.883
		H347.049z M347.049,285.249c16.029,0,24.111,10.285,24.111,23.443c0,15.693-10.553,23.309-24.111,23.309H331.01v-46.751H347.049z"
		/>
	<polygon fill="#4A4A4C" points="405.144,305.373 405.144,332 395.593,332 395.593,283.502 424.932,312.035 424.932,285.249 
		434.482,285.249 434.482,333.746 	"/>
</g>
<g>
	<polygon fill="#4A4A4C" points="810.736,332.871 801.182,332.871 801.182,305.535 787.282,318.989 773.381,305.535 
		773.381,332.871 763.83,332.871 763.83,284.374 787.282,307.152 810.736,284.374 	"/>
	<path fill="#4A4A4C" d="M854.3,304.11l-5.848,13.012h11.687L854.3,304.11z M845.013,324.775l-3.638,8.094h-10.269l23.193-48.085
		l23.195,48.085H867.2l-3.634-8.094H845.013z"/>
	<path fill="#4A4A4C" d="M914.932,323.938c7.658,0,14.35-2.888,14.35-14.375c0-11.554-6.691-14.51-14.35-14.51h-6.413v28.885
		H914.932z M914.932,286.12c16.029,0,24.108,10.286,24.108,23.443c0,15.695-10.553,23.309-24.108,23.309h-16.043V286.12H914.932z"/>
	<polygon fill="#4A4A4C" points="962.539,286.12 962.539,332.873 996.267,332.873 996.267,323.988 972.087,323.988 972.087,313.271 
		994.398,313.271 994.398,304.796 972.087,304.796 972.087,295.002 996.267,295.002 996.267,286.12 	"/>
</g>
</svg>
