<?xml version="1.0" encoding="utf-8"?>
<!-- Generator: Adobe Illustrator 18.0.0, SVG Export Plug-In . SVG Version: 6.00 Build 0)  -->
<!DOCTYPE svg PUBLIC "-//W3C//DTD SVG 1.1//EN" "http://www.w3.org/Graphics/SVG/1.1/DTD/svg11.dtd">
<svg version="1.1" id="Layer_1" xmlns="http://www.w3.org/2000/svg" xmlns:xlink="http://www.w3.org/1999/xlink" x="0px" y="0px"
	 viewBox="0 0 602 290" enable-background="new 0 0 602 290" xml:space="preserve">
<polygon fill="#FF9728" points="126.3,131.4 126.3,287.9 88.7,287.9 88.7,168.6 38.8,168.6 38.8,287.9 1.2,287.9 1.2,4.3 38.8,4.3 
	38.8,131.4 88.7,131.4 "/>
<path fill="#FF9728" d="M120.4,52.5c6.1-5.9,8.1-15,6.4-25.2c-4.5,0.8-8.4,2.7-11.6,5.7c-2.3,2.2-4,4.9-5,7.9V30.5
	c3-0.9,7.5-2.1,10.2-4.7c6.1-5.9,8.1-15,6.4-25.2c-4.5,0.8-8.4,2.7-11.6,5.7c-2.3,2.2-4,4.9-5,7.9V4.3h-3v10.3c-1-3-2.9-5.7-5.2-7.9
	c-3.2-3-7.2-4.9-11.7-5.7c-1.6,10.2,0.4,19.3,6.5,25.2c2.7,2.6,6.4,3.5,10.4,4.3v10.8c-1-3-2.9-5.7-5.2-7.9c-3.2-3-7.2-4.9-11.7-5.7
	c-1.6,10.2,0.4,19.3,6.5,25.2c2.7,2.6,6.4,3.5,10.4,4.3V68c-1-3-2.9-5.7-5.2-7.9c-3.2-3-7.2-4.9-11.7-5.7
	c-1.6,10.2,0.4,19.3,6.5,25.2c2.7,2.6,6.4,3.5,10.4,4.3v10.8c-1-3-2.9-5.7-5.2-7.9c-3.2-3-7.2-4.9-11.7-5.7
	c-1.6,10.2,0.4,19.3,6.5,25.2c2.7,2.6,6.4,3.5,10.4,4.3v10.8c-1-3-2.9-5.7-5.2-7.9c-3.2-3-7.2-4.9-11.7-5.7
	c-1.6,10.2,0.4,19.3,6.5,25.2c2.7,2.6,6.4,3.5,10.4,4.3v13.1h3v-13.1c3-0.9,7.5-2.1,10.2-4.7c6.1-5.9,8.1-15,6.4-25.2
	c-4.5,0.8-8.4,2.7-11.6,5.7c-2.3,2.2-4,4.9-5,7.9v-10.4c3-0.9,7.5-2.1,10.2-4.7c6.1-5.9,8.1-15,6.4-25.2c-4.5,0.8-8.4,2.7-11.6,5.7
	c-2.3,2.2-4,4.9-5,7.9V83.9c3-0.9,7.5-2.1,10.2-4.7c6.1-5.9,8.1-15,6.4-25.2c-4.5,0.8-8.4,2.7-11.6,5.7c-2.3,2.2-4,4.9-5,7.9V57.2
	C113.2,56.3,117.7,55.1,120.4,52.5z M117.1,41.5c1.5-2.3,2.7-5.1,5.8-9.3c-3.6,4.7-5,11.7-9.1,18.1c-1.2,1.9-2.6,3.7-3.6,5.4v-2.3
	C111.2,49.6,114.5,45.6,117.1,41.5z M117.1,14.9c1.5-2.3,2.7-5.1,5.8-9.3c-3.6,4.7-5,11.7-9.1,18.1c-1.2,1.9-2.6,3.7-3.6,5.4v-2.3
	C111.2,22.9,114.5,19,117.1,14.9z M103,23.2c-4.1-6.4-6-12-8.9-17.2c2.3,4.2,4.2,5.5,6.1,8.9c2.7,5,5,8.5,7,12.2V29
	C106.2,27.2,104.3,25.1,103,23.2z M103,49.9c-4.1-6.4-6-12-8.9-17.2c2.3,4.2,4.2,5.5,6.1,8.9c2.7,5,5,8.5,7,12.2v1.9
	C106.2,53.9,104.3,51.8,103,49.9z M103,76.5c-4.1-6.4-6-12-8.9-17.2c2.3,4.2,4.2,5.5,6.1,8.9c2.7,5,5,8.5,7,12.2v1.9
	C106.2,80.5,104.3,78.5,103,76.5z M103,103.2c-4.1-6.4-6-12-8.9-17.2c2.3,4.2,4.2,5.5,6.1,8.9c2.7,5,5,8.5,7,12.2v1.9
	C106.2,107.2,104.3,105.1,103,103.2z M103,129.9c-4.1-6.4-6-12-8.9-17.2c2.3,4.2,4.2,5.5,6.1,8.9c2.7,5,5,8.5,7,12.2v1.9
	C106.2,133.9,104.3,131.8,103,129.9z M117.1,121.5c1.5-2.3,2.7-5.1,5.8-9.3c-3.6,4.7-5,11.7-9.1,18.1c-1.2,1.9-2.6,3.7-3.6,5.4v-2.3
	C111.2,129.6,114.5,125.7,117.1,121.5z M117.1,94.9c1.5-2.3,2.7-5.1,5.8-9.3c-3.6,4.7-5,11.7-9.1,18.1c-1.2,1.9-2.6,3.7-3.6,5.4
	v-2.3C111.2,102.9,114.5,99,117.1,94.9z M117.1,68.2c1.5-2.3,2.7-5.1,5.8-9.3c-3.6,4.7-5,11.7-9.1,18.1c-1.2,1.9-2.6,3.7-3.6,5.4
	v-2.3C111.2,76.2,114.5,72.3,117.1,68.2z"/>
</svg>
