<?xml version="1.0" encoding="utf-8"?>
<!-- Generator: Adobe Illustrator 18.0.0, SVG Export Plug-In . SVG Version: 6.00 Build 0)  -->
<!DOCTYPE svg PUBLIC "-//W3C//DTD SVG 1.1//EN" "http://www.w3.org/Graphics/SVG/1.1/DTD/svg11.dtd">
<svg version="1.1" id="Layer_1" xmlns="http://www.w3.org/2000/svg" xmlns:xlink="http://www.w3.org/1999/xlink" x="0px" y="0px"
	 viewBox="0 0 602 290" enable-background="new 0 0 602 290" xml:space="preserve">
<path fill="#FF9728" d="M226.3,4.3c-18,0-35.9,6.1-49.2,16.6c-14,11.1-21.7,26-21.7,42v168.5c0,15.9,7.7,30.8,21.7,42
	c13.3,10.6,31.2,16.6,49.2,16.6c39.1,0,70.9-26.3,70.9-58.6V62.9C297.2,30.5,265.4,4.3,226.3,4.3z M260,62.9v168.5
	c0,12.2-15.1,22.1-33.7,22.1s-33.7-9.9-33.7-22.1V62.9c0-12.2,15.1-22.1,33.7-22.1S260,50.7,260,62.9z"/>
</svg>
