<?xml version="1.0" encoding="utf-8"?>
<!-- Generator: Adobe Illustrator 18.0.0, SVG Export Plug-In . SVG Version: 6.00 Build 0)  -->
<!DOCTYPE svg PUBLIC "-//W3C//DTD SVG 1.1//EN" "http://www.w3.org/Graphics/SVG/1.1/DTD/svg11.dtd">
<svg version="1.1" id="Layer_1" xmlns="http://www.w3.org/2000/svg" xmlns:xlink="http://www.w3.org/1999/xlink" x="0px" y="0px"
	 viewBox="0 0 602 290" enable-background="new 0 0 602 290" xml:space="preserve">
<g>
	<path fill="#FF9728" d="M226.3,16.3c16.1,0,31.2,5.1,42.5,14.4c10.6,8.8,16.4,20.2,16.4,32.2v168.5c0,12-5.8,23.4-16.4,32.2
		c-11.3,9.3-26.3,14.4-42.5,14.4c-15.3,0-30.5-5.1-41.7-14c-11.1-8.8-17.2-20.4-17.2-32.6V62.9c0-12.2,6.1-23.8,17.2-32.6
		C195.8,21.4,211,16.3,226.3,16.3 M226.3,4.3c-18,0-35.9,6.1-49.2,16.6c-14,11.1-21.7,26-21.7,42v168.5c0,15.9,7.7,30.8,21.7,42
		c13.3,10.6,31.2,16.6,49.2,16.6c39.1,0,70.9-26.3,70.9-58.6V62.9C297.2,30.5,265.4,4.3,226.3,4.3L226.3,4.3z"/>
</g>
</svg>
