<?xml version="1.0" encoding="utf-8"?>
<!-- Generator: Adobe Illustrator 18.0.0, SVG Export Plug-In . SVG Version: 6.00 Build 0)  -->
<!DOCTYPE svg PUBLIC "-//W3C//DTD SVG 1.1//EN" "http://www.w3.org/Graphics/SVG/1.1/DTD/svg11.dtd">
<svg version="1.1" id="Layer_1" xmlns="http://www.w3.org/2000/svg" xmlns:xlink="http://www.w3.org/1999/xlink" x="0px" y="0px"
	 viewBox="0 0 602 290" enable-background="new 0 0 602 290" xml:space="preserve">
<path fill="#FF9728" d="M601.2,96.2V65.9c0-16.5-6.7-32-18.9-43.6c-12.2-11.6-28.5-18-45.9-18c-35.9,0-65.1,27.7-65.1,61.7v41
	c0,16.1,6.9,31,19.4,42c12.1,10.7,28.1,16.6,45,16.6c15.6,0,27.9,9.7,27.9,22.1v40c0,13.5-12.2,24.5-27.2,24.5
	c-15.1,0-27.9-11.2-27.9-24.5v-29.2h-37.2v29.2c0,34,29.2,61.7,65.1,61.7c35.7,0,64.8-27.7,64.8-61.7v-40c0-16.1-6.9-30.3-19.9-41.3
	c-11.6-9.8-27.6-16.1-44-17.3c-13.7-0.9-28.4-8.1-28.4-22.1v-41c0-13.5,12.4-24.5,27.5-24.5c14.9,0,27.5,11.2,27.5,24.5v30.2H601.2z
	"/>
</svg>
