<?xml version="1.0" encoding="utf-8"?>
<!-- Generator: Adobe Illustrator 16.0.4, SVG Export Plug-In . SVG Version: 6.00 Build 0)  -->
<!DOCTYPE svg PUBLIC "-//W3C//DTD SVG 1.1//EN" "http://www.w3.org/Graphics/SVG/1.1/DTD/svg11.dtd">
<svg version="1.1" id="Layer_1" xmlns="http://www.w3.org/2000/svg" xmlns:xlink="http://www.w3.org/1999/xlink" x="0px" y="0px"
	 width="1200px" height="1200px" viewBox="0 0 1200 1200" enable-background="new 0 0 1200 1200" xml:space="preserve">
<rect display="none" fill="#1C2833" width="1200" height="1200"/>
<g>
	<path fill="#2ECC71" d="M287.264,539.509h11.623v21.587c7.828-12.574,18.741-24.43,40.325-24.43
		c21.112,0,34.157,12.096,40.799,26.09c7.829-13.522,20.875-26.09,43.646-26.09c28.702,0,46.493,20.161,46.493,50.523v73.297
		h-11.623V588.61c0-26.09-13.52-41.271-35.817-41.271c-20.4,0-38.19,15.655-38.19,42.696v70.451h-11.624V587.9
		c0-25.145-13.759-40.562-35.345-40.562c-21.587,0-38.664,18.972-38.664,43.409v69.738h-11.623V539.509z"/>
	<path fill="#2ECC71" d="M504.526,600.231v-0.473c0-35.104,24.669-63.093,57.405-63.093c33.921,0,55.504,27.513,55.504,63.334
		c0,2.13,0,2.846-0.234,4.739H516.862c2.133,30.13,23.719,47.68,47.44,47.68c18.737,0,31.55-8.302,41.512-18.975l8.064,7.114
		c-12.34,13.285-26.806,22.775-50.053,22.775C532.041,663.334,504.526,637.952,504.526,600.231z M604.865,594.303
		c-1.658-24.427-15.655-46.964-43.41-46.964c-23.957,0-42.46,20.162-44.593,46.964H604.865z"/>
	<path fill="#2ECC71" d="M651.348,539.509h11.621v22.534c8.066-14.23,21.586-25.377,43.646-25.377
		c30.602,0,48.389,20.87,48.389,49.809v74.012h-11.621V588.61c0-24.91-13.994-41.271-38.428-41.271
		c-23.719,0-41.986,18.028-41.986,43.169v69.979h-11.621V539.509z"/>
	<path fill="#2ECC71" d="M788.439,600.473V600c0-33.92,26.33-63.334,62.389-63.334c35.818,0,61.908,28.938,61.908,62.856V600
		c0,33.922-26.33,63.334-62.385,63.334C814.533,663.334,788.439,634.394,788.439,600.473z M900.166,600.473V600
		c0-29.182-21.824-52.425-49.814-52.425c-28.703,0-49.338,23.479-49.338,51.947V600c0,29.177,21.82,52.419,49.814,52.419
		C879.531,652.419,900.166,628.938,900.166,600.473z"/>
</g>
</svg>
