<?xml version="1.0" encoding="UTF-8" standalone="no"?>
<svg width="14px" height="13px" viewBox="0 0 14 13" version="1.1" xmlns="http://www.w3.org/2000/svg" xmlns:xlink="http://www.w3.org/1999/xlink">
    <!-- Generator: Sketch 40.3 (33839) - http://www.bohemiancoding.com/sketch -->
    <title>fb</title>
    <desc>Created with Sketch.</desc>
    <defs></defs>
    <g id="Page-1" stroke="none" stroke-width="1" fill="none" fill-rule="evenodd">
        <g id="Artboard" transform="translate(-921.000000, -7127.000000)" fill="#FFFFFF">
            <g id="fb" transform="translate(921.000000, 7127.000000)">
                <path d="M7.035,12.8275 L0.735,12.8275 C0.3325,12.8275 0,12.5125 0,12.1275 L0,0.7 C0,0.315 0.3325,0 0.735,0 L12.4425,0 C12.845,0 13.16,0.315 13.16,0.7 L13.16,12.1275 C13.16,12.5125 12.845,12.8275 12.4425,12.8275 L9.0825,12.8275 L9.0825,7.8575 L10.7975,7.8575 L11.06,5.9325 L9.0825,5.9325 L9.0825,4.69 C9.0825,4.13 9.24,3.745 10.0625,3.745 L11.13,3.745 L11.13,2.0125 C10.9375,1.995 10.325,1.9425 9.59,1.9425 C8.0675,1.9425 7.035,2.835 7.035,4.4975 L7.035,5.9325 L5.32,5.9325 L5.32,7.8575 L7.035,7.8575 L7.035,12.8275 Z" id="Shape"></path>
            </g>
        </g>
    </g>
</svg>