<?xml version="1.0" encoding="UTF-8" standalone="no"?>
<svg width="175px" height="64px" viewBox="0 0 175 64" version="1.1" xmlns="http://www.w3.org/2000/svg" xmlns:xlink="http://www.w3.org/1999/xlink">
    <!-- Generator: Sketch 40.3 (33839) - http://www.bohemiancoding.com/sketch -->
    <title>petek</title>
    <desc>Created with Sketch.</desc>
    <defs>
        <path d="M23.6740338,0.566454252 C5.08246779,3.2733014 -9.09140499,29.7892859 7.21050725,48.1313991 C17.4946457,59.698917 42.5390902,58.6478375 49.4476449,43.2315346 C49.4476449,43.2315346 51.1634058,39.9935043 51.0453301,35.706793 C44.4360507,49.8592609 12.9302738,49.283354 12.4843196,27.4096137 C12.4843196,27.4096137 11.7898148,22.9203051 15.7814211,16.9356418 C24.4878824,4.60683205 46.0126006,5.01357866 56.7078905,15.9030444 C49.7844002,6.85092205 42.6918277,0.0936801054 29.8670894,0.0936801054 C27.9353261,0.0936801054 25.8816828,0.245487023 23.6740338,0.566454252 L23.6740338,0.566454252 Z" id="path-1"></path>
        <linearGradient x1="61.263422%" y1="66.8561637%" x2="30.875194%" y2="39.0024831%" id="linearGradient-3">
            <stop stop-color="#074B44" offset="0%"></stop>
            <stop stop-color="#32A498" offset="100%"></stop>
        </linearGradient>
        <path d="M7.35944042,12.779998 C7.35944042,12.779998 5.64621578,16.0216965 5.76429147,20.3034698 C12.3673712,6.1534003 43.8768116,6.7230995 44.3229066,28.6067157 C44.3229066,28.6067157 45.022343,33.093767 41.023128,39.0709528 C32.3180757,51.4059703 10.7970209,50.9954144 0.100462963,40.1096168 C8.06268116,50.5264495 16.253442,57.900654 33.1317834,55.441269 C51.7209541,52.7369614 65.8924316,26.2208358 49.5978462,7.88380165 C45.0247383,2.7363338 37.5310185,0.0891654016 30.0098229,0.0891654016 C20.6213969,0.0891654016 11.1908414,4.2178621 7.35944042,12.779998 L7.35944042,12.779998 Z" id="path-4"></path>
        <linearGradient x1="36.1237856%" y1="33.3814662%" x2="67.3026385%" y2="61.9288284%" id="linearGradient-6">
            <stop stop-color="#074B44" offset="0%"></stop>
            <stop stop-color="#32A498" offset="100%"></stop>
        </linearGradient>
    </defs>
    <g id="Page-1" stroke="none" stroke-width="1" fill="none" fill-rule="evenodd">
        <g id="Artboard" transform="translate(-78.000000, -74.000000)">
            <g id="petek" transform="translate(78.000000, 74.000000)">
                <g id="Group">
                    <path d="M89.707649,19.7433644 C90.515157,21.1652139 90.9860507,22.8259195 90.9860507,24.5911688 C90.9860507,29.3678666 87.6106079,33.3447563 83.2077093,34.0799476 C82.8002214,34.1658681 82.3703301,34.2118616 81.93438,34.2118616 C78.5203301,34.2118616 75.7437198,31.5336547 75.7437198,28.2370743 C75.7437198,24.9393653 78.5203301,22.2587599 81.93438,22.2587599 C85.3506844,22.2587599 88.1261675,24.9393653 88.1261675,28.2370743 C88.1261675,28.3739263 88.1161634,28.5107782 88.1112319,28.6514395 C89.2504227,27.1810569 89.9374597,25.3101354 89.9374597,23.2662443 C89.9374597,21.7524076 89.5573068,20.3380355 88.8877415,19.101571 C86.9409018,17.7120298 84.5395129,16.8885196 81.93438,16.8885196 C75.4543076,16.8885196 70.187963,21.9763087 70.187963,28.2370743 L70.187963,46.3092929 L75.7437198,46.3092929 L75.7437198,37.8665144 C77.5413446,38.9500434 79.6669887,39.5795624 81.93438,39.5795624 C88.4131844,39.5795624 93.6868559,34.4892338 93.6868559,28.2370743 C93.6868559,24.8561254 92.1451087,21.8233731 89.707649,19.7433644" id="Shape" fill="#1C1E1E"></path>
                    <path d="M116.982146,32.2047936 C115.877758,35.2375459 113.858917,37.413351 110.910829,38.7120338 C109.419948,39.3775294 107.904408,39.7083725 106.363788,39.7083725 C103.449235,39.7083725 100.885105,38.6808541 98.6650564,36.6320251 C96.1927939,34.3419415 94.9566626,31.5455057 94.9566626,28.2328418 C94.9566626,24.826921 96.2784622,21.9645987 98.9196659,19.6383975 C101.023048,17.792448 103.491506,16.8631244 106.33899,16.8631244 C109.520692,16.8631244 112.21403,17.9851694 114.415479,20.2230517 C116.382045,22.2233477 117.364835,24.2920696 117.364835,26.4304873 C117.364835,27.768956 116.877738,28.8112882 115.917492,29.5577663 C115.134783,30.1548359 113.738446,30.4497025 111.723269,30.4497025 L100.393076,30.4497025 C100.832971,31.7383683 101.608213,32.7684262 102.717532,33.539594 C103.829529,34.310903 105.06566,34.6964869 106.439593,34.6964869 C108.508172,34.6964869 110.207589,33.8680387 111.545592,32.2047936 L116.982146,32.2047936 L116.982146,32.2047936 Z M112.332105,25.9228653 C111.893478,24.685131 111.141908,23.7024775 110.072182,22.9709544 C109.00626,22.2408421 107.802536,21.8762798 106.461997,21.8762798 C103.58591,21.8762798 101.587077,23.2222259 100.468881,25.9228653 L112.332105,25.9228653 L112.332105,25.9228653 Z" id="Shape" fill="#1C1E1E"></path>
                    <path d="M130.869565,39.4012316 C127.622202,39.4012316 125.213205,38.6910122 123.65779,37.2653534 C121.947101,35.6880287 121.091123,33.1777123 121.091123,29.7356738 L121.091123,22.0767609 L117.306924,22.0767609 L117.306924,17.1718173 L121.091123,17.1718173 L121.091123,9.98920558 L126.197122,9.98920558 L126.197122,17.1718173 L130.869565,17.1718173 L130.869565,22.0767609 L126.197122,22.0767609 L126.197122,29.8639196 C126.197122,31.6091349 126.53754,32.8070833 127.21091,33.4625619 C127.891747,34.115642 129.110407,34.4515642 130.869565,34.4701874 L130.869565,39.4012316 L130.869565,39.4012316 Z" id="Shape" fill="#1C1E1E"></path>
                    <path d="M153.881643,32.2047936 C152.780918,35.2375459 150.758273,37.413351 147.810326,38.7120338 C146.321981,39.3775294 144.8063,39.7083725 143.262017,39.7083725 C140.348732,39.7083725 137.786997,38.6808541 135.569485,36.6320251 C133.094686,34.3419415 131.859823,31.5455057 131.859823,28.2328418 C131.859823,24.826921 133.179227,21.9645987 135.821699,19.6383975 C137.921276,17.792448 140.397202,16.8631244 143.24215,16.8631244 C146.423853,16.8631244 149.115922,17.9851694 151.317371,20.2230517 C153.28281,22.2233477 154.265459,24.2920696 154.265459,26.4304873 C154.265459,27.768956 153.779771,28.8112882 152.815721,29.5577663 C152.039211,30.1548359 150.637802,30.4497025 148.624034,30.4497025 L137.293841,30.4497025 C137.736131,31.7383683 138.507568,32.7684262 139.619565,33.539594 C140.727617,34.310903 141.970089,34.6964869 143.341626,34.6964869 C145.406401,34.6964869 147.108353,33.8680387 148.448893,32.2047936 L153.881643,32.2047936 L153.881643,32.2047936 Z M149.234702,25.9228653 C148.792411,24.685131 148.040841,23.7024775 146.974779,22.9709544 C145.903925,22.2408421 144.702597,21.8762798 143.364593,21.8762798 C140.488647,21.8762798 138.489674,23.2222259 137.37035,25.9228653 L149.234702,25.9228653 L149.234702,25.9228653 Z" id="Shape" fill="#1C1E1E"></path>
                    <rect id="Rectangle-path" fill="#1C1E1E" x="156.205113" y="9.99061643" width="5.10726651" height="29.4107562"></rect>
                    <path d="M174.898551,39.4012316 L168.548953,39.4012316 L163.544827,32.0979926 C162.208092,30.1436902 161.537118,28.6745773 161.537118,27.6919238 C161.537118,27.1470555 161.631522,26.6892363 161.815399,26.3173376 C162.185688,25.5051141 162.806783,24.4675787 163.681502,23.2136197 L167.901651,17.1718173 L174.087238,17.1718173 L166.41711,27.6023352 L174.898551,39.4012316 L174.898551,39.4012316 Z" id="Shape" fill="#1C1E1E"></path>
                    <g id="Clipped">
                        <mask id="mask-2" fill="white">
                            <use xlink:href="#path-1"></use>
                        </mask>
                        <g id="Shape"></g>
                        <polygon id="Shape" fill="url(#linearGradient-3)" mask="url(#mask-2)" points="30.6175322 71.7083114 -17.3309179 27.8282114 23.781401 -17.2123085 71.729851 26.6679325 30.6175322 71.7083114"></polygon>
                    </g>
                    <g id="Clipped" transform="translate(6.481481, 7.336394)">
                        <mask id="mask-5" fill="white">
                            <use xlink:href="#path-4"></use>
                        </mask>
                        <g id="Shape"></g>
                        <polygon id="Shape" fill="url(#linearGradient-6)" mask="url(#mask-5)" points="27.3269122 -13.4600253 73.5405797 28.832592 32.9495974 73.3018608 -13.26407 31.0093847 27.3269122 -13.4600253"></polygon>
                    </g>
                </g>
            </g>
        </g>
    </g>
</svg>