<?xml version="1.0" encoding="UTF-8" standalone="no"?>
<svg width="120px" height="44px" viewBox="0 0 120 44" version="1.1" xmlns="http://www.w3.org/2000/svg" xmlns:xlink="http://www.w3.org/1999/xlink">
    <!-- Generator: Sketch 40.3 (33839) - http://www.bohemiancoding.com/sketch -->
    <title>Page 1</title>
    <desc>Created with Sketch.</desc>
    <defs></defs>
    <g id="Page-1" stroke="none" stroke-width="1" fill="none" fill-rule="evenodd">
        <g id="Artboard" transform="translate(-269.000000, -7066.000000)" fill="#34363E">
            <g id="Page-1" transform="translate(269.000000, 7066.000000)">
                <path d="M59.2736066,14.787609 C59.8406557,15.7887326 60.1696721,16.9574517 60.1696721,18.2023056 C60.1696721,21.5680584 57.8011475,24.3697213 54.712623,24.8883281 C54.427377,24.9491371 54.1244262,24.9797888 53.8185246,24.9797888 C51.4234426,24.9797888 49.474918,23.0942157 49.474918,20.771609 C49.474918,18.4485079 51.4234426,16.5589798 53.8185246,16.5589798 C56.2155738,16.5589798 58.1636066,18.4485079 58.1636066,20.771609 C58.1636066,20.8685079 58.1567213,20.9639236 58.1532787,21.0618112 C58.9519672,20.0280584 59.4344262,18.710036 59.4344262,17.2699011 C59.4344262,16.2025303 59.1668852,15.2068449 58.6981967,14.3347551 C57.332459,13.3558787 55.6460656,12.7774517 53.8185246,12.7774517 C49.2732787,12.7774517 45.5758525,16.361227 45.5758525,20.771609 L45.5758525,33.5019461 L49.474918,33.5019461 L49.474918,27.5560135 C50.7368852,28.3188449 52.227541,28.7623056 53.8185246,28.7623056 C58.3652459,28.7623056 62.065082,25.1760584 62.065082,20.771609 C62.065082,18.389182 60.9845902,16.2524629 59.2736066,14.787609" id="Fill-1"></path>
                <path d="M75.1485246,19.1404449 C74.8411475,18.2683551 74.312459,17.5757258 73.562459,17.0615685 C72.8159016,16.5469169 71.97,16.290827 71.0306557,16.290827 C69.0108197,16.290827 67.6096721,17.2385573 66.8242623,19.1404449 L75.1485246,19.1404449 Z M78.4121311,23.5661528 C77.637541,25.7028719 76.2201639,27.2344674 74.1516393,28.1520404 C73.1055738,28.6182427 72.0422951,28.8530742 70.9608197,28.8530742 C68.9163934,28.8530742 67.1159016,28.1278157 65.5583607,26.6832315 C63.8237705,25.0705573 62.9562295,23.1019281 62.9562295,20.7684449 C62.9562295,18.3687146 63.8837705,16.3511416 65.7368852,14.7142427 C67.2132787,13.4125348 68.9454098,12.7589618 70.9431148,12.7589618 C73.1759016,12.7589618 75.0654098,13.5484899 76.6106557,15.1255685 C77.9901639,16.5345573 78.6801639,17.9924899 78.6801639,19.4978831 C78.6801639,20.441164 78.3383607,21.1763101 77.6636066,21.7018382 C77.1157377,22.1205798 76.1360656,22.3282202 74.7221311,22.3282202 L66.7716393,22.3282202 C67.08,23.2378831 67.6239344,23.9631416 68.402459,24.5064674 C69.1819672,25.0502876 70.0504918,25.3217034 71.0139344,25.3217034 C72.4647541,25.3217034 73.6578689,24.7373438 74.5972131,23.5661528 L78.4121311,23.5661528 Z" id="Fill-2"></path>
                <path d="M88.1572131,28.6365348 C85.8772131,28.6365348 84.1883607,28.1342427 83.095082,27.1311416 C81.8965574,26.0197708 81.2960656,24.2518607 81.2960656,21.8274112 L81.2960656,16.4317258 L78.6398361,16.4317258 L78.6398361,12.9750067 L81.2960656,12.9750067 L81.2960656,7.91550112 L84.8778689,7.91550112 L84.8778689,12.9750067 L88.1572131,12.9750067 L88.1572131,16.4317258 L84.8778689,16.4317258 L84.8778689,21.9164 C84.8778689,23.1469169 85.1168852,23.9913213 85.59,24.4525798 C86.0670492,24.9123551 86.9222951,25.1486697 88.1572131,25.1615236 L88.1572131,28.6365348 Z" id="Fill-3"></path>
                <path d="M101.043443,19.1404449 C100.733607,18.2683551 100.204918,17.5757258 99.4578689,17.0615685 C98.7059016,16.5469169 97.8639344,16.290827 96.9245902,16.290827 C94.9057377,16.290827 93.5036066,17.2385573 92.7177049,19.1404449 L101.043443,19.1404449 Z M104.30459,23.5661528 C103.532459,25.7028719 102.112623,27.2344674 100.044098,28.1520404 C98.9990164,28.6182427 97.9362295,28.8530742 96.8527869,28.8530742 C94.8088525,28.8530742 93.0098361,28.1278157 91.4532787,26.6832315 C89.7177049,25.0705573 88.8511475,23.1019281 88.8511475,20.7684449 C88.8511475,18.3687146 89.7762295,16.3511416 91.6308197,14.7142427 C93.1032787,13.4125348 94.8408197,12.7589618 96.8365574,12.7589618 C99.0708197,12.7589618 100.959344,13.5484899 102.504098,15.1255685 C103.882623,16.5345573 104.572623,17.9924899 104.572623,19.4978831 C104.572623,20.441164 104.232295,21.1763101 103.55459,21.7018382 C103.009672,22.1205798 102.028525,22.3282202 100.61459,22.3282202 L92.665082,22.3282202 C92.9739344,23.2378831 93.5163934,23.9631416 94.294918,24.5064674 C95.0734426,25.0502876 95.9454098,25.3217034 96.9063934,25.3217034 C98.3562295,25.3217034 99.5518033,24.7373438 100.490656,23.5661528 L104.30459,23.5661528 Z" id="Fill-4"></path>
                <polygon id="Fill-5" points="105.934918 28.6364854 109.51918 28.6364854 109.51918 7.91545169 105.934918 7.91545169"></polygon>
                <path d="M119.053279,28.6365348 L114.597541,28.6365348 L111.085574,23.490018 C110.146721,22.1146472 109.678033,21.0799056 109.678033,20.386782 C109.678033,20.003636 109.742459,19.6812989 109.872295,19.4182876 C110.131967,18.8457933 110.566721,18.115591 111.180492,17.231636 L114.144098,12.9750067 L118.48377,12.9750067 L113.100984,20.3230067 L119.053279,28.6365348 Z" id="Fill-6"></path>
                <path d="M85.5211475,32.1821933 L84.4942623,32.1821933 L84.4942623,33.8883056 L85.5211475,33.8883056 C86.0242623,33.8883056 86.4516393,33.5901933 86.4516393,33.0340135 C86.4516393,32.4798112 86.0242623,32.1821933 85.5211475,32.1821933 M85.6386885,34.3876315 L84.4942623,34.3876315 L84.4942623,35.682418 C84.4942623,35.7180135 84.4701639,35.743227 84.4347541,35.743227 L83.9955738,35.743227 C83.9601639,35.743227 83.9365574,35.7180135 83.9365574,35.682418 L83.9365574,31.7407101 C83.9365574,31.7041258 83.9601639,31.6828674 83.9955738,31.6828674 L85.6386885,31.6828674 C86.3985246,31.6828674 87.0211475,32.2410247 87.0211475,33.0340135 C87.0211475,33.8274966 86.3985246,34.3876315 85.6386885,34.3876315" id="Fill-7"></path>
                <path d="M92.374918,35.7432764 L90.1391803,35.7432764 C90.1022951,35.7432764 90.0791803,35.7180629 90.0791803,35.6824674 L90.0791803,31.7407596 C90.0791803,31.7041753 90.1022951,31.6829169 90.1391803,31.6829169 L90.5778689,31.6829169 C90.6132787,31.6829169 90.637377,31.7041753 90.637377,31.7407596 L90.637377,35.2399955 L92.374918,35.2399955 C92.4098361,35.2399955 92.4344262,35.2661978 92.4344262,35.3003101 L92.4344262,35.6824674 C92.4344262,35.7180629 92.4098361,35.7432764 92.374918,35.7432764" id="Fill-8"></path>
                <path d="M97.917541,33.3863101 C97.917541,32.6842876 97.5442623,32.169636 96.8980328,32.169636 C96.2522951,32.169636 95.8716393,32.6842876 95.8716393,33.3863101 L95.8716393,33.8643775 L97.917541,33.8643775 L97.917541,33.3863101 Z M98.4157377,35.7435236 L97.9770492,35.7435236 C97.9470492,35.7435236 97.917541,35.7183101 97.917541,35.6827146 L97.917541,34.3661753 L95.8716393,34.3661753 L95.8716393,35.6827146 C95.8716393,35.7183101 95.847541,35.7435236 95.812623,35.7435236 L95.3734426,35.7435236 C95.3380328,35.7435236 95.3139344,35.7183101 95.3139344,35.6827146 L95.3139344,33.3996584 C95.3139344,32.5473438 95.8062295,31.6277933 96.8980328,31.6277933 C97.9898361,31.6277933 98.4752459,32.5473438 98.4752459,33.3996584 L98.4752459,35.6827146 C98.4752459,35.7183101 98.4516393,35.7435236 98.4157377,35.7435236 L98.4157377,35.7435236 Z" id="Fill-9"></path>
                <path d="M102.82623,35.7964225 C102.167705,35.7964225 101.793934,35.5808719 101.497869,35.3549393 C101.474262,35.3366472 101.467377,35.2941303 101.486066,35.2718831 L101.76541,34.9208719 C101.783607,34.8897258 101.817541,34.8897258 101.848525,34.9070292 C102.042295,35.0617708 102.299508,35.2664449 102.82623,35.2664449 C103.473443,35.2664449 103.687377,34.9436135 103.687377,34.6029843 C103.687377,34.1145348 103.117377,34.0621303 102.58918,33.8708045 C102.056066,33.679973 101.443279,33.4471191 101.443279,32.7124674 C101.443279,32.0569169 101.955246,31.6347146 102.892131,31.6347146 C103.419344,31.6347146 103.799508,31.8171416 104.037541,31.9738607 C104.066557,31.991164 104.071967,32.0287371 104.054754,32.0569169 L103.810328,32.4277034 C103.793607,32.4583551 103.752295,32.4623101 103.728689,32.4450067 C103.592459,32.3500854 103.301311,32.1646921 102.892131,32.1646921 C102.126885,32.1646921 102.014262,32.4865348 102.014262,32.7124674 C102.014262,33.1534562 102.536557,33.2454112 103.022951,33.4095461 C103.402131,33.5425348 104.255902,33.7620404 104.255902,34.6029843 C104.255902,35.3366472 103.692787,35.7964225 102.82623,35.7964225" id="Fill-10"></path>
                <path d="M109.757705,32.1821933 L108.572951,32.1821933 L108.572951,35.682418 C108.572951,35.7180135 108.541967,35.743227 108.511967,35.743227 L108.072787,35.743227 C108.037869,35.743227 108.01377,35.7180135 108.01377,35.682418 L108.01377,32.1821933 L106.828525,32.1821933 C106.791639,32.1821933 106.767541,32.1589573 106.767541,32.1243506 L106.767541,31.7407101 C106.767541,31.7041258 106.791639,31.6828674 106.828525,31.6828674 L109.757705,31.6828674 C109.787705,31.6828674 109.817705,31.7041258 109.817705,31.7407101 L109.817705,32.1243506 C109.817705,32.1589573 109.787705,32.1821933 109.757705,32.1821933" id="Fill-11"></path>
                <path d="M113.217541,35.743227 L112.589016,35.743227 L112.589016,31.7649348 L113.217541,31.7649348 L113.217541,35.743227 Z M112.904754,30.5917663 C113.005574,30.5917663 113.090656,30.6248899 113.157541,30.6960809 C113.226885,30.7657888 113.261311,30.8528 113.261311,30.9571146 C113.261311,31.0545079 113.226885,31.1355865 113.155574,31.2048 C113.085246,31.2745079 113.000656,31.3091146 112.904754,31.3091146 C112.806393,31.3091146 112.72377,31.2745079 112.652459,31.2023281 C112.582623,31.1355865 112.548197,31.0505528 112.548197,30.951182 C112.548197,30.8488449 112.582623,30.7657888 112.651475,30.6960809 C112.719836,30.6268674 112.803934,30.5917663 112.904754,30.5917663 L112.904754,30.5917663 Z" id="Fill-12"></path>
                <path d="M119.507705,35.7432764 L118.925902,35.7432764 C118.898361,35.7432764 118.861475,35.7239955 118.827049,35.6824674 L117.41459,33.8710517 L117.063934,34.257164 L117.063934,35.6824674 C117.063934,35.7180629 117.038852,35.7432764 117.004918,35.7432764 L116.566721,35.7432764 C116.529344,35.7432764 116.506721,35.7180629 116.506721,35.6824674 L116.506721,31.7407596 C116.506721,31.7041753 116.529344,31.6829169 116.566721,31.6829169 L117.004918,31.6829169 C117.038852,31.6829169 117.063934,31.7041753 117.063934,31.7407596 L117.063934,33.5012539 L118.613115,31.7407596 C118.647541,31.7002202 118.678033,31.6829169 118.714918,31.6829169 L119.324262,31.6829169 C119.365082,31.6829169 119.377869,31.7284 119.347869,31.7580629 L117.799672,33.4597258 L119.532295,35.665164 C119.55541,35.6903775 119.55541,35.7432764 119.507705,35.7432764" id="Fill-13"></path>
                <path d="M34.5402295,25.5336449 C34.3931803,28.0189034 33.4518689,29.9687461 32.4136721,31.6194876 C31.3754754,33.2687461 29.9000656,34.5828135 28.2431803,35.6106337 C24.991377,37.6282067 20.0812131,38.7425438 14.8754754,37.8155775 C12.6284262,37.4156225 10.5948197,36.7155775 8.77170492,35.7500494 C7.00711475,34.815173 5.37285246,33.6805663 4.18711475,32.1771506 C3.02498361,30.7033978 1.96318033,29.020027 1.20383607,26.9856449 C0.449901639,24.9616449 -0.104360656,22.6172854 0.0166229508,20.0341393 C0.258098361,14.8614202 1.88842623,11.0625888 4.2697377,7.89162247 C6.60481967,4.78195955 9.56547541,2.22056629 13.6326885,0.912925843 C15.7159672,0.243532584 18.3495738,-0.0867146067 20.841541,0.0195775281 C23.4151475,0.129330337 25.7030164,0.575757303 27.6353115,1.35984719 C31.5244918,2.93742022 34.2594098,5.58384719 36.7499016,8.56151011 C36.7444918,8.58524045 36.7602295,8.58820674 36.7774426,8.58919551 C33.6977705,6.21962247 29.1672787,4.40870112 23.4923607,4.79333034 C18.1420328,5.15521798 14.5307213,6.98393708 11.5887541,9.95715056 C10.2254754,11.3349933 9.09629508,13.2052404 8.55088525,15.512027 C8.36006557,16.3178697 8.18695082,17.1420045 8.16383607,17.9686112 C8.0635082,21.6216 9.24383607,24.5819596 10.9538361,26.6222742 C12.7046557,28.7115326 15.166623,30.1224989 18.1346557,30.8373753 C21.3633443,31.6155326 25.2471148,31.3614202 28.0499016,30.3904539 C30.8595738,29.4165213 33.0535082,27.7870382 34.5402295,25.5336449" id="Fill-14"></path>
                <path d="M8.7952623,18.5891101 C8.85870492,15.974818 9.67411475,13.9305483 10.7821475,12.2931551 C11.8847705,10.6621888 13.3055902,9.31400899 15.0037869,8.27086292 C18.298377,6.24636854 23.2788689,5.00794157 28.4969016,5.85728989 C33.1705082,6.61814382 36.6087049,8.65450337 39.0923115,11.7656494 C41.4539508,14.7245258 43.4826393,18.7848854 43.2313279,24.0812 C42.9849344,29.2929753 41.1967377,33.0117169 38.7888689,36.174773 C36.463623,39.2300539 33.258541,41.8141888 29.1037869,42.9705483 C26.8277213,43.6048404 24.2880492,43.8174247 21.6539508,43.6641663 C16.4806721,43.3620989 12.981,41.4226382 10.0095246,38.8375146 C8.51886885,37.5412449 7.22739344,36.0244809 5.98067213,34.5383685 C9.15477049,36.9153573 13.3744426,38.8098292 19.0321475,38.8098292 C20.8154262,38.8098292 22.543623,38.5418742 24.0819836,38.144391 C28.5155902,36.9984135 31.9090328,34.4607506 33.7946066,30.6273124 C34.4128033,29.3710876 35.0088689,27.8582787 35.0914918,26.1892449 C35.2764098,22.4576494 34.1098525,19.4607056 32.3875574,17.3684809 C30.6377213,15.243627 28.2195246,13.7975596 25.2131311,13.0693348 C21.9357541,12.2753573 18.0037869,12.5972 15.2246066,13.5963461 C12.411,14.6073573 10.2205082,16.2393124 8.7952623,18.5891101" id="Fill-15"></path>
            </g>
        </g>
    </g>
</svg>