<?xml version="1.0" encoding="UTF-8" standalone="no"?>
<svg width="16px" height="16px" viewBox="0 0 16 16" version="1.1" xmlns="http://www.w3.org/2000/svg" xmlns:xlink="http://www.w3.org/1999/xlink">
    <!-- Generator: Sketch 40.3 (33839) - http://www.bohemiancoding.com/sketch -->
    <title>inss</title>
    <desc>Created with Sketch.</desc>
    <defs></defs>
    <g id="Page-1" stroke="none" stroke-width="1" fill="none" fill-rule="evenodd">
        <g id="Artboard" transform="translate(-920.000000, -7184.000000)" fill="#FFFFFF">
            <g id="inss" transform="translate(920.000000, 7184.000000)">
                <path d="M4.58666667,0.0533333333 C3.75111111,0.0888888889 3.18222222,0.213333333 2.68444444,0.391111111 C2.18666667,0.586666667 1.74222222,0.853333333 1.31555556,1.28 C0.871111111,1.70666667 0.604444444,2.11555556 0.408888889,2.63111111 C0.213333333,3.11111111 0.0888888889,3.66222222 0.0533333333,4.46222222 C0.0177777778,5.28 0,5.54666667 0,7.60888889 C0,9.67111111 0.0177777778,9.93777778 0.0533333333,10.7377778 C0.0888888889,11.5555556 0.213333333,12.1066667 0.408888889,12.5866667 C0.604444444,13.0844444 0.871111111,13.5111111 1.31555556,13.9377778 C1.74222222,14.3644444 2.18666667,14.6133333 2.68444444,14.8088889 C3.18222222,15.0044444 3.75111111,15.1288889 4.58666667,15.1644444 C5.42222222,15.2 5.68888889,15.2177778 7.80444444,15.2177778 C9.92,15.2177778 10.1866667,15.2 11.0222222,15.1644444 C11.8577778,15.1288889 12.4266667,15.0044444 12.9066667,14.8088889 C13.4222222,14.6133333 13.8666667,14.3644444 14.2933333,13.9377778 C14.7377778,13.5111111 15.0044444,13.0844444 15.2,12.5866667 C15.3955556,12.1066667 15.52,11.5555556 15.5555556,10.7377778 C15.5911111,9.93777778 15.6088889,9.67111111 15.6088889,7.60888889 C15.6088889,5.54666667 15.5911111,5.28 15.5555556,4.46222222 C15.52,3.66222222 15.3955556,3.11111111 15.2,2.63111111 C15.0044444,2.11555556 14.7377778,1.70666667 14.2933333,1.28 C13.8666667,0.853333333 13.4222222,0.586666667 12.9066667,0.391111111 C12.4266667,0.213333333 11.8577778,0.0888888889 11.0222222,0.0533333333 C10.1866667,0 9.92,0 7.80444444,0 C5.68888889,0 5.42222222,0 4.58666667,0.0533333333 L4.58666667,0.0533333333 Z M10.9511111,1.42222222 C11.7155556,1.44 12.1244444,1.56444444 12.4088889,1.67111111 C12.7644444,1.81333333 13.0311111,1.97333333 13.2977778,2.24 C13.5822222,2.50666667 13.7422222,2.77333333 13.8844444,3.11111111 C13.9911111,3.39555556 14.1155556,3.78666667 14.1511111,4.53333333 C14.1866667,5.33333333 14.2044444,5.58222222 14.2044444,7.60888889 C14.2044444,9.63555556 14.1866667,9.88444444 14.1511111,10.6844444 C14.1155556,11.4133333 13.9911111,11.8222222 13.8844444,12.0888889 C13.7422222,12.4444444 13.5822222,12.6933333 13.2977778,12.96 C13.0311111,13.2266667 12.7644444,13.3866667 12.4088889,13.5288889 C12.1244444,13.6355556 11.7155556,13.76 10.9511111,13.7955556 C10.1333333,13.8311111 9.88444444,13.8311111 7.80444444,13.8311111 C5.72444444,13.8311111 5.47555556,13.8311111 4.65777778,13.7955556 C3.89333333,13.76 3.48444444,13.6355556 3.2,13.5288889 C2.84444444,13.3866667 2.57777778,13.2266667 2.31111111,12.96 C2.02666667,12.6933333 1.86666667,12.4444444 1.72444444,12.0888889 C1.61777778,11.8222222 1.49333333,11.4133333 1.45777778,10.6844444 C1.42222222,9.88444444 1.40444444,9.63555556 1.40444444,7.60888889 C1.40444444,5.58222222 1.42222222,5.33333333 1.45777778,4.53333333 C1.49333333,3.78666667 1.61777778,3.39555556 1.72444444,3.11111111 C1.86666667,2.77333333 2.02666667,2.50666667 2.31111111,2.24 C2.57777778,1.97333333 2.84444444,1.81333333 3.2,1.67111111 C3.48444444,1.56444444 3.89333333,1.44 4.65777778,1.42222222 C5.47555556,1.38666667 5.72444444,1.36888889 7.80444444,1.36888889 C9.88444444,1.36888889 10.1333333,1.38666667 10.9511111,1.42222222 L10.9511111,1.42222222 Z M3.80444444,7.60888889 C3.80444444,9.76 5.58222222,11.5022222 7.80444444,11.5022222 C10.0088889,11.5022222 11.8044444,9.76 11.8044444,7.60888889 C11.8044444,5.44 10.0088889,3.69777778 7.80444444,3.69777778 C5.58222222,3.69777778 3.80444444,5.44 3.80444444,7.60888889 L3.80444444,7.60888889 Z M5.20888889,7.60888889 C5.20888889,6.20444444 6.36444444,5.06666667 7.80444444,5.06666667 C9.24444444,5.06666667 10.4,6.20444444 10.4,7.60888889 C10.4,9.01333333 9.24444444,10.1333333 7.80444444,10.1333333 C6.36444444,10.1333333 5.20888889,9.01333333 5.20888889,7.60888889 L5.20888889,7.60888889 Z M12.9066667,3.53777778 C12.9066667,3.04 12.48,2.63111111 11.9644444,2.63111111 C11.4488889,2.63111111 11.04,3.04 11.04,3.53777778 C11.04,4.05333333 11.4488889,4.46222222 11.9644444,4.46222222 C12.48,4.46222222 12.9066667,4.05333333 12.9066667,3.53777778 L12.9066667,3.53777778 Z" id="Shape"></path>
            </g>
        </g>
    </g>
</svg>