<?xml version="1.0" encoding="UTF-8" standalone="no"?>
<svg width="15px" height="13px" viewBox="0 0 15 13" version="1.1" xmlns="http://www.w3.org/2000/svg" xmlns:xlink="http://www.w3.org/1999/xlink">
    <!-- Generator: Sketch 40.3 (33839) - http://www.bohemiancoding.com/sketch -->
    <title>tw</title>
    <desc>Created with Sketch.</desc>
    <defs></defs>
    <g id="Page-1" stroke="none" stroke-width="1" fill="none" fill-rule="evenodd">
        <g id="Artboard" transform="translate(-921.000000, -7156.000000)" fill="#FFFFFF">
            <g id="tw" transform="translate(921.000000, 7156.000000)">
                <path d="M14.8088889,1.48571429 C14.2577778,1.74571429 13.6711111,1.91285714 13.0488889,1.98714286 C13.6888889,1.59714286 14.1688889,0.965714286 14.4,0.241428571 C13.8133333,0.594285714 13.1555556,0.854285714 12.4622222,1.00285714 C11.9111111,0.39 11.1288889,0 10.24,0 C8.56888889,0 7.21777778,1.41142857 7.21777778,3.17571429 C7.21777778,3.41714286 7.23555556,3.65857143 7.28888889,3.9 C4.76444444,3.75142857 2.52444444,2.50714286 1.03111111,0.575714286 C0.764444444,1.04 0.622222222,1.59714286 0.622222222,2.17285714 C0.622222222,3.26857143 1.15555556,4.23428571 1.97333333,4.81 C1.47555556,4.79142857 0.995555556,4.66142857 0.586666667,4.42 L0.586666667,4.45714286 C0.586666667,5.99857143 1.63555556,7.28 3.02222222,7.55857143 C2.77333333,7.63285714 2.50666667,7.67 2.22222222,7.67 C2.02666667,7.67 1.84888889,7.65142857 1.65333333,7.61428571 C2.04444444,8.87714286 3.16444444,9.78714286 4.49777778,9.82428571 C3.44888889,10.6785714 2.15111111,11.18 0.728888889,11.18 C0.48,11.18 0.231111111,11.1614286 -2.27373675e-13,11.1242857 C1.35111111,12.0342857 2.93333333,12.5542857 4.65777778,12.5542857 C10.24,12.5542857 13.2977778,7.72571429 13.2977778,3.52857143 C13.2977778,3.39857143 13.2977778,3.26857143 13.28,3.12 C13.8844444,2.67428571 14.4,2.11714286 14.8088889,1.48571429" id="Shape"></path>
            </g>
        </g>
    </g>
</svg>