<?xml version="1.0" encoding="utf-8"?>
<!-- Generator: Adobe Illustrator 18.0.0, SVG Export Plug-In . SVG Version: 6.00 Build 0)  -->
<!DOCTYPE svg PUBLIC "-//W3C//DTD SVG 1.1//EN" "http://www.w3.org/Graphics/SVG/1.1/DTD/svg11.dtd">
<svg version="1.1" id="Layer_1" xmlns="http://www.w3.org/2000/svg" xmlns:xlink="http://www.w3.org/1999/xlink" x="0px" y="0px"
	 viewBox="0 0 360 108" enable-background="new 0 0 360 108" xml:space="preserve">
<path fill="#333333" d="M325.1,27.3L341,62.8l-9.7,22.8h-5l-26.4-58.3H325.1z M304.6,98.6c0-5,4-8.7,8.8-8.7c4.8,0,8.8,3.7,8.8,8.6
	c0,5-4,8.6-8.8,8.6C308.6,107.1,304.6,103.6,304.6,98.6z M344.4,27.3H360c-5.5,7.5-7.8,10.9-13.5,19.5l-1.2-1.2
	C345.3,37.9,345,35.1,344.4,27.3z"/>
<path fill="#333333" d="M0,73c0-6.3,4.9-11,10.9-11s10.9,4.8,10.9,11c0,6-4.9,10.9-10.9,10.9S0,79,0,73z M28.2,74.3v-62l27.7-2.6
	v48.6c0,20.1-14.5,26.6-35.4,26.9h0C25.4,84.5,28.2,80.7,28.2,74.3z"/>
<path fill="#333333" d="M61.8,71.4c0-9.4,5.8-13,11.6-15c3.1-1,13.1-3.1,18.5-3.7l0,0c-1.5,0.5-3.4,1.9-4.5,3
	c-1.8,2.3-2.5,5-2.5,11.2c0,8,1.2,10.9,4.2,10.9c1.8,0,2.8-0.9,3.7-1.3l0,0c-0.6,3.5-4.4,9.7-14,9.7C69,86.2,61.8,81.3,61.8,71.4z
	 M65.5,42.8c0-4.4,2.8-7.8,8.1-7.8c5.3,0,8,3.4,8,7.8c0,4.4-2.7,7.8-8,7.8C68.3,50.7,65.5,47.3,65.5,42.8z M80.8,30.8
	c-2.8,0-5.1,0.5-7,1l0,0c4.7-3.3,13.7-5.5,21.1-5.5c15,0,23.9,4.7,23.9,17v41.9h-24V46.6C94.7,35.5,89.5,30.8,80.8,30.8z"/>
<path fill="#333333" d="M152.3,0.9v84.3h-24V3.1L152.3,0.9z M154.3,60.3L172,44.9c8.5,16.7,13.9,25.5,21.7,39.2v1.1h-25.2
	C162.9,75.8,158.8,69.7,154.3,60.3z M171.5,27.3h20.2c-6.3,5.5-9.8,8.8-16.1,15.4l-0.7-1.2C173.9,35.5,173.1,32.8,171.5,27.3z"/>
<g>
	<path fill="#333333" d="M295,0.9l-24,2.2v58c3,3.2,5.7,7.7,5.7,13.1c0,4.2-1.1,7.7-3.3,10.7H295V0.9z"/>
</g>
<g>
	<path fill="#333333" d="M242.7,67.6c-2.8,0.9-6,1.4-9.5,1.4c-11.2,0-16.4-7.4-16.4-20.6c0-16.5,1.5-20.8,6.2-20.8
		c4.4,0,4.6,7.5,4.6,20.3l-8.5,1.2V50h29.4c0-10-7.4-24-25.5-24c-16.7,0-30.4,13.8-30.4,30c0,15.2,9.1,30.2,29.7,30.2
		c8.9,0,15.4-3.3,19.7-7.6c-0.3-1.3-0.5-2.7-0.5-4.1C241.4,71.9,241.9,69.7,242.7,67.6z"/>
</g>
<g>
	<path fill="#333333" d="M247,74.3c0-7,5.4-12.1,12.3-12.1c6.9,0,12.1,5.1,12.1,12.1c0,7-5.3,11.9-12.1,11.9
		C252.4,86.2,247,81.3,247,74.3z"/>
</g>
</svg>
