<?xml version="1.0" encoding="utf-8"?>
<!-- Generator: Adobe Illustrator 16.0.4, SVG Export Plug-In . SVG Version: 6.00 Build 0)  -->
<!DOCTYPE svg PUBLIC "-//W3C//DTD SVG 1.1//EN" "http://www.w3.org/Graphics/SVG/1.1/DTD/svg11.dtd">
<svg version="1.1" id="Layer_1" xmlns="http://www.w3.org/2000/svg" xmlns:xlink="http://www.w3.org/1999/xlink" x="0px" y="0px"
	 width="128px" height="64px" viewBox="0 0 128 64" enable-background="new 0 0 128 64" xml:space="preserve">
<path fill="#F05355" d="M46.002,31.994c0-0.391-0.239-0.634-0.577-0.812c-0.02-0.013-22.786-9.944-22.786-9.944
	c-0.059-0.026-0.12-0.038-0.183-0.038c-0.087,0-0.173,0.023-0.249,0.072c-0.129,0.083-0.206,0.227-0.206,0.377v9.006
	c0,0.243,0.192,0.44,0.436,0.45L44.969,32l-22.532,0.893c-0.243,0.012-0.436,0.208-0.436,0.451v9.006
	c0,0.15,0.077,0.294,0.206,0.378c0.076,0.048,0.162,0.073,0.249,0.073c0.062,0,0.123-0.014,0.182-0.04l22.538-9.827
	C45.615,32.767,46.002,32.467,46.002,31.994z"/>
<path fill="#FFFFFF" d="M110.002,31.994c0-0.391-0.238-0.634-0.576-0.812c-0.02-0.013-22.787-9.944-22.787-9.944
	C86.58,21.212,86.52,21.2,86.457,21.2c-0.088,0-0.174,0.023-0.248,0.072c-0.129,0.083-0.207,0.227-0.207,0.377v9.006
	c0,0.243,0.193,0.44,0.437,0.45L108.969,32l-22.53,0.893c-0.243,0.012-0.437,0.208-0.437,0.451v9.006
	c0,0.15,0.078,0.294,0.207,0.378c0.074,0.048,0.16,0.073,0.248,0.073c0.062,0,0.123-0.014,0.182-0.04l22.539-9.827
	C109.615,32.767,110.002,32.467,110.002,31.994z"/>
</svg>
