<?xml version="1.0" encoding="utf-8"?>
<!-- Generator: Adobe Illustrator 18.0.0, SVG Export Plug-In . SVG Version: 6.00 Build 0)  -->
<!DOCTYPE svg PUBLIC "-//W3C//DTD SVG 1.1//EN" "http://www.w3.org/Graphics/SVG/1.1/DTD/svg11.dtd">
<svg version="1.1" id="Layer_1" xmlns="http://www.w3.org/2000/svg" xmlns:xlink="http://www.w3.org/1999/xlink" x="0px" y="0px"
	 viewBox="0 40 600 240" enable-background="new 0 40 600 240" xml:space="preserve">
<g>
	<path fill="#3D5695" d="M48.2,81.2v-10h7.3v2h-4.8v1.9h3.9v2h-3.9v2h4.8v2L48.2,81.2L48.2,81.2z"/>
	<path fill="#3D5695" d="M64.1,71.2h2.4v10.1h-2.7l-4.2-6.6v6.5h-2.4v-10H60l4.2,6.5L64.1,71.2L64.1,71.2z"/>
	<path fill="#3D5695" d="M77.9,76.2c0,0.8-0.1,1.5-0.4,2.1c-0.3,0.6-0.6,1.2-1.1,1.6c-0.5,0.4-1.1,0.8-1.8,1
		c-0.7,0.2-1.5,0.4-2.4,0.4h-3.6v-10h3.8c0.9,0,1.7,0.1,2.4,0.4c0.7,0.2,1.3,0.6,1.7,1s0.8,0.9,1.1,1.6
		C77.7,74.7,77.9,75.4,77.9,76.2z M75.3,76.3c0-1-0.3-1.8-0.8-2.3s-1.3-0.7-2.3-0.7h-1.1v5.9h1.2c0.9,0,1.7-0.2,2.2-0.7
		C75,78,75.3,77.3,75.3,76.3z"/>
	<path fill="#3D5695" d="M85.6,79.4c0.4,0,0.8-0.1,1.1-0.2c0.3-0.2,0.4-0.4,0.4-0.7c0-0.2,0-0.3-0.1-0.4s-0.2-0.2-0.4-0.3
		c-0.2-0.1-0.4-0.2-0.6-0.3c-0.3-0.1-0.5-0.2-0.9-0.3c-0.4-0.1-0.7-0.2-1.1-0.4c-0.4-0.1-0.7-0.3-1-0.6c-0.3-0.2-0.6-0.5-0.8-0.9
		c-0.2-0.4-0.3-0.8-0.3-1.3c0-0.9,0.3-1.7,1-2.2c0.7-0.6,1.6-0.8,2.8-0.8c0.8,0,1.5,0.1,2.1,0.2c0.6,0.2,1.2,0.4,1.6,0.6L88.9,74
		c-0.5-0.3-1-0.5-1.6-0.6c-0.6-0.2-1.1-0.2-1.6-0.2c-0.9,0-1.3,0.3-1.3,0.8c0,0.2,0.1,0.3,0.2,0.4s0.3,0.2,0.4,0.3
		c0.2,0.1,0.4,0.2,0.7,0.3c0.3,0.1,0.5,0.2,0.8,0.2c0.4,0.1,0.8,0.2,1.1,0.4c0.4,0.1,0.7,0.3,1,0.6c0.3,0.2,0.5,0.5,0.7,0.8
		s0.3,0.7,0.3,1.2s-0.1,0.9-0.3,1.3c-0.2,0.4-0.4,0.7-0.8,1s-0.8,0.5-1.3,0.7c-0.5,0.2-1.1,0.2-1.8,0.2c-0.7,0-1.5-0.1-2.1-0.3
		c-0.7-0.2-1.3-0.4-1.7-0.7l0.5-2.1c0.5,0.3,1,0.5,1.6,0.7C84.4,79.3,85,79.4,85.6,79.4z"/>
	<path fill="#3D5695" d="M96.1,73.4v7.9h-2.5v-7.9h-3.2v-2.1h8.9v2.1H96.1z"/>
	<path fill="#3D5695" d="M108.8,81.2h-2.5l-0.7-2.1h-3.7l-0.7,2.1h-2.5l3.6-10h3.2L108.8,81.2z M103.7,73.2l-1.3,3.9h2.6L103.7,73.2
		z"/>
	<path fill="#3D5695" d="M113.9,73.4v7.9h-2.5v-7.9h-3.2v-2.1h8.9v2.1H113.9z"/>
	<path fill="#3D5695" d="M118.5,81.2v-10h7.3v2H121v1.9h3.9v2H121v2h4.8v2L118.5,81.2L118.5,81.2z"/>
</g>
<g>
	<path fill="#3D5695" d="M36.4,248c0.4,0,0.8-0.1,1.1-0.2s0.4-0.4,0.4-0.7c0-0.2,0-0.3-0.1-0.4c-0.1-0.1-0.2-0.2-0.4-0.3
		s-0.4-0.2-0.6-0.3c-0.3-0.1-0.5-0.2-0.9-0.3s-0.7-0.2-1.1-0.4c-0.4-0.1-0.7-0.3-1-0.6c-0.3-0.2-0.6-0.5-0.8-0.9s-0.3-0.8-0.3-1.3
		c0-0.9,0.3-1.7,1-2.2c0.7-0.6,1.6-0.8,2.8-0.8c0.8,0,1.5,0.1,2.1,0.2c0.6,0.2,1.2,0.4,1.6,0.6l-0.5,2.1c-0.5-0.3-1-0.5-1.6-0.6
		c-0.6-0.2-1.1-0.2-1.6-0.2c-0.9,0-1.3,0.3-1.3,0.8c0,0.2,0.1,0.3,0.2,0.4c0.1,0.1,0.3,0.2,0.4,0.3c0.2,0.1,0.4,0.2,0.7,0.3
		s0.5,0.2,0.8,0.2c0.4,0.1,0.8,0.2,1.1,0.4c0.4,0.1,0.7,0.3,1,0.6c0.3,0.2,0.5,0.5,0.7,0.8s0.3,0.7,0.3,1.2s-0.1,0.9-0.3,1.3
		c-0.2,0.4-0.4,0.7-0.8,1s-0.8,0.5-1.3,0.7s-1.1,0.2-1.8,0.2s-1.5-0.1-2.1-0.3c-0.7-0.2-1.3-0.4-1.7-0.7l0.5-2.1
		c0.5,0.3,1,0.5,1.6,0.7C35.2,247.9,35.8,248,36.4,248z"/>
	<path fill="#3D5695" d="M46.9,242v7.9h-2.5V242h-3.2v-2.1h8.9v2.1H46.9z"/>
	<path fill="#3D5695" d="M59.7,249.9h-2.5l-0.7-2.1h-3.7l-0.7,2.1h-2.5l3.6-10h3.2L59.7,249.9z M54.6,241.8l-1.3,3.9h2.6L54.6,241.8
		z"/>
	<path fill="#3D5695" d="M63.3,249.9h-2.5v-10h4c1.3,0,2.3,0.3,3,0.9s1,1.3,1,2.3c0,0.7-0.2,1.3-0.5,1.8s-0.9,0.9-1.5,1.1l2.6,4
		h-2.9l-2-3.4l-1.2,0.1V249.9z M64.5,244.7c0.5,0,1-0.2,1.2-0.4s0.4-0.6,0.4-1.1c0-0.9-0.6-1.3-1.9-1.3h-1.1v2.8H64.5z"/>
	<path fill="#3D5695" d="M75.2,242v7.9h-2.5V242h-3.2v-2.1h8.9v2.1H75.2z"/>
	<path fill="#3D5695" d="M85.9,248c0.4,0,0.8-0.1,1.1-0.2s0.4-0.4,0.4-0.7c0-0.2,0-0.3-0.1-0.4c-0.1-0.1-0.2-0.2-0.4-0.3
		c-0.2-0.1-0.4-0.2-0.6-0.3c-0.3-0.1-0.5-0.2-0.9-0.3s-0.7-0.2-1.1-0.4c-0.4-0.1-0.7-0.3-1-0.6c-0.3-0.2-0.6-0.5-0.8-0.9
		s-0.3-0.8-0.3-1.3c0-0.9,0.3-1.7,1-2.2c0.7-0.6,1.6-0.8,2.8-0.8c0.8,0,1.5,0.1,2.1,0.2c0.6,0.2,1.2,0.4,1.6,0.6l-0.5,2.1
		c-0.5-0.3-1-0.5-1.6-0.6c-0.6-0.2-1.1-0.2-1.6-0.2c-0.9,0-1.3,0.3-1.3,0.8c0,0.2,0.1,0.3,0.2,0.4c0.1,0.1,0.3,0.2,0.4,0.3
		c0.2,0.1,0.4,0.2,0.7,0.3c0.3,0.1,0.5,0.2,0.8,0.2c0.4,0.1,0.8,0.2,1.1,0.4c0.4,0.1,0.7,0.3,1,0.6c0.3,0.2,0.5,0.5,0.7,0.8
		s0.3,0.7,0.3,1.2s-0.1,0.9-0.3,1.3c-0.2,0.4-0.4,0.7-0.8,1s-0.8,0.5-1.3,0.7s-1.1,0.2-1.8,0.2c-0.7,0-1.5-0.1-2.1-0.3
		c-0.7-0.2-1.3-0.4-1.7-0.7l0.5-2.1c0.5,0.3,1,0.5,1.6,0.7C84.7,247.9,85.3,248,85.9,248z"/>
	<path fill="#3D5695" d="M96.4,242v7.9h-2.5V242h-3.2v-2.1h8.9v2.1H96.4z"/>
	<path fill="#3D5695" d="M109.2,249.9h-2.5l-0.7-2.1h-3.7l-0.7,2.1h-2.5l3.6-10h3.2L109.2,249.9z M104,241.8l-1.3,3.9h2.6L104,241.8
		z"/>
	<path fill="#3D5695" d="M114.2,242v7.9h-2.5V242h-3.2v-2.1h8.9v2.1H114.2z"/>
	<path fill="#3D5695" d="M118.8,249.9v-10h7.3v2h-4.8v1.9h3.9v2h-3.9v2h4.8v2h-7.3V249.9z"/>
</g>
<g>
	<path fill="#3D5695" d="M338.3,263c0,0.8-0.1,1.5-0.4,2.1c-0.2,0.6-0.6,1.2-1.1,1.6c-0.5,0.4-1.1,0.8-1.8,1
		c-0.7,0.2-1.5,0.4-2.4,0.4H329v-10h3.8c0.9,0,1.7,0.1,2.4,0.4s1.3,0.6,1.7,1c0.5,0.4,0.8,0.9,1.1,1.6
		C338.2,261.6,338.3,262.2,338.3,263z M335.8,263.1c0-1-0.3-1.8-0.8-2.3s-1.3-0.7-2.3-0.7h-1.1v5.9h1.2c0.9,0,1.7-0.2,2.2-0.7
		C335.5,264.8,335.8,264.1,335.8,263.1z"/>
	<path fill="#3D5695" d="M348.4,265.9c-0.2,0.5-0.5,1-0.9,1.4s-0.8,0.6-1.4,0.8c-0.5,0.2-1.2,0.3-1.8,0.3c-0.7,0-1.2-0.1-1.8-0.2
		c-0.5-0.2-1-0.4-1.4-0.8s-0.7-0.8-0.9-1.3c-0.2-0.5-0.3-1.1-0.3-1.8V258h2.5v5.8c0,0.8,0.2,1.3,0.5,1.7s0.8,0.6,1.5,0.6
		c0.6,0,1.1-0.2,1.4-0.5s0.5-0.9,0.5-1.7V258h2.5v5.9C348.7,264.7,348.6,265.3,348.4,265.9z"/>
	<path fill="#3D5695" d="M353.3,268h-2.5v-10h4c1.3,0,2.3,0.3,3,0.9s1,1.3,1,2.3c0,0.7-0.2,1.3-0.5,1.8s-0.9,0.9-1.5,1.1l2.6,4h-2.9
		l-2-3.4l-1.2,0.1V268z M354.5,262.9c0.5,0,1-0.2,1.2-0.4s0.4-0.6,0.4-1.1c0-0.9-0.6-1.3-1.9-1.3h-1.1v2.8H354.5z"/>
	<path fill="#3D5695" d="M369.6,268h-2.5l-0.7-2.1h-3.7L362,268h-2.5l3.6-10h3.2L369.6,268z M364.5,260l-1.3,3.9h2.6L364.5,260z"/>
	<path fill="#3D5695" d="M374.6,260.2v7.9h-2.5v-7.9h-3.2V258h8.9v2.1h-3.2V260.2z"/>
	<path fill="#3D5695" d="M379.3,268v-10h2.5v10H379.3z"/>
	<path fill="#3D5695" d="M394,263c0,0.8-0.1,1.5-0.4,2.2c-0.3,0.7-0.6,1.2-1.1,1.7s-1,0.8-1.7,1.1c-0.6,0.2-1.3,0.4-2.1,0.4
		c-0.7,0-1.4-0.1-2.1-0.3c-0.7-0.2-1.2-0.6-1.7-1c-0.5-0.4-0.8-1-1.1-1.6c-0.3-0.7-0.4-1.4-0.4-2.2s0.1-1.5,0.4-2.2
		c0.3-0.7,0.6-1.2,1.1-1.7s1-0.8,1.7-1.1c0.6-0.3,1.3-0.4,2.1-0.4c0.7,0,1.4,0.1,2.1,0.3c0.6,0.2,1.2,0.6,1.7,1
		c0.5,0.4,0.8,1,1.1,1.6C393.9,261.4,394,262.2,394,263z M391.4,263.1c0-0.5-0.1-0.9-0.2-1.3c-0.1-0.4-0.3-0.7-0.5-1
		c-0.2-0.3-0.5-0.5-0.8-0.7s-0.7-0.2-1.1-0.2c-0.9,0-1.5,0.3-2,0.9c-0.5,0.6-0.7,1.3-0.7,2.3c0,0.5,0.1,0.9,0.2,1.3
		c0.1,0.4,0.3,0.7,0.5,1c0.2,0.3,0.5,0.5,0.8,0.7s0.7,0.2,1.1,0.2s0.8-0.1,1.1-0.2c0.3-0.2,0.6-0.4,0.8-0.6c0.2-0.3,0.4-0.6,0.5-1
		S391.4,263.5,391.4,263.1z"/>
	<path fill="#3D5695" d="M402.6,258h2.4v10.1h-2.7l-4.2-6.6v6.5h-2.4v-10h2.8l4.2,6.5L402.6,258L402.6,258z"/>
</g>
<line fill="none" stroke="#3D5695" stroke-width="2" stroke-linecap="round" stroke-miterlimit="10" x1="136" y1="70" x2="136" y2="250"/>
<line fill="none" stroke="#3D5695" stroke-width="2" stroke-linecap="round" stroke-miterlimit="10" x1="136" y1="250" x2="570" y2="250"/>
</svg>
