<?xml version="1.0" encoding="UTF-8"?>
<svg width="221px" height="77px" viewBox="0 0 221 77" version="1.1" xmlns="http://www.w3.org/2000/svg" xmlns:xlink="http://www.w3.org/1999/xlink">
    <!-- Generator: Sketch 42 (36781) - http://www.bohemiancoding.com/sketch -->
    <title>Page 1</title>
    <desc>Created with Sketch.</desc>
    <defs></defs>
    <g id="Page-1" stroke="none" stroke-width="1" fill="none" fill-rule="evenodd">
        <g id="6Deals" transform="translate(-862.000000, -180.000000)" fill="#262B2F">
            <g id="Group-9" transform="translate(120.000000, 142.000000)">
                <g id="Group">
                    <path d="M828.275808,115 C827.27284,115 826.411413,114.619998 825.690768,113.859993 C824.970883,113.086388 824.53256,111.715689 824.53256,109.964988 C824.53256,108.417852 824.900112,107.223517 825.634455,106.36853 C826.383257,105.513543 827.259142,105.092813 828.275808,105.092813 C829.292474,105.092813 830.168358,105.52707 830.902702,106.395657 C831.651503,107.264245 832.019055,108.472106 832.019055,110.019243 C832.019055,111.770017 831.567035,113.127116 830.846389,113.887121 C830.125744,114.633598 829.25062,115 828.275808,115 Z M812.010373,115 C811.007557,115 810.145979,114.619998 809.425638,113.859993 C808.705297,113.086388 808.26743,111.715689 808.26743,109.964988 C808.26743,108.417852 808.634678,107.223517 809.369097,106.36853 C810.117747,105.513543 810.993403,105.092813 812.010373,105.092813 C813.027344,105.092813 813.903,105.52707 814.637496,106.395657 C815.386069,107.264245 815.753317,108.472106 815.753317,110.019243 C815.753317,111.770017 815.301296,113.127116 814.580955,113.887121 C813.860614,114.633598 812.984957,115 812.010373,115 Z M952.736698,114.796435 L951.606647,114.796435 L951.606647,105.296378 L952.835625,105.296378 L956.775966,112.869296 L956.804883,112.869296 L956.804883,105.296378 L957.934174,105.296378 L957.934174,114.796435 L956.734112,114.796435 L952.764855,107.223517 L952.736698,107.223517 L952.736698,114.796435 Z M797.041416,114.796435 L795.600734,114.796435 L792.394584,105.296378 L793.679875,105.296378 L796.306997,113.425736 L796.335229,113.425736 L798.905887,105.296378 L800.177023,105.296378 L797.041416,114.796435 Z M841.876756,114.796435 L840.675934,114.796435 L840.675934,105.296378 L843.811922,105.296378 C845.887868,105.296378 847.145002,106.273548 847.145002,108.119231 C847.145002,109.639241 846.17019,110.575683 844.687045,110.833575 L846.890836,114.796435 L845.577389,114.796435 L843.429911,110.914957 L841.876756,110.914957 L841.876756,114.796435 Z M872.81353,114.796435 L871.739791,114.796435 L871.739791,105.296378 L873.321862,105.296378 L875.072871,110.670665 L875.101788,110.670665 L876.852797,105.296378 L878.434869,105.296378 L878.434869,114.796435 L877.36113,114.796435 L877.36113,106.816387 L877.332974,106.816387 L875.270725,112.950678 L874.903934,112.950678 L872.841686,106.816387 L872.81353,106.816387 L872.81353,114.796435 Z M894.87198,114.796435 L893.643002,114.796435 L892.978669,112.937151 L888.925703,112.937151 L888.317682,114.796435 L887.089465,114.796435 L890.366233,105.296378 L891.595212,105.296378 L894.87198,114.796435 Z M905.036355,114.796435 L903.906303,114.796435 L903.906303,105.296378 L905.135282,105.296378 L909.075623,112.869296 L909.10454,112.869296 L909.10454,105.296378 L910.23383,105.296378 L910.23383,114.796435 L909.033769,114.796435 L905.064511,107.223517 L905.036355,107.223517 L905.036355,114.796435 Z M921.11885,114.796435 L919.98956,114.796435 L919.98956,105.296378 L921.217777,105.296378 L925.158879,112.869296 L925.187035,112.869296 L925.187035,105.296378 L926.317087,105.296378 L926.317087,114.796435 L925.116264,114.796435 L921.147767,107.223517 L921.11885,107.223517 L921.11885,114.796435 Z M942.174333,106.327803 L937.542264,106.327803 L937.542264,109.408548 L941.779385,109.408548 L941.779385,110.412845 L937.542264,110.412845 L937.542264,113.765011 L942.174333,113.765011 L942.174333,114.796435 L936.326983,114.796435 L936.326983,105.296378 L942.174333,105.296378 L942.174333,106.327803 Z M812.010373,113.941448 C813.479288,113.941448 814.482104,112.625004 814.482104,110.019243 C814.482104,107.48141 813.493442,106.164965 812.010373,106.164965 C810.527305,106.164965 809.538643,107.427082 809.538643,109.964988 C809.538643,112.570676 810.527305,113.941448 812.010373,113.941448 Z M828.275808,113.941448 C829.744494,113.941448 830.747462,112.625004 830.747462,110.019243 C830.747462,107.48141 829.758953,106.164965 828.275808,106.164965 C826.792663,106.164965 825.804153,107.427082 825.804153,109.964988 C825.804153,112.570676 826.792663,113.941448 828.275808,113.941448 Z M890.987191,106.802787 L890.959035,106.802787 L889.249879,111.959982 L892.640034,111.959982 L890.987191,106.802787 Z M843.712994,106.327803 L841.876756,106.327803 L841.876756,109.91066 L843.741151,109.91066 C845.054598,109.91066 845.94418,109.367821 845.94418,108.119231 C845.94418,106.92497 845.196139,106.327876 843.712994,106.327803 Z M826.57198,96.0740293 L811.842882,96.0740293 L811.842882,90.0551207 L811.673565,90.0551207 C810.714201,92.4952662 809.416278,94.2575204 807.77972,95.3419564 C806.143162,96.4264655 803.970572,96.96872 801.261797,96.96872 C796.182805,96.96872 792.627595,95.0437749 790.596014,91.1938114 C788.564433,87.3439211 787.548604,81.3250857 787.548604,73.1372321 C787.548604,68.9619598 787.887239,65.4645057 788.564433,62.6448698 C788.735957,61.9305649 788.924756,61.251065 789.130752,60.6062968 C785.943246,59.0299857 782.320537,58.2418301 778.26255,58.2418301 C775.085545,58.2418301 772.261634,58.7336321 769.790589,59.7172363 C767.319619,60.7008404 765.148703,62.2610653 763.27784,64.397984 C763.7014,58.6996316 764.477977,54.392086 765.607572,51.475128 C767.690291,46.183832 771.184927,43.5382206 776.091633,43.5382206 C779.37449,43.5382206 781.827805,44.6914621 783.451654,46.9978719 C784.404626,48.4223869 784.881226,49.7280827 784.881226,50.915471 L799.671126,50.915471 C799.682464,50.9156172 800.972245,50.9325078 801.600355,50.9325078 C803.74479,50.9325078 805.677596,51.3798532 807.398851,52.274544 C809.120029,53.1692347 810.375642,54.7552708 811.165689,57.0326522 L811.335006,57.0326522 L811.335006,38 L826.57198,38 L826.57198,96.0740293 Z M844.243396,76.5533773 L844.243396,82.3282127 C844.243396,84.7141035 844.666499,86.3001396 845.513467,87.0863941 C846.359674,87.8725754 847.319266,88.2657392 848.391483,88.2657392 C849.746023,88.2657392 850.803781,87.7370849 851.56552,86.6797032 C852.327258,85.6223214 852.708508,83.6025402 852.708508,80.6201402 L866.42132,80.6201402 C866.308695,86.0426126 864.869687,90.1229026 862.104295,92.8612295 C859.338904,95.5995565 854.79663,96.96872 848.475952,96.96872 C844.808041,96.96872 841.73217,96.5755562 839.249101,95.7893018 C836.766032,95.0030473 834.76314,93.7017387 833.238902,91.8851567 C831.715425,90.0686479 830.629511,87.6964304 829.980397,84.7682851 C829.331283,81.8401398 829.006346,78.2885041 829.006346,74.1132318 C829.006346,69.8837779 829.373898,66.3050149 830.10748,63.3768695 C830.841062,60.4487973 831.997748,58.0629797 833.577537,56.2193434 C835.158087,54.3757072 837.175438,53.0336711 839.630351,52.1931619 C842.085264,51.3527258 845.03329,50.9325078 848.475952,50.9325078 C851.523666,50.9325078 854.18937,51.284944 856.475346,51.9898164 C858.760561,52.694762 860.679746,53.8741071 862.231378,55.5279981 C863.783011,57.181816 864.940458,59.3507611 865.702196,62.0348334 C866.463934,64.7189788 866.845184,68.067269 866.845184,72.0798503 L866.845184,76.5533773 L844.243396,76.5533773 Z M892.242803,96.0740293 L906.972281,96.0740293 C906.351324,94.9352655 905.956376,93.5797022 905.786678,92.0071933 C905.617741,90.4346843 905.533273,88.6181754 905.533273,86.5576666 L905.533273,65.0849421 C905.533273,62.2110515 905.095711,59.8658883 904.220587,58.0493794 C903.346224,56.2328706 902.104309,54.7959252 900.496364,53.7385435 C898.887658,52.6812349 896.969234,51.949162 894.740331,51.5424711 C892.511428,51.1357801 890.070213,50.9325078 887.418207,50.9325078 C885.66872,50.9325078 883.778452,51.1087259 881.746643,51.4611621 C879.714833,51.8135983 877.824565,52.5185439 876.075079,53.5759256 C874.325592,54.6333074 872.858427,56.1244343 871.673585,58.0493794 C870.487983,59.9743246 869.895942,62.5364335 869.895942,65.735633 L883.101182,65.735633 C883.157495,63.4039969 883.524286,61.8450882 884.201556,61.0588337 C884.878826,60.2725792 885.951043,59.8794154 887.418207,59.8794154 C890.013901,59.8794154 891.312128,61.2350518 891.312128,63.9462514 C891.312128,65.3018878 890.973493,66.3456693 890.296223,67.0776691 C889.618954,67.809742 888.462268,68.3655237 886.825406,68.7450872 L880.815206,70.1277778 C878.389211,70.6700324 876.357401,71.3342503 874.720539,72.1205048 C873.084437,72.9067593 871.78621,73.8557047 870.826618,74.9672681 C869.867786,76.0789045 869.176058,77.3938133 868.752954,78.9120676 C868.329851,80.4303949 868.118299,82.2197033 868.118299,84.2802853 C868.118299,86.1781031 868.343549,87.913303 868.795569,89.485812 C869.246829,91.0582478 869.980411,92.4138842 870.996316,93.5525749 C872.01222,94.6912655 873.324145,95.5453018 874.932091,96.1146837 C876.540797,96.6839925 878.501835,96.96872 880.815206,96.96872 C883.185651,96.96872 885.28747,96.4806471 887.122187,95.5046474 C888.956142,94.5285745 890.296223,93.064575 891.14243,91.1125025 L891.312128,91.1125025 C891.424753,92.0343206 891.537377,92.901884 891.650763,93.7152658 C891.763388,94.5286477 891.961242,95.314829 892.242803,96.0740293 Z M962.069325,64.7596333 L948.864085,64.7596333 C948.864085,62.8617423 948.510991,61.5739609 947.805565,60.8961427 C947.100139,60.2183245 946.098693,59.8794154 944.800466,59.8794154 C943.671936,59.8794154 942.741261,60.1776701 942.007679,60.7741793 C941.274096,61.3706154 940.907305,62.2110515 940.907305,63.2955606 C940.907305,64.5426876 941.457492,65.4781059 942.557865,66.1016694 C943.658239,66.7252329 945.026476,67.2810146 946.663338,67.7690144 C948.299439,68.2570874 950.063385,68.7722146 951.953653,69.3144691 C953.84392,69.8566506 955.607866,70.6293779 957.243967,71.632505 C958.88083,72.635632 960.249067,73.9912684 961.34944,75.699341 C962.449813,77.4074136 963,79.6711947 963,82.4909037 C963,84.6598488 962.576897,86.6389756 961.73069,88.4284302 C960.883722,90.2178117 959.685183,91.7631933 958.132789,93.064575 C956.581156,94.3659567 954.662732,95.3419564 952.376756,95.9926472 C950.091541,96.643338 947.509545,96.96872 944.631529,96.96872 C938.254538,96.96872 933.66965,95.7486473 930.876102,93.3085749 C928.082554,90.8685026 926.686161,87.2355579 926.686161,82.4095217 L940.060338,82.4095217 C940.060338,83.2771582 940.144806,84.0904669 940.314504,84.849594 C940.483441,85.6087943 940.765764,86.2323578 941.160711,86.7203576 C941.894293,87.750612 942.96651,88.2657392 944.377362,88.2657392 C945.562965,88.2657392 946.592567,87.9403572 947.46693,87.2897395 C948.342054,86.6389756 948.779616,85.7172306 948.779616,84.5242852 C948.779616,83.2229035 948.22943,82.2197765 947.128295,81.5148309 C946.027922,80.8099585 944.659685,80.1863219 943.023583,79.6441405 C941.386721,79.1018859 939.622776,78.532504 937.732508,77.9360679 C935.84224,77.3395586 934.078295,76.5262499 932.442193,75.4959955 C930.805331,74.4657411 929.437094,73.0965776 928.33672,71.388505 C927.236347,69.6804324 926.686161,67.4437055 926.686161,64.6782512 C926.686161,62.7261787 927.052952,60.9232701 927.786534,59.2694522 C928.520116,57.6155612 929.634187,56.1650887 931.130268,54.9179618 C932.625589,53.6707617 934.515857,52.694762 936.801833,51.9898164 C939.087048,51.284944 941.781668,50.9325078 944.885695,50.9325078 C956.341448,50.9325078 962.069325,55.541379 962.069325,64.7596333 Z M766.984256,92.4822509 C769.208213,94.9922256 772.032124,96.2471764 775.456217,96.2471764 C778.809692,96.2471764 781.448381,95.0346349 783.372208,92.609479 C785.296035,90.184323 786.257986,87.0384276 786.257986,83.1717198 C786.257986,78.8641012 785.163701,75.5655322 782.975054,73.2760861 C780.786483,70.9865669 778.103734,69.8418073 774.926729,69.8418073 C772.349832,69.8418073 770.072987,70.5880654 768.096196,72.0804353 C765.131048,74.2851358 763.648436,77.8464964 763.648436,82.7646633 C763.648436,86.7331535 764.760376,89.9722763 766.984256,92.4822509 Z M909.26815,96.0740293 L924.504971,96.0740293 L924.504971,38.0000731 L909.26815,38.0000731 L909.26815,96.0740293 Z M754.307515,43.6108283 C751.807096,47.7621905 750.120009,52.9443921 749.246179,59.1575793 C748.751924,62.6850855 748.504834,67.2640508 748.504834,72.8944752 C748.504834,78.5972879 749.134087,83.6775608 750.392515,88.1352208 C745.184386,82.7438242 742,75.5224648 742,67.5863618 C742,57.8187604 746.823912,49.1336939 754.307515,43.6108283 Z M886.571239,87.3710485 C885.44271,87.3710485 884.540191,86.9372302 883.862921,86.0696668 C883.185651,85.2021034 882.847016,84.0362853 882.847016,82.5722127 C882.847016,81.10814 883.073026,79.9287949 883.524286,79.0341041 C883.975545,78.1394133 884.793596,77.4209407 885.979199,76.8786861 C887.107728,76.3906863 888.137331,76.0789045 889.068767,75.9433409 C890.000203,75.8077773 890.691171,75.4417408 891.14243,74.8453047 L891.312128,74.8453047 L891.312128,80.1321403 C891.312128,82.5722127 890.945337,84.3887215 890.211755,85.5816669 C889.478173,86.7746123 888.264414,87.3710485 886.571239,87.3710485 Z M802.785425,74.1132318 C802.785425,71.7274141 802.84189,69.7482143 802.954743,68.1757053 C803.067596,66.6031964 803.279224,65.3425423 803.589626,64.3935968 C803.899953,63.4446514 804.337363,62.7804334 804.901703,62.4008698 C805.465968,62.0213063 806.199626,61.8314879 807.102526,61.8314879 C807.949037,61.8314879 808.654463,62.0213063 809.218728,62.4008698 C809.783069,62.7804334 810.220402,63.4446514 810.530805,64.3935968 C810.841208,65.3425423 811.052836,66.6031964 811.165689,68.1757053 C811.278541,69.7482143 811.335006,71.7274141 811.335006,74.1132318 C811.335006,76.444941 811.278541,78.3969404 811.165689,79.9694493 C811.052836,81.5419583 810.841208,82.8026855 810.530805,83.7515578 C810.220402,84.7005033 809.783069,85.3647212 809.218728,85.7442848 C808.654463,86.1239215 807.949037,86.3136667 807.102526,86.3136667 C806.199626,86.3136667 805.465968,86.1239215 804.901703,85.7442848 C804.337363,85.3647212 803.899953,84.7005033 803.589626,83.7515578 C803.279224,82.8026855 803.067596,81.5419583 802.954743,79.9694493 C802.84189,78.3969404 802.785425,76.444941 802.785425,74.1132318 Z M852.624039,68.5823962 L852.624039,66.6303237 C852.624039,64.2986876 852.327258,62.5906882 851.735218,61.5061791 C851.142416,60.42167 850.027585,59.8794154 848.391483,59.8794154 C846.810933,59.8794154 845.725019,60.42167 845.132217,61.5061791 C844.540177,62.5906882 844.243396,64.2986876 844.243396,66.6303237 L844.243396,68.5823962 L852.624039,68.5823962 Z" id="Page-1"></path>
                </g>
            </g>
        </g>
    </g>
</svg>