<?xml version="1.0" encoding="UTF-8"?>
<svg width="121px" height="33px" viewBox="0 0 121 33" version="1.1" xmlns="http://www.w3.org/2000/svg" xmlns:xlink="http://www.w3.org/1999/xlink">
    <!-- Generator: Sketch 42 (36781) - http://www.bohemiancoding.com/sketch -->
    <title>Shape</title>
    <desc>Created with Sketch.</desc>
    <defs></defs>
    <g id="Page-1" stroke="none" stroke-width="1" fill="none" fill-rule="evenodd">
        <g id="6Deals" transform="translate(-387.000000, -5225.000000)" fill="#262B2F">
            <g id="Group-9" transform="translate(120.000000, 142.000000)">
                <path d="M313.304115,5083 L313.304115,5115.49931 L305.239768,5115.49931 L305.239768,5112.13102 L305.147065,5112.13102 C304.621802,5113.49657 303.911175,5114.48276 303.015141,5115.08967 C302.119107,5115.69654 300.929589,5116 299.446504,5116 C296.665699,5116 294.719181,5114.92276 293.606867,5112.76829 C292.494554,5110.61378 291.938376,5107.24552 291.938376,5102.66344 C291.938376,5100.32687 292.123782,5098.36967 292.494554,5096.79171 C292.588465,5096.39197 292.691834,5096.01171 292.80462,5095.65092 C291.059424,5094.76875 289.07595,5094.32768 286.854156,5094.32768 C285.11471,5094.32768 283.568587,5094.6029 282.215662,5095.15335 C280.862778,5095.70383 279.674177,5096.57696 278.649858,5097.77278 C278.881762,5094.58392 279.306947,5092.17329 279.925413,5090.5409 C281.065725,5087.57979 282.979078,5086.09925 285.665555,5086.09925 C287.462956,5086.09925 288.806174,5086.74463 289.69525,5088.03538 C290.217054,5088.83257 290.477956,5089.56334 290.477956,5090.22771 L298.575594,5090.22771 C298.575594,5090.22771 299.286471,5090.23724 299.631869,5090.23724 C300.805971,5090.23724 301.864204,5090.48758 302.80661,5090.98827 C303.748975,5091.48896 304.436437,5092.37653 304.868997,5093.65104 L304.9617,5093.65104 L304.9617,5083 L313.304115,5083 Z M335.12208,5106.85102 C335.060417,5109.88554 334.272544,5112.16895 332.75846,5113.70137 C331.244377,5115.23379 328.757431,5116 325.296788,5116 C323.288565,5116 321.604491,5115.78002 320.244983,5115.34002 C318.885475,5114.90001 317.788868,5114.17173 316.954331,5113.15518 C316.12021,5112.13863 315.52566,5110.81105 315.170263,5109.1724 C314.814866,5107.53379 314.636959,5105.54623 314.636959,5103.20967 C314.636959,5100.84274 314.838198,5098.84 315.239842,5097.20139 C315.641487,5095.56274 316.274785,5094.22759 317.139737,5093.19586 C318.005106,5092.16412 319.109629,5091.41309 320.453721,5090.94277 C321.797814,5090.4724 323.411892,5090.23724 325.296788,5090.23724 C326.965446,5090.23724 328.424949,5090.43447 329.676547,5090.82897 C330.927728,5091.22343 331.978503,5091.88346 332.82804,5092.80897 C333.677576,5093.73448 334.311291,5094.94826 334.728352,5096.45036 C335.145412,5097.95242 335.354151,5099.82619 335.354151,5102.07171 L335.354151,5104.57518 L322.979416,5104.57518 L322.979416,5107.80689 C322.979416,5109.14208 323.21107,5110.02966 323.674794,5110.46966 C324.138102,5110.90966 324.66349,5111.12964 325.250541,5111.12964 C325.992166,5111.12964 326.571301,5110.8338 326.988361,5110.24207 C327.405422,5109.65033 327.61416,5108.52003 327.61416,5106.85102 L335.12208,5106.85102 Z M349.259634,5115.49931 L357.32419,5115.49931 C356.984209,5114.86208 356.767971,5114.10344 356.675059,5113.22343 C356.582564,5112.34343 356.536317,5111.32691 356.536317,5110.17377 L356.536317,5098.15726 C356.536317,5096.54897 356.296747,5095.23653 355.817606,5094.21998 C355.338883,5093.20343 354.65892,5092.39933 353.778552,5091.80759 C352.897767,5091.21586 351.847409,5090.80622 350.627059,5090.57863 C349.406709,5090.35104 348.070117,5090.23724 346.618113,5090.23724 C345.660249,5090.23724 344.625306,5090.33586 343.512868,5090.53309 C342.400429,5090.73036 341.365486,5091.12482 340.407622,5091.71655 C339.449758,5092.30828 338.646469,5093.14274 337.997755,5094.21998 C337.348624,5095.29726 337.024475,5096.73102 337.024475,5098.52136 L344.254493,5098.52136 C344.285325,5097.21653 344.486148,5096.34413 344.85696,5095.90413 C345.227773,5095.46413 345.814824,5095.24415 346.618113,5095.24415 C348.039285,5095.24415 348.750079,5096.00275 348.750079,5097.51999 C348.750079,5098.27863 348.564673,5098.86275 348.193859,5099.27243 C347.823047,5099.68207 347.189749,5099.9931 346.293548,5100.20551 L343.002896,5100.97933 C341.674635,5101.28274 340.562197,5101.65449 339.665996,5102.0945 C338.770212,5102.5345 338.059418,5103.06551 337.534031,5103.6876 C337.00906,5104.30965 336.63033,5105.0455 336.398676,5105.89519 C336.167022,5106.74483 336.051196,5107.7462 336.051196,5108.89931 C336.051196,5109.9614 336.174522,5110.93241 336.422008,5111.81242 C336.669078,5112.69243 337.070722,5113.45103 337.626942,5114.08826 C338.183161,5114.72553 338.901455,5115.20343 339.781823,5115.52206 C340.662608,5115.8407 341.736299,5116 343.002896,5116 C344.300741,5116 345.451511,5115.72691 346.456039,5115.18068 C347.46015,5114.63449 348.193859,5113.81516 348.657168,5112.72275 L348.750079,5112.72275 C348.811743,5113.23861 348.873405,5113.72412 348.935486,5114.1793 C348.997149,5114.63449 349.105476,5115.07449 349.259634,5115.49931 Z M375.440275,5107.85243 C375.440275,5108.33798 375.486523,5108.79312 375.579434,5109.21794 C375.671929,5109.64276 375.826504,5109.99172 376.042742,5110.26482 C376.444387,5110.84137 377.031437,5111.12964 377.803895,5111.12964 C378.453026,5111.12964 379.016745,5110.94759 379.495469,5110.58345 C379.974609,5110.21932 380.214179,5109.70345 380.214179,5109.03585 C380.214179,5108.30757 379.912945,5107.7462 379.310062,5107.3517 C378.707595,5106.95724 377.95847,5106.60828 377.062686,5106.30483 C376.166485,5106.00137 375.200705,5105.68278 374.165762,5105.34896 C373.130819,5105.01518 372.165039,5104.56 371.269255,5103.98345 C370.373055,5103.4069 369.623929,5102.64069 369.021462,5101.68481 C368.418995,5100.72894 368.117762,5099.47723 368.117762,5097.92967 C368.117762,5096.83725 368.318584,5095.82827 368.720229,5094.90276 C369.121873,5093.97725 369.731839,5093.16554 370.550961,5092.46758 C371.369666,5091.76966 372.404609,5091.22343 373.656207,5090.82897 C374.907388,5090.43447 376.382723,5090.23724 378.082213,5090.23724 C384.354368,5090.23724 387.490445,5092.81654 387.490445,5097.97517 L380.260426,5097.97517 C380.260426,5096.91311 380.067103,5096.19241 379.680875,5095.81309 C379.294646,5095.43381 378.746343,5095.24415 378.035549,5095.24415 C377.417666,5095.24415 376.908111,5095.41101 376.506466,5095.74483 C376.104822,5096.07861 375.904,5096.54897 375.904,5097.15585 C375.904,5097.8538 376.205233,5098.37724 376.8077,5098.7262 C377.410167,5099.07516 378.159292,5099.38618 379.055493,5099.65932 C379.951277,5099.93241 380.917057,5100.22069 381.952,5100.52414 C382.986943,5100.8276 383.952723,5101.25999 384.848507,5101.82136 C385.744708,5102.38277 386.493833,5103.14137 387.096299,5104.09724 C387.698766,5105.05311 388,5106.31997 388,5107.89793 C388,5109.11172 387.768346,5110.21932 387.305038,5111.22069 C386.841313,5112.22206 386.1851,5113.08689 385.335147,5113.81516 C384.48561,5114.54344 383.435251,5115.08963 382.183654,5115.45381 C380.932472,5115.81795 379.5188,5116 377.943054,5116 C374.45158,5116 371.941302,5115.31726 370.411802,5113.95171 C368.882303,5112.5862 368.117762,5110.55313 368.117762,5107.85243 L375.440275,5107.85243 Z M280.679163,5113.48933 C281.896804,5114.89392 283.442927,5115.59625 285.317657,5115.59625 C287.153723,5115.59625 288.598435,5114.91765 289.651752,5113.56048 C290.705069,5112.20332 291.231748,5110.44282 291.231748,5108.27893 C291.231748,5105.8683 290.632615,5104.0224 289.434306,5102.74114 C288.236038,5101.45988 286.767203,5100.81929 285.027757,5100.81929 C283.616876,5100.81929 282.370278,5101.23687 281.287963,5102.07203 C279.664511,5103.30583 278.852764,5105.29887 278.852764,5108.05117 C278.852764,5110.27198 279.461563,5112.0847 280.679163,5113.48933 Z M358.581204,5115.49931 L366.923536,5115.49931 L366.923536,5083 L358.581204,5083 L358.581204,5115.49931 Z M273.738504,5086.13989 C272.369496,5088.46307 271.445797,5091.36317 270.967365,5094.84015 C270.696755,5096.81425 270.56147,5099.37669 270.56147,5102.52759 C270.56147,5105.71903 270.905993,5108.56201 271.594997,5111.0566 C268.743487,5108.03951 267,5103.99826 267,5099.5571 C267,5094.09092 269.641146,5089.23059 273.738504,5086.13989 Z M346.154389,5110.62896 C345.536506,5110.62896 345.042367,5110.38622 344.671554,5109.90068 C344.300741,5109.41517 344.115334,5108.76276 344.115334,5107.94343 C344.115334,5107.12415 344.239078,5106.46413 344.486148,5105.96344 C344.733217,5105.46275 345.181109,5105.06068 345.83024,5104.75723 C346.448122,5104.48413 347.011842,5104.30965 347.521814,5104.23379 C348.031785,5104.15793 348.410098,5103.95308 348.657168,5103.61931 L348.750079,5103.61931 L348.750079,5106.57792 C348.750079,5107.94343 348.549257,5108.95999 348.147612,5109.62758 C347.745968,5110.29518 347.081421,5110.62896 346.154389,5110.62896 Z M300.280708,5103.20967 C300.280708,5101.87448 300.311623,5100.76688 300.373411,5099.88691 C300.435199,5099.0069 300.551068,5098.30138 300.721017,5097.77033 C300.890924,5097.23932 301.130411,5096.86757 301.439394,5096.65516 C301.748335,5096.44275 302.150022,5096.33656 302.644369,5096.33656 C303.107844,5096.33656 303.494073,5096.44275 303.803014,5096.65516 C304.111997,5096.86757 304.351442,5097.23932 304.521391,5097.77033 C304.69134,5098.30138 304.807209,5099.0069 304.868997,5099.88691 C304.930785,5100.76688 304.9617,5101.87448 304.9617,5103.20967 C304.9617,5104.51449 304.930785,5105.60687 304.868997,5106.48688 C304.807209,5107.36688 304.69134,5108.07241 304.521391,5108.60346 C304.351442,5109.13447 304.111997,5109.50622 303.803014,5109.71863 C303.494073,5109.93104 303.107844,5110.03723 302.644369,5110.03723 C302.150022,5110.03723 301.748335,5109.93104 301.439394,5109.71863 C301.130411,5109.50622 300.890924,5109.13447 300.721017,5108.60346 C300.551068,5108.07241 300.435199,5107.36688 300.373411,5106.48688 C300.311623,5105.60687 300.280708,5104.51449 300.280708,5103.20967 Z M327.567913,5100.11446 L327.567913,5099.02209 C327.567913,5097.71722 327.405422,5096.76139 327.081273,5096.15447 C326.756708,5095.54756 326.146325,5095.24415 325.250541,5095.24415 C324.385172,5095.24415 323.790621,5095.54756 323.466055,5096.15447 C323.141907,5096.76139 322.979416,5097.71722 322.979416,5099.02209 L322.979416,5100.11446 L327.567913,5100.11446 Z" id="Shape"></path>
            </g>
        </g>
    </g>
</svg>