<?xml version="1.0" encoding="UTF-8"?>
<svg width="66px" height="12px" viewBox="0 0 66 12" version="1.1" xmlns="http://www.w3.org/2000/svg" xmlns:xlink="http://www.w3.org/1999/xlink">
    <!-- Generator: Sketch 42 (36781) - http://www.bohemiancoding.com/sketch -->
    <title>Group 12</title>
    <desc>Created with Sketch.</desc>
    <defs></defs>
    <g id="Page-1" stroke="none" stroke-width="1" fill="none" fill-rule="evenodd">
        <g id="6Deals" transform="translate(-162.000000, -173.000000)" fill="#262B2F">
            <g id="Group-9" transform="translate(120.000000, 142.000000)">
                <g id="Group">
                    <g id="Group-12" transform="translate(42.000000, 31.000000)">
                        <path d="M24.5979643,11.8181818 L25.839,11.8181818 L25.839,2.78436364 L25.8696429,2.78436364 C25.8696429,2.78436364 26.1454286,3.614 26.3599286,4.16709091 L29.3629286,11.8181818 L30.4201071,11.8181818 L33.4231071,4.16709091 C33.6222857,3.64472727 33.9133929,2.78436364 33.9133929,2.78436364 L33.9440357,2.78436364 L33.9440357,11.8181818 L35.2616786,11.8181818 L35.2616786,0.833181818 L33.4690714,0.833181818 L29.9451429,9.95918182 L29.9145,9.95918182 L26.3599286,0.833181818 L24.5979643,0.833181818 L24.5979643,11.8181818 Z M37.31475,11.8181818 L45.2359286,11.8181818 L45.2359286,10.543 L38.6936786,10.543 L38.6936786,6.68672727 L44.4698571,6.68672727 L44.4698571,5.51909091 L38.6936786,5.51909091 L38.6936786,2.04690909 L45.0520714,2.04690909 L45.0520714,0.833181818 L37.31475,0.833181818 L37.31475,11.8181818 Z M46.8446786,11.8181818 L48.1316786,11.8181818 L48.1316786,2.79972727 L48.1623214,2.79972727 C48.1623214,2.79972727 48.6219643,3.62936364 48.9743571,4.16709091 L53.9997857,11.8181818 L55.4093571,11.8181818 L55.4093571,0.833181818 L54.1223571,0.833181818 L54.1223571,9.88236364 L54.0917143,9.88236364 C54.0917143,9.88236364 53.6627143,9.03736364 53.295,8.46890909 L48.3002143,0.833181818 L46.8446786,0.833181818 L46.8446786,11.8181818 Z M61.4766429,11.9871818 C63.8208214,11.9871818 65.6747143,10.9270909 65.6747143,8.26918182 L65.6747143,0.833181818 L64.2957857,0.833181818 L64.2957857,8.13090909 C64.2957857,10.0052727 63.2539286,10.8041818 61.5226071,10.8041818 C59.7146786,10.8041818 58.6575,10.0052727 58.6575,8.13090909 L58.6575,0.833181818 L57.2785714,0.833181818 L57.2785714,8.26918182 C57.2785714,10.9270909 59.0865,11.9871818 61.4766429,11.9871818 Z" id="MENU"></path>
                        <rect id="Rectangle" x="0" y="0" width="15.3214286" height="2.36363636"></rect>
                        <rect id="Rectangle" x="0" y="4.72727273" width="15.3214286" height="2.36363636"></rect>
                        <rect id="Rectangle" x="0" y="9.45454545" width="15.3214286" height="2.36363636"></rect>
                    </g>
                </g>
            </g>
        </g>
    </g>
</svg>