<?xml version="1.0" encoding="UTF-8"?>
<svg width="67px" height="11px" viewBox="0 0 67 11" version="1.1" xmlns="http://www.w3.org/2000/svg" xmlns:xlink="http://www.w3.org/1999/xlink">
    <!-- Generator: Sketch 42 (36781) - http://www.bohemiancoding.com/sketch -->
    <title>Group 12</title>
    <desc>Created with Sketch.</desc>
    <defs></defs>
    <g id="Page-1" stroke="none" stroke-width="1" fill="none" fill-rule="evenodd">
        <g id="6Deals" transform="translate(-162.000000, -172.000000)">
            <g id="Group-9" transform="translate(120.000000, 142.000000)">
                <g id="Group">
                    <g id="Group-12" transform="translate(42.000000, 30.000000)">
                        <path d="M31.871,10 L32.924,10 L32.924,2.356 L32.95,2.356 C32.95,2.356 33.184,3.058 33.366,3.526 L35.914,10 L36.811,10 L39.359,3.526 C39.528,3.084 39.775,2.356 39.775,2.356 L39.801,2.356 L39.801,10 L40.919,10 L40.919,0.705 L39.398,0.705 L36.408,8.427 L36.382,8.427 L33.366,0.705 L31.871,0.705 L31.871,10 Z M42.661,10 L49.382,10 L49.382,8.921 L43.831,8.921 L43.831,5.658 L48.732,5.658 L48.732,4.67 L43.831,4.67 L43.831,1.732 L49.226,1.732 L49.226,0.705 L42.661,0.705 L42.661,10 Z M50.747,10 L51.839,10 L51.839,2.369 L51.865,2.369 C51.865,2.369 52.255,3.071 52.554,3.526 L56.818,10 L58.014,10 L58.014,0.705 L56.922,0.705 L56.922,8.362 L56.896,8.362 C56.896,8.362 56.532,7.647 56.22,7.166 L51.982,0.705 L50.747,0.705 L50.747,10 Z M63.162,10.143 C65.151,10.143 66.724,9.246 66.724,6.997 L66.724,0.705 L65.554,0.705 L65.554,6.88 C65.554,8.466 64.67,9.142 63.201,9.142 C61.667,9.142 60.77,8.466 60.77,6.88 L60.77,0.705 L59.6,0.705 L59.6,6.997 C59.6,9.246 61.134,10.143 63.162,10.143 Z" id="MENU" fill="#262B2F"></path>
                        <rect id="Rectangle" fill="#000000" x="0" y="1" width="20" height="2"></rect>
                        <rect id="Rectangle" fill="#000000" x="0" y="7" width="20" height="2"></rect>
                    </g>
                </g>
            </g>
        </g>
    </g>
</svg>