<?xml version="1.0" encoding="UTF-8"?>
<svg width="80px" height="80px" viewBox="0 0 80 80" version="1.1" xmlns="http://www.w3.org/2000/svg" xmlns:xlink="http://www.w3.org/1999/xlink">
    <!-- Generator: Sketch 42 (36781) - http://www.bohemiancoding.com/sketch -->
    <title>nr-1</title>
    <desc>Created with Sketch.</desc>
    <defs></defs>
    <g id="Page-1" stroke="none" stroke-width="1" fill="none" fill-rule="evenodd">
        <g id="Artboard-3" transform="translate(-715.000000, -876.000000)" fill="#000000">
            <path d="M756.541,955.5907 C755.947,955.6137 755.352,955.6257 754.752,955.6237 C732.738,955.5497 714.926,937.6507 715,915.6777 C715.074,893.7047 733.006,875.9257 755.02,876.0007 C755.721,876.0027 756.417,876.0227 757.108,876.0607 C756.685,876.6867 756.226,877.2597 755.73,877.7817 C753.298,880.3487 750.146,882.0607 746.273,882.9157 C743.842,883.4567 739.586,883.8617 733.507,884.1317 L733.507,897.2367 L756.541,897.2367 L756.541,955.5907 Z M776.265,882.2037 C787.426,889.2977 794.819,901.7747 794.771,915.9457 C794.724,930.0227 787.348,942.3767 776.265,949.4197 L776.265,882.2037 Z" id="nr-1"></path>
        </g>
    </g>
</svg>