<?xml version="1.0" encoding="UTF-8"?>
<svg width="80px" height="66px" viewBox="0 0 80 66" version="1.1" xmlns="http://www.w3.org/2000/svg" xmlns:xlink="http://www.w3.org/1999/xlink">
    <!-- Generator: Sketch 42 (36781) - http://www.bohemiancoding.com/sketch -->
    <title>nr-2</title>
    <desc>Created with Sketch.</desc>
    <defs></defs>
    <g id="Page-1" stroke="none" stroke-width="1" fill="none" fill-rule="evenodd">
        <g id="Artboard-3" transform="translate(-995.000000, -883.000000)" fill="#000000">
            <path d="M1067.9834,893.7192 C1072.2944,900.1022 1074.7984,907.7942 1074.7714,916.0642 C1074.7264,929.2782 1068.2244,940.9742 1058.2594,948.1842 L1025.6654,948.1842 C1026.8814,946.1572 1028.3794,944.3782 1030.1574,942.8482 C1031.9364,941.3172 1035.2344,938.8402 1040.0524,935.4172 L1047.7544,929.9462 C1054.2384,925.3532 1058.8994,921.1872 1061.7364,917.4492 C1066.0594,911.8212 1068.2204,905.3812 1068.2204,898.1312 C1068.2204,896.6132 1068.1414,895.1422 1067.9834,893.7192 L1067.9834,893.7192 Z M1021.1394,901.5752 C1021.3644,896.0822 1022.0854,892.0742 1023.3014,889.5522 C1025.4184,885.1842 1029.4034,883.0002 1035.2564,883.0002 C1039.5354,883.0002 1042.8224,884.3732 1045.1194,887.1202 C1047.4164,889.8672 1048.5644,893.3122 1048.5644,897.4552 C1048.5644,902.5442 1046.5604,907.2272 1042.5524,911.5052 C1039.9404,914.2522 1034.1994,918.8002 1025.3274,925.1502 C1016.0324,931.7832 1009.8284,938.1002 1006.7134,944.1012 C999.4474,936.8612 994.9624,926.8432 995.0004,915.7962 C995.0314,906.5302 998.2384,898.0102 1003.5874,891.2602 C1002.9574,894.3722 1002.5714,897.8102 1002.4284,901.5752 L1021.1394,901.5752 Z" id="nr-2"></path>
        </g>
    </g>
</svg>