<?xml version="1.0" encoding="UTF-8"?>
<svg width="55px" height="55px" viewBox="0 0 55 55" version="1.1" xmlns="http://www.w3.org/2000/svg" xmlns:xlink="http://www.w3.org/1999/xlink">
    <!-- Generator: Sketch 42 (36781) - http://www.bohemiancoding.com/sketch -->
    <title>nr</title>
    <desc>Created with Sketch.</desc>
    <defs></defs>
    <g id="Page-1" stroke="none" stroke-width="1" fill="none" fill-rule="evenodd">
        <g id="6Deals" transform="translate(-789.000000, -1094.000000)">
            <g id="Group-9" transform="translate(120.000000, 142.000000)">
                <g id="nr" transform="translate(669.000000, 952.000000)">
                    <g id="Group-2">
                        <rect id="Rectangle-2" fill="#262B2F" x="0" y="0" width="55" height="55" rx="27.5"></rect>
                        <path d="M19.3805598,38.8399991 L35.4682402,38.8399991 L35.4682402,34.636639 L26.45672,34.636639 L26.45672,34.606399 C27.90824,33.0641589 30.1460001,31.7940789 31.9906401,30.2820789 C33.8352801,28.8607988 35.4380002,27.1975988 35.4380002,24.3247987 C35.4380002,20.6657587 32.7466401,17.7022386 27.75704,17.7022386 C24.5213599,17.7022386 22.2835999,18.8513586 21.1042399,20.5447986 C20.1063198,21.9055987 19.6829598,23.3873587 19.6829598,25.8065588 L24.4608799,25.8065588 C24.4911199,24.3852787 24.7935199,23.4478387 25.39832,22.7523187 C25.9124,22.1172787 26.6684,21.8148787 27.63608,21.8148787 C29.39,21.8148787 30.3274401,22.9035187 30.3274401,24.5062387 C30.3274401,25.5343988 29.8133601,26.3206388 28.96664,27.0766388 C27.33368,28.5281588 24.9144799,30.0401589 23.0395999,31.6428789 C20.9832799,33.3665589 19.4410398,35.362399 19.3805598,38.8399991 Z" id="1" fill="#FFFFFF"></path>
                    </g>
                </g>
            </g>
        </g>
    </g>
</svg>