<?xml version="1.0" encoding="UTF-8"?>
<svg width="80px" height="70px" viewBox="0 0 80 70" version="1.1" xmlns="http://www.w3.org/2000/svg" xmlns:xlink="http://www.w3.org/1999/xlink">
    <!-- Generator: Sketch 42 (36781) - http://www.bohemiancoding.com/sketch -->
    <title>nr-3</title>
    <desc>Created with Sketch.</desc>
    <defs></defs>
    <g id="Page-1" stroke="none" stroke-width="1" fill="none" fill-rule="evenodd">
        <g id="Artboard-3" transform="translate(-890.000000, -881.000000)" fill="#000000">
            <path d="M915.7344,896.8737 C915.6444,892.0557 916.6694,888.2057 918.8084,885.3227 C920.9464,882.4407 924.2904,880.9997 928.8384,880.9997 C932.8014,880.9997 935.8754,882.1707 938.0594,884.5127 C940.2434,886.8537 941.3354,889.8937 941.3354,893.6317 C941.3354,899.3957 939.1964,903.2237 934.9184,905.1147 C932.4414,906.2407 928.0734,906.8487 921.8144,906.9387 L921.8144,920.7177 C928.2084,920.7177 932.8914,921.3267 935.8644,922.5417 C941.0884,924.7037 943.6994,929.0037 943.6994,935.4437 C943.6994,940.3067 942.2924,944.0337 939.4774,946.6237 C936.6634,949.2117 933.3644,950.5067 929.5824,950.5067 C923.4124,950.5067 919.1564,948.1427 916.8154,943.4147 C915.5544,940.8477 914.9234,937.6057 914.9234,933.6877 L896.0104,933.6877 C896.0584,934.8707 896.1354,936.0187 896.2414,937.1317 C892.2674,930.9177 889.9734,923.5337 890.0004,915.6197 C890.0304,906.5547 893.1004,898.2047 898.2424,891.5267 C897.9924,893.2737 897.8344,895.0567 897.7664,896.8737 L915.7344,896.8737 Z M969.7714,915.8877 C969.7454,923.5877 967.5264,930.7727 963.7074,936.8557 C963.7434,936.2107 963.7604,935.5607 963.7604,934.9037 C963.7604,927.0227 961.3064,920.8087 956.3984,916.2597 C953.1114,913.2427 950.5884,911.7347 948.8334,911.7347 C951.1744,910.8337 953.4264,909.1447 955.5884,906.6677 C959.0104,902.7057 960.7214,897.8417 960.7214,892.0777 C960.7214,891.5327 960.7094,890.9957 960.6824,890.4657 C966.3884,897.3777 969.8034,906.2407 969.7714,915.8877 Z" id="nr-3"></path>
        </g>
    </g>
</svg>