<?xml version="1.0" encoding="UTF-8"?>
<svg width="55px" height="55px" viewBox="0 0 55 55" version="1.1" xmlns="http://www.w3.org/2000/svg" xmlns:xlink="http://www.w3.org/1999/xlink">
    <!-- Generator: Sketch 42 (36781) - http://www.bohemiancoding.com/sketch -->
    <title>nr</title>
    <desc>Created with Sketch.</desc>
    <defs></defs>
    <g id="Page-1" stroke="none" stroke-width="1" fill="none" fill-rule="evenodd">
        <g id="6Deals" transform="translate(-1189.000000, -1094.000000)">
            <g id="Group-9" transform="translate(120.000000, 142.000000)">
                <g id="nr" transform="translate(1069.000000, 952.000000)">
                    <g id="Group-2">
                        <rect id="Rectangle-2" fill="#262B2F" x="0" y="0" width="55" height="55" rx="27.5"></rect>
                        <path d="M27.69656,39.3238391 C32.0511201,39.3238391 35.8916002,37.267519 35.8916002,32.8222389 C35.8916002,30.0401589 34.4098402,28.4374388 32.1418401,27.7419188 L32.1418401,27.6814388 C33.9864801,26.9556788 35.2868002,25.6553588 35.2868002,23.5385587 C35.2868002,19.8795186 32.1720801,17.7022386 27.60584,17.7022386 C22.4650399,17.7022386 19.5922398,20.5750387 19.5015198,24.6876787 L24.2491999,24.6876787 C24.3701599,22.9035187 25.33784,21.5124787 27.54536,21.5124787 C29.26904,21.5124787 30.2669601,22.4499187 30.2669601,23.8711987 C30.2669601,25.4436788 28.99688,26.2903988 27.06152,26.2903988 L25.94264,26.2903988 L25.94264,29.8284789 L27.18248,29.8284789 C29.45048,29.8284789 30.7205601,30.7356789 30.7205601,32.5500789 C30.7205601,34.273759 29.57144,35.422879 27.48488,35.422879 C24.8842399,35.422879 23.7955999,33.880639 23.6746399,31.6731189 L18.8664798,31.6731189 C18.8664798,34.062079 19.6527198,35.997439 21.1647199,37.327999 C22.6162399,38.6283191 24.7632799,39.3238391 27.69656,39.3238391 Z" id="1" fill="#FFFFFF"></path>
                    </g>
                </g>
            </g>
        </g>
    </g>
</svg>