<?xml version="1.0" encoding="UTF-8"?>
<svg width="80px" height="80px" viewBox="0 0 80 80" version="1.1" xmlns="http://www.w3.org/2000/svg" xmlns:xlink="http://www.w3.org/1999/xlink">
    <!-- Generator: Sketch 42 (36781) - http://www.bohemiancoding.com/sketch -->
    <title>nr-4</title>
    <desc>Created with Sketch.</desc>
    <defs></defs>
    <g id="Page-1" stroke="none" stroke-width="1" fill="none" fill-rule="evenodd">
        <g id="Artboard-3" transform="translate(-795.000000, -876.000000)" fill="#000000">
            <path d="M839.3101,943.2248 L839.3101,955.2018 C837.8141,955.3668 836.2931,955.4488 834.7521,955.4438 C823.5151,955.4058 813.3731,950.7228 806.1451,943.2248 L839.3101,943.2248 Z M863.6261,943.2248 C861.9521,944.9618 860.1211,946.5478 858.1561,947.9598 L858.1561,943.2248 L863.6261,943.2248 Z M858.1561,883.3028 C868.2531,890.5608 874.8161,902.4108 874.7711,915.7658 C874.7471,923.1048 872.7291,929.9758 869.2341,935.8708 L869.2341,928.1618 L858.1561,928.1618 L858.1561,883.3028 Z M800.5381,926.4058 L800.5381,935.8688 C796.9971,929.8998 794.9751,922.9318 795.0001,915.4968 C795.0701,894.8558 810.8991,877.9148 831.0671,875.9998 L800.5381,926.4058 Z M839.3101,928.1618 L839.3101,885.8758 L814.7901,928.1618 L839.3101,928.1618 Z" id="nr-4"></path>
        </g>
    </g>
</svg>