<?xml version="1.0" encoding="UTF-8"?>
<svg width="80px" height="68px" viewBox="0 0 80 68" version="1.1" xmlns="http://www.w3.org/2000/svg" xmlns:xlink="http://www.w3.org/1999/xlink">
    <!-- Generator: Sketch 42 (36781) - http://www.bohemiancoding.com/sketch -->
    <title>nr-5</title>
    <desc>Created with Sketch.</desc>
    <defs></defs>
    <g id="Page-1" stroke="none" stroke-width="1" fill="none" fill-rule="evenodd">
        <g id="Artboard-3" transform="translate(-533.000000, -736.000000)" fill="#000000">
            <path d="M546.4126,739.4985 L542.0496,773.7595 L559.3426,774.5695 C560.8736,771.6435 563.1476,769.6395 566.1646,768.5585 C567.8756,767.9725 569.9026,767.6805 572.2446,767.6805 C577.1976,767.6805 580.8446,769.4025 583.1866,772.8475 C585.5286,776.2925 586.6996,780.5145 586.6996,785.5135 C586.6996,790.6015 585.4496,794.8235 582.9506,798.1785 C580.4516,801.5325 576.8146,803.2105 572.0406,803.2105 C567.8986,803.2105 564.7456,802.0735 562.5846,799.7995 C560.4236,797.5245 558.9596,794.2945 558.1936,790.1055 L539.0106,790.1055 L539.0256,790.3055 C535.1836,784.1625 532.9746,776.9025 532.9996,769.1335 C533.0396,757.3445 538.2196,746.7635 546.4126,739.4985 L546.4126,739.4985 Z M594.7906,735.9995 C605.6586,743.1475 612.8186,755.4535 612.7716,769.4015 C612.7446,777.5165 610.2816,785.0585 606.0776,791.3415 C606.5336,788.9565 606.7606,786.4955 606.7606,783.9595 C606.7606,773.5575 603.7446,765.6315 597.7096,760.1825 C591.6756,754.7335 584.6056,752.0085 576.4996,752.0085 C572.4926,752.0085 569.0916,752.5265 566.2996,753.5625 C564.6336,754.1925 562.3146,755.4765 559.3426,757.4135 L562.8546,735.9995 L594.7906,735.9995 Z" id="nr-5"></path>
        </g>
    </g>
</svg>