<?xml version="1.0" encoding="UTF-8"?>
<svg width="55px" height="55px" viewBox="0 0 55 55" version="1.1" xmlns="http://www.w3.org/2000/svg" xmlns:xlink="http://www.w3.org/1999/xlink">
    <!-- Generator: Sketch 42 (36781) - http://www.bohemiancoding.com/sketch -->
    <title>nr</title>
    <desc>Created with Sketch.</desc>
    <defs></defs>
    <g id="Page-1" stroke="none" stroke-width="1" fill="none" fill-rule="evenodd">
        <g id="6Deals" transform="translate(-789.000000, -1594.000000)">
            <g id="Group-9" transform="translate(120.000000, 142.000000)">
                <g id="nr" transform="translate(669.000000, 1452.000000)">
                    <g id="Group-2">
                        <rect id="Rectangle-2" fill="#262B2F" x="0" y="0" width="55" height="55" rx="27.5"></rect>
                        <path d="M27.54536,39.3238391 C32.5047201,39.3238391 35.9218402,36.360319 35.9218402,31.7638389 C35.9218402,27.3790388 32.7466401,24.6574387 28.7852,24.6574387 C26.91032,24.6574387 25.51928,25.2017588 24.7632799,25.8972788 L24.7027999,25.8972788 L25.42856,22.2079987 L34.6215202,22.2079987 L34.6215202,18.1255986 L21.7695199,18.1255986 L19.6527198,29.5865589 L24.4306399,29.5865589 C24.9749599,28.8910388 26.0636,28.3164788 27.39416,28.3164788 C29.39,28.3164788 30.7810401,29.6167989 30.7810401,31.7335989 C30.7810401,33.820159 29.48072,35.271679 27.4244,35.271679 C25.57976,35.271679 24.0979999,34.394719 23.7653599,32.6407989 L18.7757598,32.6407989 C19.2595998,37.055839 22.7976799,39.3238391 27.54536,39.3238391 Z" id="1" fill="#FFFFFF"></path>
                    </g>
                </g>
            </g>
        </g>
    </g>
</svg>