<?xml version="1.0" encoding="UTF-8"?>
<svg width="55px" height="55px" viewBox="0 0 55 55" version="1.1" xmlns="http://www.w3.org/2000/svg" xmlns:xlink="http://www.w3.org/1999/xlink">
    <!-- Generator: Sketch 42 (36781) - http://www.bohemiancoding.com/sketch -->
    <title>nr</title>
    <desc>Created with Sketch.</desc>
    <defs></defs>
    <g id="Page-1" stroke="none" stroke-width="1" fill="none" fill-rule="evenodd">
        <g id="6Deals" transform="translate(-1189.000000, -1594.000000)">
            <g id="Group-9" transform="translate(120.000000, 142.000000)">
                <g id="nr" transform="translate(1069.000000, 1452.000000)">
                    <g id="Group-2">
                        <rect id="Rectangle-2" fill="#262B2F" x="0" y="0" width="55" height="55" rx="27.5"></rect>
                        <path d="M28.01408,39.3238391 C21.9358399,39.3238391 18.9420798,34.818079 18.9118398,28.6491188 C18.8815998,25.2622388 19.6375998,22.3894387 21.4217599,20.3633586 C22.9035199,18.6699186 25.0203199,17.7022386 27.98384,17.7022386 C32.2779201,17.7022386 34.9995202,19.8795186 35.6345602,23.2361587 L30.7659201,23.2361587 C30.4635201,22.2079987 29.7377601,21.3310387 28.04432,21.3310387 C25.50416,21.3310387 24.1131199,23.2361587 23.9619199,26.5625588 L24.0223999,26.5625588 C25.1412799,25.3831988 26.53232,24.5969587 28.77008,24.5969587 C32.7617601,24.5969587 36.2393602,27.4999988 36.2393602,31.9452789 C36.2393602,36.360319 32.7617601,39.3238391 28.01408,39.3238391 Z M27.83264,35.513599 C29.9192001,35.513599 31.4009601,34.001599 31.4009601,31.9755189 C31.4009601,29.9191989 29.9192001,28.3467188 27.83264,28.3467188 C25.62512,28.3467188 24.2340799,29.8889589 24.2340799,31.9755189 C24.2340799,34.031839 25.71584,35.513599 27.83264,35.513599 Z" id="1" fill="#FFFFFF"></path>
                    </g>
                </g>
            </g>
        </g>
    </g>
</svg>