<?xml version="1.0" encoding="UTF-8"?>
<svg width="80px" height="70px" viewBox="0 0 80 70" version="1.1" xmlns="http://www.w3.org/2000/svg" xmlns:xlink="http://www.w3.org/1999/xlink">
    <!-- Generator: Sketch 42 (36781) - http://www.bohemiancoding.com/sketch -->
    <title>nr-6</title>
    <desc>Created with Sketch.</desc>
    <defs></defs>
    <g id="Page-1" stroke="none" stroke-width="1" fill="none" fill-rule="evenodd">
        <g id="Artboard-3" transform="translate(-634.000000, -737.000000)" fill="#000000">
            <path d="M665.729,801.8141 C668.544,805.1221 672.12,806.7751 676.455,806.7751 C680.701,806.7751 684.041,805.1771 686.478,801.9821 C688.913,798.7861 690.131,794.6411 690.131,789.5461 C690.131,783.8701 688.745,779.5241 685.975,776.5071 C683.203,773.4901 679.807,771.9821 675.784,771.9821 C672.522,771.9821 669.639,772.9651 667.137,774.9311 C663.382,777.8361 661.505,782.5291 661.505,789.0091 C661.505,794.2391 662.913,798.5061 665.729,801.8141 M649.926,737.0001 C649.875,737.0851 649.824,737.1701 649.773,737.2561 C646.556,742.7531 644.388,749.6361 643.271,757.9041 C642.645,762.5521 642.333,768.5851 642.333,776.0041 C642.333,783.4861 643.122,790.1551 644.702,796.0101 C638.063,788.8981 634,779.3501 634,768.8531 C634,755.8271 640.255,744.2631 649.926,737.0001 M709.483,786.5431 C709.214,778.0541 706.462,771.0331 701.226,765.4791 C695.706,759.6251 688.634,756.6971 680.008,756.6971 C675.985,756.6971 672.41,757.3451 669.282,758.6411 C666.153,759.9371 663.405,761.9931 661.036,764.8091 C661.572,757.3001 662.556,751.6251 663.986,747.7811 C666.623,740.8091 671.047,737.3231 677.26,737.3231 C681.416,737.3231 684.522,738.8421 686.578,741.8811 C687.784,743.7591 688.388,745.4791 688.388,747.0431 L707.12,747.0431 C711.23,753.3081 713.62,760.8011 713.62,768.8531 C713.62,775.2081 712.131,781.2141 709.483,786.5431" id="nr-6"></path>
        </g>
    </g>
</svg>