<?xml version="1.0" encoding="UTF-8"?>
<svg width="364px" height="36px" viewBox="0 0 364 36" version="1.1" xmlns="http://www.w3.org/2000/svg" xmlns:xlink="http://www.w3.org/1999/xlink">
    <!-- Generator: Sketch 42 (36781) - http://www.bohemiancoding.com/sketch -->
    <title>Group 10</title>
    <desc>Created with Sketch.</desc>
    <defs></defs>
    <g id="Page-1" stroke="none" stroke-width="1" fill="none" fill-rule="evenodd">
        <g id="6Deals" transform="translate(-790.000000, -5088.000000)">
            <g id="Group-9" transform="translate(120.000000, 142.000000)">
                <g id="Group-10" transform="translate(670.000000, 4946.000000)">
                    <g id="AmericanExpress-dark" transform="translate(304.000000, 0.000000)">
                        <rect id="Rectangle" fill="#0072CE" x="0" y="0" width="60" height="36" rx="2.39999986"></rect>
                        <path d="M50.6444168,20.7993498 L48.5245922,20.7993498 C48.3129473,20.7993498 48.17234,20.8072517 48.0538952,20.8870017 C47.931194,20.9655811 47.8839335,21.0822064 47.8839335,21.2361459 C47.8839335,21.4192052 47.9875544,21.5437323 48.1382889,21.5975819 C48.2609901,21.640164 48.3927912,21.6526021 48.5865299,21.6526021 L49.2169146,21.6694301 C49.8530234,21.6850874 50.2776341,21.7941035 50.5365395,22.0599857 C50.5836533,22.0970073 50.6119802,22.1385651 50.6444168,22.180123 L50.6444168,20.7993498 Z M50.6444168,23.9985701 C50.3618811,24.41049 49.8113403,24.6193034 49.0660333,24.6193034 L46.8198382,24.6193034 L46.8198382,23.5787484 L49.0569334,23.5787484 C49.2788523,23.5787484 49.4341368,23.5496286 49.5276304,23.4586112 C49.6086485,23.3835437 49.6651556,23.2745276 49.6651556,23.1420986 C49.6651556,23.0007435 49.6086485,22.8885081 49.5230805,22.8211962 C49.4386868,22.747153 49.3158388,22.713497 49.1132938,22.713497 C48.0211651,22.6764755 46.6586828,22.747153 46.6586828,21.2115624 C46.6586828,20.5077135 47.1069238,19.766843 48.3274777,19.766843 L50.64427,19.766843 L50.64427,18.8013554 L48.4917154,18.8013554 C47.8421035,18.8013554 47.3702323,18.9564655 47.036033,19.1976179 L47.036033,18.8013554 L43.8521132,18.8013554 C43.342962,18.8013554 42.7453074,18.9271994 42.462625,19.1976179 L42.462625,18.8013554 L36.7769805,18.8013554 L36.7769805,19.1976179 C36.3244831,18.8721792 35.5609764,18.8013554 35.2085774,18.8013554 L31.4582654,18.8013554 L31.4582654,19.1976179 C31.1002891,18.8519857 30.3041991,18.8013554 29.8189716,18.8013554 L25.6217396,18.8013554 L24.6612652,19.8376668 L23.761701,18.8013554 L17.491905,18.8013554 L17.491905,25.5723529 L23.6436966,25.5723529 L24.6333785,24.5196525 L25.5656728,25.5723529 L29.357668,25.5757185 L29.357668,23.9829128 L29.7304682,23.9829128 C30.2336018,23.9906683 30.8270001,23.9704747 31.3505349,23.7448333 L31.3505349,25.5722066 L34.4782412,25.5722066 L34.4782412,23.8074627 L34.6291225,23.8074627 C34.8216871,23.8074627 34.8406206,23.8153645 34.8406206,24.0072036 L34.8406206,25.5720603 L44.3420374,25.5720603 C44.9452693,25.5720603 45.5758008,25.4181208 45.9249708,25.1387761 L45.9249708,25.5720603 L48.9387821,25.5720603 C49.5659379,25.5720603 50.1784164,25.4844084 50.6444168,25.2599377 L50.6444168,23.9985701 L50.6444168,23.9985701 Z M46.0048146,22.0599857 C46.2312835,22.2936753 46.3526637,22.5886773 46.3526637,23.0881027 C46.3526637,24.1320234 45.698502,24.6193034 44.5255021,24.6193034 L42.2600799,24.6193034 L42.2600799,23.5787484 L44.5164022,23.5787484 C44.7370002,23.5787484 44.8934589,23.5496286 44.9915024,23.4586112 C45.071493,23.3835437 45.1288808,23.2745276 45.1288808,23.1420986 C45.1288808,23.0007435 45.0667963,22.8885081 44.9869525,22.8211962 C44.8980088,22.747153 44.7753076,22.713497 44.5727626,22.713497 C43.485037,22.6764755 42.1228483,22.747153 42.1228483,21.2115624 C42.1228483,20.5077135 42.5663926,19.766843 43.7857724,19.766843 L46.1175353,19.766843 L46.1175353,20.7996425 L43.9839143,20.7996425 C43.7724162,20.7996425 43.634891,20.8075443 43.5179139,20.8872944 C43.390516,20.9658738 43.3432555,21.0824991 43.3432555,21.2364386 C43.3432555,21.4194978 43.4514263,21.544025 43.5977578,21.5978745 C43.7204589,21.6404567 43.85226,21.6528947 44.0504019,21.6528947 L44.6765302,21.6697227 C45.3079423,21.6850874 45.7413593,21.7939572 46.0048146,22.0599857 L46.0048146,22.0599857 Z M35.5094596,21.7603012 C35.3538815,21.852343 35.1614637,21.8602448 34.9351417,21.8602448 L33.5221699,21.8602448 L33.5221699,20.7703764 L34.9543688,20.7703764 C35.1614637,20.7703764 35.3687054,20.7747663 35.5094596,20.8580283 C35.6601942,20.9366077 35.750312,21.086889 35.750312,21.2945317 C35.750312,21.5021745 35.6601942,21.6694301 35.5094596,21.7603012 L35.5094596,21.7603012 Z M36.2119092,22.3642065 C36.4708146,22.4594676 36.6824595,22.6302351 36.7816772,22.7715902 C36.9459148,23.008499 36.9696918,23.2296042 36.9743885,23.6573278 L36.9743885,24.6193034 L35.8066724,24.6193034 L35.8066724,24.0121788 C35.8066724,23.7202498 35.8348526,23.28799 35.6186577,23.0623486 C35.4486961,22.8885081 35.1896439,22.8469503 34.7653267,22.8469503 L33.5223167,22.8469503 L33.5223167,24.6193034 L32.3535732,24.6193034 L32.3535732,19.7666966 L35.0389093,19.7666966 C35.6277576,19.7666966 36.0566247,19.7925971 36.438378,19.9957036 C36.8054542,20.2168088 37.0363262,20.5197126 37.0363262,21.0732802 C37.0361794,21.8478067 36.5180751,22.243045 36.2119092,22.3642065 L36.2119092,22.3642065 Z M37.6812413,19.7666966 L41.5632076,19.7666966 L41.5632076,20.7702301 L38.839564,20.7702301 L38.839564,21.6524557 L41.49672,21.6524557 L41.49672,22.6425268 L38.839564,22.6425268 L38.839564,23.6080144 L41.5632076,23.6124043 L41.5632076,24.6193034 L37.6812413,24.6193034 L37.6812413,19.7666966 L37.6812413,19.7666966 Z M29.8337956,22.0061362 L28.330706,22.0061362 L28.330706,20.7703764 L29.8472986,20.7703764 C30.2672126,20.7703764 30.5587013,20.9409976 30.5587013,21.3653556 C30.5587013,21.785031 30.2807156,22.0061362 29.8337956,22.0061362 L29.8337956,22.0061362 Z M27.1722365,24.1779711 L25.3864644,22.2013409 L27.1722365,20.2874863 L27.1722365,24.1779711 L27.1722365,24.1779711 Z M22.560521,23.6080144 L19.70082,23.6080144 L19.70082,22.6425268 L22.2543551,22.6425268 L22.2543551,21.6524557 L19.70082,21.6524557 L19.70082,20.7702301 L22.6168813,20.7702301 L23.8890989,22.1843665 L22.560521,23.6080144 L22.560521,23.6080144 Z M31.8074354,21.3653556 C31.8074354,22.7133507 30.7986731,22.991671 29.7819851,22.991671 L28.330706,22.991671 L28.330706,24.6193034 L26.0699805,24.6193034 L24.6377817,23.0128889 L23.1493693,24.6193034 L18.5422037,24.6193034 L18.5422037,19.7666966 L23.22026,19.7666966 L24.6512847,21.3573074 L26.130744,19.7666966 L29.8472986,19.7666966 C30.7703462,19.7666966 31.8074354,20.0214577 31.8074354,21.3653556 L31.8074354,21.3653556 Z" id="EXPRESS" fill="#FFFFFF"></path>
                        <path d="M12.9929102,14.1745363 L12.1968202,12.2404881 L11.40528,14.1745363 L12.9929102,14.1745363 Z M30.5306679,13.4043997 C30.3708334,13.501124 30.1817914,13.5043433 29.9553226,13.5043433 L28.5423508,13.5043433 L28.5423508,12.4267667 L29.9745497,12.4267667 C30.1772415,12.4267667 30.3887396,12.4358391 30.526118,12.5142722 C30.6769993,12.5849498 30.7703462,12.7353774 30.7703462,12.9431664 C30.7703462,13.1551991 30.6815493,13.3258203 30.5306679,13.4043997 L30.5306679,13.4043997 Z M40.6106589,14.1745363 L39.8057625,12.2404881 L39.0052694,14.1745363 L40.6106589,14.1745363 L40.6106589,14.1745363 Z M21.8209381,16.2679381 L20.6285643,16.2679381 L20.6241611,12.4683245 L18.9376068,16.2679381 L17.9163689,16.2679381 L16.2254114,12.4649589 L16.2254114,16.2679381 L13.8597442,16.2679381 L13.4128242,15.1858253 L10.9910901,15.1858253 L10.5396202,16.2679381 L9.27635566,16.2679381 L11.3591937,11.416502 L13.0872844,11.416502 L15.0654742,16.0098114 L15.0654742,11.416502 L16.9638202,11.416502 L18.4859901,14.7076177 L19.8842847,11.416502 L21.8207913,11.416502 L21.8207913,16.2679381 L21.8209381,16.2679381 Z M26.5732609,16.2679381 L22.6877721,16.2679381 L22.6877721,11.416502 L26.5732609,11.416502 L26.5732609,12.4267667 L23.8509383,12.4267667 L23.8509383,13.3012368 L26.5079475,13.3012368 L26.5079475,14.2956978 L23.8509383,14.2956978 L23.8509383,15.264551 L26.5732609,15.264551 L26.5732609,16.2679381 L26.5732609,16.2679381 Z M32.0516636,12.7230856 C32.0516636,13.4965878 31.5338529,13.896216 31.2320901,14.0162068 C31.4865924,14.1127849 31.7039613,14.283406 31.8074354,14.4247612 C31.971673,14.6660599 32,14.8816045 32,15.3148886 L32,16.2679381 L30.8268533,16.2679381 L30.8224501,15.656131 C30.8224501,15.364202 30.8504836,14.9443802 30.6388387,14.7109833 C30.468877,14.5403621 30.2098248,14.5033405 29.791085,14.5033405 L28.5424976,14.5033405 L28.5424976,16.2679381 L27.3794782,16.2679381 L27.3794782,11.416502 L30.0546871,11.416502 C30.6491127,11.416502 31.0870796,11.4321593 31.4631089,11.6488746 C31.8310657,11.8655898 32.0516636,12.181956 32.0516636,12.7230856 L32.0516636,12.7230856 Z M33.9130231,16.2679381 L32.7262267,16.2679381 L32.7262267,11.416502 L33.9130231,11.416502 L33.9130231,16.2679381 L33.9130231,16.2679381 Z M47.6813885,16.2679381 L46.0331416,16.2679381 L43.828483,12.6266539 L43.828483,16.2679381 L41.4597335,16.2679381 L41.0070894,15.1858253 L38.5909327,15.1858253 L38.1517916,16.2679381 L36.790777,16.2679381 C36.2254122,16.2679381 35.5096063,16.1432647 35.1042227,15.7313448 C34.6954634,15.3194249 34.4827911,14.7614673 34.4827911,13.8792416 C34.4827911,13.1597353 34.6098954,12.5019805 35.1098001,11.9822151 C35.4858293,11.595025 36.0746776,11.416502 36.8761982,11.416502 L38.0022311,11.416502 L38.0022311,12.4560327 L36.8998285,12.4560327 C36.4753645,12.4560327 36.2356862,12.5189548 36.0048143,12.7434255 C35.8065256,12.9477027 35.6704682,13.3338685 35.6704682,13.8423664 C35.6704682,14.3621318 35.774089,14.7368838 35.9902838,14.9816944 C36.1693454,15.1736798 36.4947384,15.2319193 36.8009043,15.2319193 L37.323265,15.2319193 L38.9625588,11.4166483 L40.7053267,11.4166483 L42.6745634,16.0054215 L42.6745634,11.4166483 L44.4455114,11.4166483 L46.4900421,14.7954159 L46.4900421,11.4166483 L47.6813885,11.4166483 L47.6813885,16.2679381 L47.6813885,16.2679381 Z M9.26285265,17.2208413 L11.2501423,17.2208413 L11.6982365,16.1432647 L12.7014215,16.1432647 L13.1483415,17.2208413 L17.058488,17.2208413 L17.058488,16.3970015 L17.4075112,17.2243533 L19.4373647,17.2243533 L19.7863879,16.3847098 L19.7863879,17.2208413 L29.5038526,17.2208413 L29.4993027,15.4520002 L29.6873174,15.4520002 C29.8189716,15.4565364 29.8574258,15.4686818 29.8574258,15.6853971 L29.8574258,17.2208413 L34.8833312,17.2208413 L34.8833312,16.8090677 C35.2887148,17.0256367 35.9192463,17.2208413 36.7489471,17.2208413 L38.8633411,17.2208413 L39.3158384,16.1432647 L40.3190234,16.1432647 L40.7615402,17.2208413 L44.8360711,17.2208413 L44.8360711,16.1972606 L45.4530996,17.2208413 L48.7181842,17.2208413 L48.7181842,10.4545263 L45.4868571,10.4545263 L45.4868571,11.2536363 L45.0343598,10.4545263 L41.7186389,10.4545263 L41.7186389,11.2536363 L41.303128,10.4545263 L36.8243878,10.4545263 C36.0746776,10.4545263 35.4156724,10.5588598 34.8833312,10.8496182 L34.8833312,10.4545263 L31.7926115,10.4545263 L31.7926115,10.8496182 C31.4538623,10.5499337 30.9922651,10.4545263 30.4790042,10.4545263 L19.1874124,10.4545263 L18.4297765,12.2021496 L17.6517394,10.4545263 L14.0951661,10.4545263 L14.0951661,11.2536363 L13.7044597,10.4545263 L10.6712745,10.4545263 L9.26270588,13.6715989 L9.26270588,17.2208413 L9.26285265,17.2208413 Z" id="AMERICAN" fill="#FFFFFF"></path>
                    </g>
                    <g id="Cirrus-dark" transform="translate(228.000000, 0.000000)">
                        <rect id="Rectangle" fill="#000066" x="0" y="0" width="60" height="36" rx="2.39999986"></rect>
                        <path d="M34.2090254,18.0001875 C34.2090254,24.553125 28.8618592,29.865 22.2658507,29.865 C15.6702197,29.865 10.3232423,24.553125 10.3232423,18.0001875 C10.3232423,11.448 15.6702197,6.13575 22.2658507,6.13575 C28.8618592,6.13575 34.2090254,11.448 34.2090254,18.0001875" id="Fill-374" fill="#333399"></path>
                        <path d="M38.2996113,6.13575 C35.2140254,6.13575 32.4021014,7.2988125 30.2824479,9.2068125 C29.8510056,9.5953125 29.4478732,10.0156875 29.0768254,10.4625 L31.4892028,10.4625 C31.8194845,10.8609375 32.1231549,11.2798125 32.3998366,11.7189375 L28.1661915,11.7189375 C27.9127239,12.1224375 27.6822817,12.5415 27.478262,12.975375 L33.0877662,12.975375 C33.2791408,13.38225 33.4484338,13.801125 33.5933803,14.2310625 L26.9720817,14.2310625 C26.8341183,14.6409375 26.7184254,15.0598125 26.6253803,15.4876875 L33.939893,15.4876875 C34.1157915,16.2976875 34.2090254,17.1380625 34.2090254,18.0001875 C34.2090254,19.31775 33.9925493,20.58525 33.5933803,21.7693125 L26.9720817,21.7693125 C27.1174056,22.1994375 27.2865099,22.618875 27.4778845,23.02575 L33.0877662,23.02575 C32.8831803,23.45925 32.6533042,23.8786875 32.3992704,24.2821875 L28.1661915,24.2821875 C28.4426845,24.7205625 28.7469211,25.1401875 29.0768254,25.537875 L31.4888254,25.537875 C31.1183437,25.9854375 30.7148338,26.4058125 30.2828254,26.7943125 C32.4022901,28.7023125 35.2140254,29.865 38.2996113,29.865 C44.895431,29.865 50.2424085,24.553125 50.2424085,18.0001875 C50.2424085,11.448 44.895431,6.13575 38.2996113,6.13575" id="Fill-375" fill="#0066CC"></path>
                        <path d="M48.6504507,24.6135 C48.6504507,24.402 48.8233296,24.2308125 49.036031,24.2308125 C49.2492986,24.2308125 49.4216113,24.402 49.4216113,24.6135 C49.4216113,24.8251875 49.2492986,24.9969375 49.036031,24.9969375 C48.8233296,24.9969375 48.6504507,24.8251875 48.6504507,24.6135 L48.6504507,24.6135 Z M49.036031,24.9050625 C49.1983408,24.9050625 49.3293211,24.77475 49.3293211,24.6135 C49.3293211,24.4528125 49.1983408,24.322875 49.036031,24.322875 C48.8744761,24.322875 48.743307,24.4528125 48.743307,24.6135 C48.743307,24.77475 48.8744761,24.9050625 49.036031,24.9050625 L49.036031,24.9050625 Z M48.9841296,24.7816875 L48.9052394,24.7816875 L48.9052394,24.4455 L49.0482986,24.4455 C49.0781183,24.4455 49.1083155,24.4455 49.134738,24.462375 C49.1621042,24.4809375 49.1775803,24.5131875 49.1775803,24.5461875 C49.1775803,24.584625 49.1554986,24.62025 49.119262,24.63375 L49.1811662,24.7816875 L49.0934056,24.7816875 L49.0420704,24.64875 L48.9841296,24.64875 L48.9841296,24.7816875 L48.9841296,24.7816875 Z M48.9841296,24.5911875 L49.0277268,24.5911875 C49.0439577,24.5911875 49.0615099,24.5923125 49.0758535,24.584625 C49.0888761,24.5761875 49.0956704,24.5608125 49.0956704,24.5458125 C49.0956704,24.5330625 49.0877437,24.5184375 49.0766085,24.5115 C49.0626423,24.5034375 49.0407493,24.5055 49.0262169,24.5055 L48.9841296,24.5055 L48.9841296,24.5911875 L48.9841296,24.5911875 Z" id="Fill-376" fill="#0066CC"></path>
                        <path d="M21.5773549,15.2840625 C21.4707211,15.7494375 21.4148563,16.0130625 21.2702873,16.5796875 C20.3722986,16.2013125 19.1681859,16.003875 18.2443408,16.5770625 C17.3725859,17.1283125 17.0779746,17.988375 17.1415775,18.9410625 C17.2057465,19.3995 17.5520704,19.84725 18.0397549,20.0415 C18.8852761,20.351625 19.692107,20.2381875 20.5902845,19.7821875 C20.4625127,20.35575 20.3662592,20.806125 20.2547183,21.2161875 C19.1774338,21.5150625 18.1548817,21.6133125 17.0779746,21.257625 C16.1160056,20.9251875 15.3335211,20.0645625 15.2699183,19.135875 C15.0517437,17.6445 15.7700592,16.118625 17.2316028,15.4183125 C18.5906648,14.8108125 20.1411014,14.916375 21.5773549,15.2840625" id="Fill-377" fill="#000066"></path>
                        <path d="M36.7956028,20.5845 C36.5115606,20.866875 36.0291606,21.4854375 34.7180366,21.4854375 C33.5239268,21.4854375 32.6857662,20.6105625 33.1102254,18.646125 C33.1102254,18.64575 33.6039493,16.3335 33.6039493,16.3335 L35.4261606,16.3335 C35.4261606,16.3335 34.9313042,18.648375 34.9322479,18.646125 C34.7638986,19.432875 34.8037211,20.0315625 35.6080986,20.0315625 C36.5561014,20.0315625 36.8397662,19.462125 37.0188732,18.646125 C37.0175521,18.64725 37.5137296,16.3335 37.5137296,16.3335 L39.414831,16.3335 L38.5968648,20.0510625 C38.5038197,20.4871875 38.4149268,20.949 38.3635915,21.4044375 L36.6525437,21.4044375 C36.6525437,21.4044375 36.7604986,20.785125 36.7956028,20.5845" id="Fill-378" fill="#000066"></path>
                        <path d="M40.0195296,17.9371875 C40.0195296,18.5803125 40.4445549,19.0198125 41.4104873,19.348125 C42.156169,19.6070625 42.2731831,19.683 42.2731831,19.9081875 C42.2731831,20.229 41.9402592,20.365125 41.2215662,20.365125 C40.674431,20.365125 40.1663634,20.3109375 39.5782732,20.1699375 C39.5782732,20.1699375 39.3468873,21.2218125 39.3232958,21.3418125 C39.8345718,21.432375 40.7199155,21.4854375 41.2342113,21.4854375 C43.1638113,21.4854375 44.0585915,20.9495625 44.0585915,19.7934375 C44.0585915,19.10175 43.6833915,18.6945 42.7680394,18.3825 C41.9963127,18.1305 41.9108169,18.072375 41.9108169,17.8318125 C41.9108169,17.5625625 42.2156197,17.4196875 42.8086169,17.4196875 C43.1655099,17.4196875 43.6652732,17.4496875 44.1297437,17.4980625 L44.3860423,16.3215 C43.9119465,16.2654375 43.1896676,16.2204375 42.7729465,16.2204375 C40.7250113,16.2204375 40.0131127,17.003625 40.0195296,17.9371875" id="Fill-379" fill="#000066"></path>
                        <polyline id="Fill-380" fill="#000066" points="22.2722676 16.3335 24.179031 16.3335 23.0926873 21.4044375 21.1855465 21.4044375 22.2722676 16.3335"></polyline>
                        <path d="M33.1642028,16.3119375 C31.8196732,16.1355 31.4359803,16.79175 31.0749352,17.118 C31.1179662,16.854 31.1974225,16.5965625 31.181569,16.3335 L29.4301324,16.3335 C29.1893099,17.9038125 28.7616423,19.492875 28.4270197,21.0631875 L28.3392592,21.4040625 L30.3220817,21.4040625 C30.5485606,20.3743125 30.8114648,18.81975 31.1147577,18.349125 C31.4176732,17.87925 31.9217775,17.5036875 32.583662,17.729625 L33.1642028,16.3119375" id="Fill-381" fill="#000066"></path>
                        <path d="M29.0068056,16.3119375 C27.6624648,16.1355 27.2789606,16.79175 26.9177268,17.118 C26.9609465,16.854 27.0400254,16.5965625 27.0243606,16.3335 L25.2731127,16.3335 C25.0322901,17.9038125 24.6044338,19.492875 24.27,21.0631875 L24.1822394,21.4040625 L26.1648732,21.4040625 C26.3915408,20.3743125 26.6544451,18.81975 26.9575493,18.349125 C27.2606535,17.87925 27.764569,17.5036875 28.4264535,17.729625 L29.0068056,16.3119375" id="Fill-382" fill="#000066"></path>
                        <path d="M44.6430958,20.64975 C44.6430958,20.4380625 44.8157859,20.2663125 45.0288648,20.2663125 C45.2417549,20.2663125 45.4146338,20.4380625 45.4146338,20.64975 C45.4146338,20.8614375 45.2417549,21.0328125 45.0288648,21.0328125 C44.8157859,21.0328125 44.6430958,20.8614375 44.6430958,20.64975 L44.6430958,20.64975 Z M45.0288648,20.9409375 C45.1906085,20.9409375 45.3221549,20.8104375 45.3221549,20.64975 C45.3221549,20.488875 45.1906085,20.3585625 45.0288648,20.3585625 C44.8671211,20.3585625 44.7353859,20.488875 44.7353859,20.64975 C44.7353859,20.8104375 44.8671211,20.9409375 45.0288648,20.9409375 L45.0288648,20.9409375 Z M44.9767746,20.81775 L44.8976958,20.81775 L44.8976958,20.4808125 L45.0407549,20.4808125 C45.0703859,20.4808125 45.1011493,20.4815625 45.1271944,20.4984375 C45.1551268,20.5168125 45.1704141,20.5494375 45.1704141,20.58225 C45.1704141,20.6205 45.1481437,20.6559375 45.1117183,20.6694375 L45.174,20.81775 L45.0866169,20.81775 L45.0349042,20.6844375 L44.9767746,20.6844375 L44.9767746,20.81775 L44.9767746,20.81775 Z M44.9767746,20.6266875 L45.0205606,20.6266875 C45.0367915,20.6266875 45.0547211,20.6281875 45.0686873,20.6205 C45.0817099,20.6124375 45.0883155,20.5966875 45.0883155,20.5820625 C45.0883155,20.569125 45.0802,20.554125 45.069631,20.5471875 C45.0558535,20.5395 45.0333944,20.541375 45.0184845,20.541375 L44.9767746,20.541375 L44.9767746,20.6266875 L44.9767746,20.6266875 Z" id="Fill-383" fill="#FFFFFF"></path>
                        <path d="M21.9504789,14.913 C21.8438451,15.3789375 21.7877915,15.6425625 21.6436,16.208625 C20.7454225,15.8308125 19.5413099,15.633375 18.6174648,16.2061875 C17.7458986,16.75725 17.4514761,17.6175 17.5147014,18.57 C17.5792479,19.0288125 17.9251944,19.476375 18.4130676,19.6708125 C19.2584,19.98075 20.065231,19.867125 20.9635972,19.411125 C20.8358254,19.9850625 20.7393831,20.4354375 20.6278423,20.8456875 C19.5509352,21.1441875 18.5280056,21.242625 17.4514761,20.8869375 C16.4891296,20.5545 15.7070225,19.693875 15.643231,18.7648125 C15.4250563,17.273625 16.1431831,15.7475625 17.6049155,15.0474375 C18.9637887,14.4399375 20.5140366,14.5453125 21.9504789,14.913" id="Fill-384" fill="#FFFFFF"></path>
                        <path d="M37.1689155,20.214 C36.8846845,20.496375 36.4020958,21.114375 35.0911606,21.114375 C33.8970507,21.114375 33.1383465,20.239875 33.5626169,18.27525 L34.056907,15.963 L35.879307,15.963 C35.879307,15.963 35.3840732,18.2773125 35.3846394,18.27525 C35.2164789,19.0621875 35.2564901,19.660875 36.0610563,19.660875 C37.0083042,19.660875 37.2925352,19.0914375 37.4712648,18.27525 C37.4701324,18.27675 37.9663099,15.963 37.9663099,15.963 L39.7881437,15.963 L38.9698,19.680375 C38.8769437,20.116125 38.7884282,20.5779375 38.7369042,21.0339375 L37.0260451,21.0339375 C37.0260451,21.0339375 37.134,20.41425 37.1689155,20.214" id="Fill-385" fill="#FFFFFF"></path>
                        <path d="M40.3926535,17.5665 C40.3926535,18.209625 40.8176789,18.649125 41.7838,18.97725 C42.5296704,19.2361875 42.6464958,19.3123125 42.6464958,19.537125 C42.6464958,19.8583125 42.3131944,19.994625 41.5948789,19.994625 C41.0477437,19.994625 40.5396761,19.9400625 39.9513972,19.7994375 C39.9513972,19.7994375 39.7200113,20.85075 39.696231,20.9713125 C40.2078845,21.0616875 41.0930394,21.114375 41.6075239,21.114375 C43.5369352,21.114375 44.4319042,20.5790625 44.4319042,19.4225625 C44.4319042,18.7306875 44.056893,18.324 43.1411634,18.012 C42.3692479,17.76 42.2837521,17.7013125 42.2837521,17.461125 C42.2837521,17.191875 42.5889324,17.0491875 43.1821183,17.0491875 C43.5386338,17.0491875 44.0385859,17.0791875 44.5032451,17.1271875 L44.7589775,15.9504375 C44.2850704,15.894375 43.5627915,15.849375 43.1462592,15.849375 C41.0983239,15.849375 40.3860479,16.63275 40.3926535,17.5665" id="Fill-386" fill="#FFFFFF"></path>
                        <polyline id="Fill-387" fill="#FFFFFF" points="22.7244704 15.963 24.5525324 15.963 23.4658113 21.0339375 21.6383155 21.0339375 22.7244704 15.963"></polyline>
                        <path d="M33.5373268,15.9414375 C32.1929859,15.7648125 31.8094817,16.4210625 31.4480592,16.7473125 C31.4912789,16.4833125 31.5705465,16.2255 31.554693,15.963 L29.8827127,15.963 C29.6420789,17.5329375 29.2140338,19.1218125 28.8797887,20.6925 L28.7920282,21.0331875 L30.6952056,21.0331875 C30.922062,20.0034375 31.1847775,18.448875 31.4880704,17.978625 C31.7909859,17.508375 32.2950901,17.133 32.9565972,17.3589375 L33.5373268,15.9414375" id="Fill-388" fill="#FFFFFF"></path>
                        <path d="M29.380307,15.9414375 C28.0357775,15.7648125 27.6522732,16.4210625 27.2908507,16.7473125 C27.3340704,16.4833125 27.4135268,16.2255 27.3974845,15.963 L25.7255042,15.963 C25.4848704,17.5329375 25.0572028,19.1218125 24.7223915,20.6925 L24.6348197,21.0331875 L26.5378085,21.0331875 C26.7648535,20.0034375 27.0273803,18.448875 27.3310507,17.978625 C27.6337775,17.508375 28.1378817,17.133 28.7995775,17.3589375 L29.380307,15.9414375" id="Fill-389" fill="#FFFFFF"></path>
                    </g>
                    <g id="Maestro-dark" transform="translate(152.000000, 0.000000)">
                        <rect id="Rectangle" fill="#000066" x="0" y="0" width="60" height="36" rx="2.39999986"></rect>
                        <path d="M50.1938939,17.9902398 C50.1938939,24.6234416 44.8383807,30 38.2303989,30 C31.6237408,30 26.2674712,24.6234416 26.2674712,17.9902398 C26.2674712,11.3568482 31.6237408,5.98010004 38.2303989,5.98010004 C44.8383807,5.98010004 50.1938939,11.3568482 50.1938939,17.9902398" id="Fill-356" fill="#CC0000"></path>
                        <path d="M28.9889054,25.6170269 C28.658582,25.2148478 28.3543516,24.7898932 28.077727,24.34501 L32.3176658,24.34501 C32.572168,23.9373268 32.8019007,23.512562 33.0070529,23.0731829 L27.388718,23.0731829 C27.1971796,22.6617038 27.0270072,22.2373186 26.8821716,21.8017354 L33.5126539,21.8017354 C33.9119917,20.6041187 34.1277325,19.3229916 34.1277325,17.9902398 C34.1277325,17.117555 34.0350831,16.266507 33.8592383,15.4469652 L26.5365326,15.4469652 C26.629182,15.0136596 26.7460337,14.5896539 26.8836843,14.1751381 L33.5118976,14.1751381 C33.3664948,13.7395549 33.1972678,13.3153595 33.0059185,12.9038804 L27.3898525,12.9038804 C27.5950047,12.4645013 27.8253046,12.0404956 28.0790505,11.6318635 L32.3163422,11.6318635 C32.0399067,11.1881191 31.73492,10.7639236 31.4051638,10.3611752 L28.9904181,10.3611752 C29.361961,9.9085103 29.7656477,9.48355569 30.1978855,9.09010731 C28.0745126,7.15740842 25.2562693,5.98010004 22.1649938,5.98010004 C15.5573903,5.98010004 10.2011208,11.3568482 10.2011208,17.9902398 C10.2011208,24.6234416 15.5573903,30 22.1649938,30 C25.2564584,30 28.0748908,28.8226916 30.1978855,26.8907519 C30.6306905,26.4965443 31.0349444,26.0706408 31.4064874,25.6170269 L28.9889054,25.6170269" id="Fill-357" fill="#0066CC"></path>
                        <path d="M30.027335,21.2357619 C29.5160616,21.3716562 29.0216163,21.4380851 28.4989981,21.4369463 C26.8314981,21.4354279 25.9630518,20.6730149 25.9630518,19.2149973 C25.9630518,17.5115728 27.0686049,16.2587253 28.569336,16.2587253 C29.7968459,16.2587253 30.5803951,16.9611626 30.5803951,18.0617931 C30.5803951,18.4269618 30.5274526,18.7828305 30.3975544,19.2857915 L27.4322065,19.2857915 C27.3266996,19.9979084 27.8445908,20.3105034 28.7262727,20.3105034 C29.2543743,20.3105034 29.7318023,20.2152255 30.2608492,20.0017043 L30.027335,21.2357619 L30.027335,21.2357619 Z M29.2299829,18.281198 C29.2299829,18.1737731 29.394861,17.4092724 28.5366251,17.3927601 C28.0627896,17.3927601 27.7230121,17.7089612 27.5855507,18.281198 L29.2299829,18.281198 L29.2299829,18.281198 Z" id="Fill-359" fill="#000066"></path>
                        <path d="M31.0319191,17.947156 C31.0319191,18.5763318 31.3847431,19.0111558 32.1870113,19.334759 C32.800199,19.5868089 32.89663,19.6598806 32.89663,19.8851692 C32.89663,20.1973846 32.6258669,20.3404913 32.024213,20.3366953 C31.5725,20.3334688 31.1601156,20.278238 30.6736118,20.142913 L30.4582492,21.2906131 C30.8908651,21.3913951 31.497246,21.4244197 32.0348015,21.4369463 C33.6361234,21.4369463 34.3754278,20.9106403 34.3754278,19.7729994 C34.3754278,19.0889724 34.0670377,18.6867934 33.3065563,18.3869147 C32.670868,18.1318281 32.5963703,18.0769769 32.5963703,17.8459944 C32.5963703,17.5749648 32.8482254,17.4379317 33.3392672,17.4379317 C33.6370688,17.4379317 34.0445371,17.4652624 34.4313956,17.5123319 L34.6482708,16.3583685 C34.2542272,16.3035173 33.6565441,16.2594845 33.3103379,16.2594845 C31.6139086,16.2594845 31.0268139,17.026073 31.0319191,17.947156" id="Fill-360" fill="#000066"></path>
                        <path d="M25.1501952,21.3547643 L23.9062352,21.3547643 L23.9359209,20.8316849 C23.5566256,21.2443027 23.0512137,21.4365667 22.3656082,21.4365667 C21.5540751,21.4365667 20.9981787,20.8795136 20.9981787,20.0783821 C20.9981787,18.8606471 21.9645686,18.1582098 23.6262072,18.1582098 C23.7969468,18.1582098 24.0142001,18.171116 24.237315,18.1963589 C24.2834506,18.0333236 24.2959299,17.9630989 24.2959299,17.8746537 C24.2959299,17.5413708 24.0344317,17.4185724 23.3352124,17.4185724 C22.6458253,17.4212296 22.1806875,17.5239095 21.749017,17.6402549 L21.9615433,16.523112 C22.7080328,16.3325562 23.1966165,16.2587253 23.7496767,16.2587253 C25.0363688,16.2587253 25.7159237,16.7654823 25.7159237,17.7171225 C25.7267013,17.9712602 25.6387789,18.4810539 25.594345,18.7042547 C25.5440496,19.0286171 25.187444,20.9106403 25.1501952,21.3547643 L25.1501952,21.3547643 Z M24.0582559,19.1330052 C23.9007519,19.1174419 23.8321157,19.112697 23.7241508,19.112697 C22.8757471,19.112697 22.4455892,19.3662652 22.4455892,19.8667589 C22.4455892,20.1810621 22.6554684,20.3775016 22.9827666,20.3775016 C23.5923618,20.3775016 24.0325409,19.8656201 24.0582559,19.1330052 L24.0582559,19.1330052 Z" id="Fill-361" fill="#000066"></path>
                        <path d="M36.9964603,21.275809 C36.5884248,21.3879788 36.2702024,21.4369463 35.9262652,21.4369463 C35.1642712,21.4369463 34.7481052,21.0459653 34.7481052,20.3497913 C34.724092,20.1584763 34.9103362,19.2747833 34.9526902,19.0286171 C34.9946661,18.7816917 35.6547458,15.1820092 35.6547458,15.1820092 L37.1352453,15.1820092 L36.9113741,16.3731727 L37.670721,16.3731727 L37.4644342,17.5884404 L36.7016839,17.5884404 C36.7016839,17.5884404 36.283249,19.6984093 36.283249,19.8597364 C36.283249,20.1153925 36.4375386,20.2266133 36.7920643,20.2266133 C36.9614804,20.2266133 37.0925131,20.2106704 37.1936711,20.1803029 L36.9964603,21.275809" id="Fill-362" fill="#000066"></path>
                        <path d="M43.6118161,16.2587253 C42.5266837,16.2587253 41.6788472,16.7075943 41.1862928,17.4561521 L41.6138036,16.3454624 C40.8260946,16.0552634 40.3182247,16.4695894 39.8593266,17.0583385 C39.8593266,17.0583385 39.7823708,17.1560837 39.7056042,17.2454779 L39.7056042,16.3726033 L38.3154851,16.3726033 C38.127161,17.9131824 37.7941905,19.4755881 37.5338267,21.0195835 L37.470863,21.3553337 L38.9662998,21.3553337 C39.1082992,20.5718533 39.2247727,19.9360347 39.3408681,19.4288981 C39.6585232,18.037689 40.1932425,17.6125446 40.9958888,17.8008228 C40.81059,18.2003447 40.7090539,18.6634484 40.7090539,19.1757095 C40.7090539,20.4194466 41.3814238,21.4369463 43.0519491,21.4369463 C44.7374117,21.4369463 45.9579257,20.5331348 45.9579257,18.4721334 C45.9579257,17.2291554 45.1445018,16.2587253 43.6118161,16.2587253 L43.6118161,16.2587253 Z M43.1765531,20.2281317 C42.6484515,20.2362929 42.3281493,19.7914097 42.3281493,19.1256031 C42.3281493,18.3368084 42.795367,17.4453337 43.5462052,17.4453337 C44.1520188,17.4453337 44.35944,17.9276069 44.35944,18.4413864 C44.35944,19.5634639 43.9012982,20.2281317 43.1765531,20.2281317 L43.1765531,20.2281317 Z" id="Fill-363" fill="#000066"></path>
                        <polyline id="Fill-364" fill="#000066" points="20.3014174 21.3553337 18.8120312 21.3553337 19.6971165 16.6741901 17.659397 21.3553337 16.3017998 21.3553337 16.0537263 16.7017106 15.1658048 21.3553337 13.8146362 21.3553337 14.9653795 15.2662788 17.2927702 15.2662788 17.4865776 18.6607912 18.9610265 15.2662788 21.4752286 15.2662788 20.3014174 21.3553337"></polyline>
                        <path d="M30.4009578,20.860534 C29.8900626,20.9966181 29.3954283,21.063047 28.8729991,21.0619082 C27.2054991,21.0603898 26.3370528,20.297787 26.3370528,18.8399592 C26.3370528,17.1365347 27.4424168,15.8836872 28.9429589,15.8836872 C30.1706579,15.8836872 30.9543961,16.5861245 30.9543961,17.6865652 C30.9543961,18.0517339 30.9012646,18.4068434 30.7715554,18.9107534 L27.8063966,18.9107534 C27.7007007,19.6221111 28.2182137,19.9352755 29.0998956,19.9352755 C29.6279972,19.9352755 30.1058033,19.8399976 30.6346612,19.6260968 L30.4009578,20.860534 L30.4009578,20.860534 Z M29.6036058,17.9061599 C29.6036058,17.7985452 29.7684839,17.0342343 28.9106261,17.0175322 C28.4367906,17.0175322 28.0970132,17.3337333 27.9591736,17.9061599 L29.6036058,17.9061599 L29.6036058,17.9061599 Z" id="Fill-366" fill="#FFFFFF"></path>
                        <path d="M31.4059201,17.5717383 C31.4059201,18.2011039 31.7585551,18.6355483 32.5606341,18.9595311 C33.1742,19.2117708 33.2704419,19.2846527 33.2704419,19.5093719 C33.2704419,19.8221567 32.9994897,19.9652634 32.3984031,19.9616572 C31.9461228,19.9582409 31.5337385,19.9030101 31.0476128,19.7676851 L30.831872,20.9150056 C31.2646771,21.0161672 31.8714361,21.0491918 32.4084244,21.0619082 C34.0097463,21.0619082 34.7494288,20.5354124 34.7494288,19.3973919 C34.7494288,18.7137445 34.4408496,18.3111859 33.6803682,18.0116868 C33.0446799,17.75679 32.9699932,17.7011796 32.9699932,17.4709563 C32.9699932,17.1999267 33.2222264,17.0623242 33.7130791,17.0623242 C34.0108808,17.0623242 34.41816,17.0902243 34.8052075,17.1372938 L35.0220827,15.9833304 C34.6280392,15.92772 34.0303561,15.8842566 33.684528,15.8842566 C31.9877205,15.8842566 31.4006259,16.6504655 31.4059201,17.5717383" id="Fill-367" fill="#FFFFFF"></path>
                        <path d="M25.5241962,20.9795364 L24.2798581,20.9795364 L24.3099219,20.456457 C23.9304375,20.8686952 23.4254038,21.0607694 22.7396092,21.0607694 C21.9282652,21.0607694 21.3718016,20.5039061 21.3718016,19.7027746 C21.3718016,18.4854192 22.3383806,17.7829819 24.0000191,17.7829819 C24.1707587,17.7829819 24.387823,17.7960779 24.611316,17.8203718 C24.6574517,17.6577162 24.6697419,17.5880608 24.6697419,17.4994258 C24.6697419,17.1653837 24.4084328,17.0431547 23.7094025,17.0431547 C23.0198263,17.0460017 22.5546885,17.1486816 22.1232071,17.2652168 L22.3351662,16.1478841 C23.0818447,15.9573283 23.5702394,15.8836872 24.1236777,15.8836872 C25.4103698,15.8836872 26.0897357,16.3898748 26.0897357,17.3418946 C26.1008914,17.596222 26.0124018,18.1050668 25.9685351,18.3290268 C25.9176725,18.6533892 25.561256,20.5354124 25.5241962,20.9795364 L25.5241962,20.9795364 Z M24.4320678,18.7579671 C24.2747529,18.7416446 24.2059277,18.7374691 24.0977737,18.7374691 C23.2497481,18.7374691 22.8194011,18.9906578 22.8194011,19.4907718 C22.8194011,19.8056444 23.0296585,20.0024635 23.3563894,20.0024635 C23.9663628,20.0024635 24.406542,19.4900126 24.4320678,18.7579671 L24.4320678,18.7579671 Z" id="Fill-368" fill="#FFFFFF"></path>
                        <path d="M37.3702722,20.9005811 C36.9620476,21.0129406 36.6440144,21.0619082 36.2998881,21.0619082 C35.5378941,21.0619082 35.1221063,20.6707374 35.1221063,19.9745634 C35.097904,19.7832484 35.2841482,18.8995554 35.3263131,18.6533892 C35.3686671,18.4064638 36.0287468,14.8067813 36.0287468,14.8067813 L37.5090572,14.8067813 L37.2853751,15.9975652 L38.044722,15.9975652 L37.8382462,17.2132125 L37.0756849,17.2132125 C37.0756849,17.2132125 36.6568719,19.3231814 36.6568719,19.4837494 C36.6568719,19.7403544 36.8113505,19.850816 37.1658763,19.850816 C37.3352923,19.850816 37.466136,19.8356323 37.5678612,19.8048852 L37.3702722,20.9005811" id="Fill-369" fill="#FFFFFF"></path>
                        <path d="M44.7336301,18.0653993 C44.7336301,19.1884258 44.2749211,19.8530936 43.5501759,19.8530936 C43.0220744,19.8606854 42.7019613,19.4163716 42.7019613,18.750565 C42.7019613,17.9617703 43.1691789,17.0701058 43.9198281,17.0701058 C44.5258308,17.0701058 44.7336301,17.552379 44.7336301,18.0653993 L44.7336301,18.0653993 Z M46.3317377,18.0969055 C46.3317377,16.8541173 45.5181247,15.8836872 43.9858172,15.8836872 C42.2230206,15.8836872 41.0828658,17.0630834 41.0828658,18.8006713 C41.0828658,20.0442187 41.7552357,21.0619082 43.4259501,21.0619082 C45.1114128,21.0619082 46.3317377,20.1580967 46.3317377,18.0969055 L46.3317377,18.0969055 Z" id="Fill-370" fill="#FFFFFF"></path>
                        <path d="M38.689108,15.9969958 C38.500973,17.5379545 38.1678133,19.1001704 37.9076387,20.643976 L37.844864,20.9802956 L39.3401118,20.9802956 C39.8789909,17.9984011 40.0599409,17.1490612 41.1893181,17.4479909 L41.7325461,16.0372327 C40.944648,15.7470337 40.4377235,16.1615495 39.9788254,16.7506781 C40.020234,16.4855323 40.0981351,16.2294966 40.0794161,15.9969958 L38.689108,15.9969958" id="Fill-371" fill="#FFFFFF"></path>
                        <polyline id="Fill-372" fill="#FFFFFF" points="20.6752294 20.9802956 19.1862213 20.9802956 20.0711175 16.299152 18.033209 20.9802956 16.6756117 20.9802956 16.4273492 16.3264827 15.5394276 20.9802956 14.1884482 20.9802956 15.3390024 14.8910509 17.6665821 14.8910509 17.7894844 18.6607912 19.427866 14.8910509 21.8490405 14.8910509 20.6752294 20.9802956"></polyline>
                    </g>
                    <g id="MasterCard-dark" transform="translate(76.000000, 0.000000)">
                        <rect id="Rectangle" fill="#000066" x="0" y="0" width="60" height="36" rx="2.39999986"></rect>
                        <path d="M33.6771725,18.2912413 C33.6771725,24.7581947 28.4351822,30 21.9684138,30 C15.5014605,30 10.2591,24.7581947 10.2591,18.2912413 C10.2591,11.824473 15.5014605,6.5821125 21.9684138,6.5821125 C28.4351822,6.5821125 33.6771725,11.824473 33.6771725,18.2912413" id="Fill-333" fill="#CC0000"></path>
                        <path d="M37.6884637,6.5821125 C34.662324,6.5821125 31.9059723,7.72991392 29.8276061,9.61287816 C29.4047903,9.99665055 29.0101006,10.4111395 28.6457574,10.8524593 L31.0114903,10.8524593 C31.3345696,11.2458537 31.6322985,11.6594175 31.9041219,12.0925955 L27.7529407,12.0925955 C27.5046174,12.490616 27.2788689,12.9041798 27.0782859,13.3327318 L32.5784067,13.3327318 C32.766407,13.7340829 32.9318325,14.1474617 33.0743131,14.5723129 L26.5823794,14.5723129 C26.4473004,14.9760696 26.3333159,15.3898184 26.2422764,15.811709 L33.4140461,15.811709 C33.5857629,16.6110806 33.6771725,17.4404286 33.6771725,18.2912413 C33.6771725,19.5911454 33.4653021,20.842384 33.0743131,22.0109099 L26.5823794,22.0109099 C26.72486,22.435391 26.8902855,22.8493248 27.0779158,23.2512311 L32.5784067,23.2512311 C32.3774535,23.6786729 32.1528153,24.0926068 31.9030117,24.4911823 L27.7529407,24.4911823 C28.0236538,24.9230651 28.3219378,25.337184 28.6457574,25.7300233 L31.0107501,25.7300233 C30.647147,26.1717131 30.2520872,26.5862021 29.8279762,26.9699745 C31.9061573,28.8529387 34.662324,30 37.6884637,30 C44.155047,30 49.3972224,24.7581947 49.3972224,18.2912413 C49.3972224,11.8250281 44.155047,6.5821125 37.6884637,6.5821125" id="Fill-334" fill="#FF9900"></path>
                        <path d="M19.2340818,19.5731965 C19.1006682,19.5580232 19.0418255,19.5532122 18.9502309,19.5532122 C18.2296862,19.5532122 17.865343,19.8004253 17.865343,20.2887451 C17.865343,20.5894347 18.0431661,20.7805807 18.3207257,20.7805807 C18.8386519,20.7805807 19.211877,20.2876349 19.2340818,19.5731965 L19.2340818,19.5731965 Z M20.1587253,21.7253936 L19.1051091,21.7253936 L19.1293493,21.2248611 C18.8081204,21.620106 18.3793833,21.8088465 17.7970633,21.8088465 C17.1083454,21.8088465 16.635939,21.271121 16.635939,20.4896983 C16.635939,19.3134007 17.4573304,18.6274585 18.8675181,18.6274585 C19.0120341,18.6274585 19.1967038,18.6407813 19.3858144,18.6646515 C19.4250428,18.5051472 19.435405,18.4374227 19.435405,18.3513792 C19.435405,18.0316306 19.2140975,17.9117248 18.620305,17.9117248 C17.9983865,17.9054335 17.4854564,18.0603117 17.2746962,18.1295166 C17.288019,18.0492093 17.451039,17.0431483 17.451039,17.0431483 C18.084245,16.8569984 18.5020647,16.7874234 18.9722506,16.7874234 C20.063985,16.7874234 20.6422341,17.2774086 20.6409388,18.2037175 C20.6431593,18.4522259 20.6018955,18.7577264 20.5380568,19.160743 C20.4277731,19.8601931 20.1909222,21.3603102 20.1587253,21.7253936 L20.1587253,21.7253936 Z" id="Fill-336" fill="#000066"></path>
                        <polyline id="Fill-337" fill="#000066" points="16.1039498 21.7253936 14.8325419 21.7253936 15.5612283 17.1600934 13.9349141 21.7253936 13.0687432 21.7253936 12.9616052 17.1856289 12.1962809 21.7253936 11.0064755 21.7253936 12.0003238 15.7861735 13.8283313 15.7861735 13.9388 19.1105972 15.0540344 15.7861735 17.0870659 15.7861735 16.1039498 21.7253936"></polyline>
                        <path d="M39.2590809,19.5731965 C39.1256673,19.5580232 39.0675648,19.5532122 38.9761552,19.5532122 C38.2550554,19.5532122 37.8910822,19.8004253 37.8910822,20.2887451 C37.8910822,20.5894347 38.0681652,20.7805807 38.346465,20.7805807 C38.8640211,20.7805807 39.2374313,20.2876349 39.2590809,19.5731965 L39.2590809,19.5731965 Z M40.1842795,21.7253936 L39.1310334,21.7253936 L39.1549035,21.2248611 C38.8336746,21.620106 38.4051226,21.8088465 37.8231726,21.8088465 C37.1335296,21.8088465 36.6616783,21.271121 36.6616783,20.4896983 C36.6616783,19.3134007 37.4834397,18.6274585 38.8932574,18.6274585 C39.0375883,18.6274585 39.2218879,18.6407813 39.4111836,18.6646515 C39.450597,18.5051472 39.4607742,18.4374227 39.4607742,18.3513792 C39.4607742,18.0316306 39.2394667,17.9117248 38.6456742,17.9117248 C38.0237557,17.9054335 37.5110106,18.0603117 37.2995102,18.1295166 C37.3135732,18.0492093 37.4769633,17.0431483 37.4769633,17.0431483 C38.1097992,16.8569984 38.5279889,16.7874234 38.9974347,16.7874234 C40.0899093,16.7874234 40.6674183,17.2774086 40.666308,18.2037175 C40.6685285,18.4522259 40.6276347,18.7577264 40.5634259,19.160743 C40.4535123,19.8601931 40.2161064,21.3603102 40.1842795,21.7253936 L40.1842795,21.7253936 Z" id="Fill-338" fill="#000066"></path>
                        <path d="M25.8079881,21.6519328 C25.4599284,21.7614763 25.1888452,21.8088465 24.894632,21.8088465 C24.2449576,21.8088465 23.8902364,21.4354363 23.8902364,20.7476436 C23.8811695,20.5341078 23.9836815,19.9725122 24.0643588,19.4603223 C24.1380046,19.0090104 24.6157772,16.1642096 24.6157772,16.1642096 L25.8790434,16.1642096 L25.7315667,16.8953016 L26.4948556,16.8953016 L26.3225836,18.0562408 L25.5567042,18.0562408 C25.4099677,18.974593 25.2006878,20.1188787 25.1982822,20.2706112 C25.1982822,20.5196747 25.3311408,20.6284781 25.6336807,20.6284781 C25.7785668,20.6284781 25.8907009,20.6136749 25.9763743,20.5829583 L25.8079881,21.6519328" id="Fill-339" fill="#000066"></path>
                        <path d="M29.6819798,21.6128894 C29.2478766,21.7455629 28.8295018,21.8103268 28.3855915,21.8088465 C26.9709628,21.8069961 26.2335795,21.0686876 26.2335795,19.6540589 C26.2335795,18.0031344 27.1715459,16.7874234 28.4451743,16.7874234 C29.4867629,16.7874234 30.1523508,17.4679996 30.1523508,18.5349386 C30.1523508,18.8896598 30.106831,19.235314 29.9963623,19.7230787 L27.4801921,19.7230787 C27.3952589,20.4238241 27.8434251,20.7156318 28.578958,20.7156318 C29.03064,20.7156318 29.4388376,20.6223718 29.89237,20.4119816 L29.6819798,21.6128894 L29.6819798,21.6128894 Z M28.9717974,18.7495847 C28.9790139,18.648738 29.1055811,17.8872996 28.383371,17.8872996 C27.9814648,17.8872996 27.6933579,18.1940954 27.5765978,18.7495847 L28.9717974,18.7495847 L28.9717974,18.7495847 Z" id="Fill-340" fill="#000066"></path>
                        <path d="M20.921089,18.4224345 C20.921089,19.0328805 21.2171525,19.454216 21.8888467,19.7708189 C22.4034422,20.0130359 22.4835644,20.0846463 22.4835644,20.3039184 C22.4835644,20.6046079 22.2563356,20.7411673 21.7535827,20.7411673 C21.3740662,20.7411673 21.0213805,20.6815845 20.6144782,20.5500212 C20.6144782,20.5500212 20.4477574,21.6151099 20.4398007,21.6659958 C20.7286477,21.7285392 20.986223,21.7868267 21.7626497,21.8088465 C23.1038176,21.8088465 23.7233306,21.2981368 23.7233306,20.1943749 C23.7233306,19.5308224 23.464275,19.1413138 22.8273682,18.8482109 C22.2946389,18.6037734 22.2330206,18.5490016 22.2330206,18.3236232 C22.2330206,18.0625322 22.444521,17.9291185 22.8551242,17.9291185 C23.1047428,17.9291185 23.4454009,17.9557643 23.7686653,18.0014691 L23.9494491,16.8812386 C23.6204485,16.8288723 23.1212113,16.7874234 22.830699,16.7874234 C21.4088537,16.7874234 20.916463,17.5299879 20.921089,18.4224345" id="Fill-341" fill="#000066"></path>
                        <path d="M35.8643421,16.9149158 C36.2173979,16.9149158 36.5471387,17.0066955 37.000301,17.2355897 L37.2084707,15.9466029 C37.0215805,15.8733272 36.3663549,15.44385 35.8112357,15.44385 C34.9607931,15.44385 34.2409886,15.8664807 33.7356451,16.5624151 C32.9977067,16.3181627 32.6940565,16.8118487 32.3224967,17.3040544 L31.9922008,17.3810309 C32.0171812,17.2191211 32.039941,17.0583216 32.0327245,16.8953016 L30.8647538,16.8953016 C30.7056196,18.3906076 30.4230639,19.9046027 30.2019415,21.4004638 L30.144024,21.7253936 L31.4158021,21.7253936 C31.6280426,20.3461074 31.7440625,19.4632829 31.8147477,18.8652345 L32.2936305,18.5998876 C32.365611,18.3332453 32.5889539,18.2436861 33.0382304,18.2546034 C32.9795728,18.569541 32.9477459,18.9013173 32.9477459,19.244566 C32.9477459,20.8249903 33.8015192,21.8088465 35.1693329,21.8088465 C35.5218336,21.8088465 35.8245586,21.7625865 36.2932642,21.6349091 L36.516052,20.2815286 C36.0945315,20.488588 35.7494324,20.586104 35.4365303,20.586104 C34.6974816,20.586104 34.2502406,20.0404218 34.2502406,19.1390933 C34.2502406,17.8310475 34.9149033,16.9149158 35.8643421,16.9149158" id="Fill-342" fill="#000066"></path>
                        <path d="M46.6266226,15.7861735 L46.344067,17.5020469 C45.9971175,17.0448137 45.6237073,16.7135926 45.1307615,16.7135926 C44.4894138,16.7135926 43.9056134,17.199877 43.5233214,17.9159807 C42.9909621,17.805512 42.440839,17.6176967 42.440839,17.6176967 L42.4404689,17.6223227 C42.482843,17.2220818 42.5007919,16.9785695 42.4965359,16.8953016 L41.3287502,16.8953016 C41.1701712,18.3906076 40.8872454,19.9046027 40.666308,21.4004638 L40.6078355,21.7253936 L41.8799836,21.7253936 C42.0517004,20.6107142 42.1828936,19.6840353 42.2796694,18.9501678 C42.7145127,18.5571434 42.9321195,18.215375 43.3704786,18.2375798 C43.1760018,18.7079508 43.0625725,19.249377 43.0625725,19.8048662 C43.0625725,21.0118804 43.6728335,21.8088465 44.5972919,21.8088465 C45.063222,21.8088465 45.4207187,21.6480469 45.7693336,21.275747 L45.7093807,21.7250235 L46.9121389,21.7250235 L47.8804518,15.7861735 L46.6266226,15.7861735 L46.6266226,15.7861735 Z M45.0369463,20.609604 C44.6043235,20.609604 44.3852364,20.2887451 44.3852364,19.6573896 C44.3852364,18.7079508 44.7947293,18.0349613 45.3711281,18.0349613 C45.8080069,18.0349613 46.0448577,18.3672926 46.0448577,18.9808843 C46.0448577,19.9384649 45.6285183,20.609604 45.0369463,20.609604 L45.0369463,20.609604 Z" id="Fill-343" fill="#000066"></path>
                        <polyline id="Fill-344" fill="#FFFFFF" points="16.4695883 21.3728929 15.1985504 21.3728929 15.9270518 16.8075928 14.3011078 21.3728929 13.4345667 21.3728929 13.3276138 16.8340535 12.5621044 21.3728929 11.372299 21.3728929 12.3661474 15.4342279 14.1941548 15.4342279 14.2452258 19.1105972 15.4787006 15.4342279 17.4528894 15.4342279 16.4695883 21.3728929"></polyline>
                        <path d="M19.5999053,19.221436 C19.4666767,19.2058927 19.4078341,19.2016367 19.3162394,19.2016367 C18.5956948,19.2016367 18.2311665,19.4484797 18.2311665,19.9364295 C18.2311665,20.236749 18.4091747,20.4290052 18.6869193,20.4290052 C19.2046605,20.4290052 19.5778856,19.9360594 19.5999053,19.221436 L19.5999053,19.221436 Z M20.5243638,21.3728929 L19.4713027,21.3728929 L19.4953579,20.8727305 C19.1741289,21.2677903 18.7453919,21.4567159 18.1630719,21.4567159 C17.474169,21.4567159 17.0019476,20.9182503 17.0019476,20.1370126 C17.0019476,18.96053 17.823524,18.2755129 19.2337117,18.2755129 C19.3778577,18.2755129 19.5625273,18.2886507 19.751823,18.313076 C19.7910514,18.1532017 19.8014136,18.0852921 19.8014136,17.9988785 C19.8014136,17.6793149 19.5801061,17.5603344 18.9863136,17.5603344 C18.3642101,17.5529328 17.851465,17.707811 17.6405197,17.7768309 C17.6540276,17.6968937 17.8168625,16.6908327 17.8168625,16.6908327 C18.4502535,16.5050528 18.8680732,16.4349228 19.3382592,16.4349228 C20.4298085,16.4349228 21.0078726,16.9254631 21.0069474,17.8514019 C21.0089829,18.0995401 20.9680891,18.406521 20.9040653,18.8084273 C20.7935966,19.5073224 20.5567458,21.0083646 20.5243638,21.3728929 L20.5243638,21.3728929 Z" id="Fill-345" fill="#FFFFFF"></path>
                        <path d="M37.5741092,15.5941023 L37.3659395,16.8829039 C36.912037,16.65475 36.5832214,16.5624151 36.2305357,16.5624151 C35.281467,16.5624151 34.615694,17.4796571 34.615694,18.7878879 C34.615694,19.6892164 35.0631201,20.2337883 35.8021687,20.2337883 C36.115256,20.2337883 36.4610952,20.1370126 36.8816905,19.9292129 L36.6583476,21.2825935 C36.1903821,21.4100859 35.8874721,21.4567159 35.5351564,21.4567159 C34.1664176,21.4567159 33.3139396,20.4726746 33.3139396,18.8926204 C33.3139396,16.7694746 34.4924576,15.285641 36.1770592,15.285641 C36.7321784,15.285641 37.3877742,15.5208265 37.5741092,15.5941023" id="Fill-346" fill="#FFFFFF"></path>
                        <path d="M39.6247194,19.221436 C39.492231,19.2058927 39.4332033,19.2016367 39.3417937,19.2016367 C38.621619,19.2016367 38.2569057,19.4484797 38.2569057,19.9364295 C38.2569057,20.236749 38.4347289,20.4290052 38.7122885,20.4290052 C39.2298446,20.4290052 39.6034398,19.9360594 39.6247194,19.221436 L39.6247194,19.221436 Z M40.549918,21.3728929 L39.4968569,21.3728929 L39.5207271,20.8727305 C39.1994981,21.2677903 38.7707611,21.4567159 38.1889962,21.4567159 C37.4993531,21.4567159 37.0276869,20.9182503 37.0276869,20.1370126 C37.0276869,18.96053 37.8485231,18.2755129 39.2590809,18.2755129 C39.4032268,18.2755129 39.5875264,18.2886507 39.776637,18.313076 C39.8160505,18.1532017 39.8264127,18.0852921 39.8264127,17.9988785 C39.8264127,17.6793149 39.6056603,17.5603344 39.0114977,17.5603344 C38.3899493,17.5529328 37.8773893,17.707811 37.6660739,17.7768309 C37.6793968,17.6968937 37.8424168,16.6908327 37.8424168,16.6908327 C38.4758077,16.5050528 38.8932574,16.4349228 39.3634433,16.4349228 C40.4549926,16.4349228 41.0336119,16.9254631 41.0321316,17.8514019 C41.0347221,18.0995401 40.9934582,18.406521 40.9294345,18.8084273 C40.8193359,19.5073224 40.582485,21.0083646 40.549918,21.3728929 L40.549918,21.3728929 Z" id="Fill-347" fill="#FFFFFF"></path>
                        <path d="M26.1736266,21.2996171 C25.825937,21.4091607 25.5544837,21.4567159 25.2606406,21.4567159 C24.6107811,21.4567159 24.2558749,21.0831207 24.2558749,20.3960682 C24.246993,20.1817922 24.3496901,19.6211218 24.4305524,19.1083767 C24.5036431,18.6566947 24.9816007,15.8122641 24.9816007,15.8122641 L26.245237,15.8122641 L26.0973903,16.543171 L26.7461395,16.543171 L26.5733124,17.7037402 L25.9225277,17.7037402 C25.7757912,18.6230175 25.5665113,19.766563 25.5639207,19.9182956 C25.5639207,20.1680992 25.6973344,20.2761624 25.9995043,20.2761624 C26.1443904,20.2761624 26.2563394,20.2619144 26.3423829,20.2304576 L26.1736266,21.2996171" id="Fill-348" fill="#FFFFFF"></path>
                        <path d="M30.0483585,21.2613139 C29.6140702,21.3943575 29.1947702,21.457086 28.751415,21.4567159 C27.3366013,21.4557907 26.5997731,20.716557 26.5997731,19.3021133 C26.5997731,17.6506338 27.5375544,16.4349228 28.8102577,16.4349228 C29.8529565,16.4349228 30.5181743,17.1154989 30.5181743,18.1837332 C30.5181743,18.5377142 30.4719144,18.8831834 30.362741,19.3711331 L27.8462007,19.3711331 C27.7608974,20.0718786 28.2096187,20.3642413 28.9444115,20.3642413 C29.3964635,20.3642413 29.8044761,20.2706112 30.2585636,20.0596659 L30.0483585,21.2613139 L30.0483585,21.2613139 Z M29.337991,18.397084 C29.3448374,18.2960523 29.4719597,17.5349839 28.7499347,17.5349839 C28.3476584,17.5349839 28.0595515,17.8423349 27.9424214,18.397084 L29.337991,18.397084 L29.337991,18.397084 Z" id="Fill-349" fill="#FFFFFF"></path>
                        <path d="M21.2867275,18.0699338 C21.2867275,18.6814901 21.5831611,19.1019003 22.2550404,19.4188734 C22.7696358,19.6609053 22.849388,19.7325157 22.849388,19.9519728 C22.849388,20.2530325 22.6223442,20.3888516 22.1192212,20.3888516 C21.7400748,20.3888516 21.3872041,20.330009 20.9801167,20.1988158 C20.9801167,20.1988158 20.8135809,21.2631643 20.8058092,21.3133101 C21.0944712,21.3765937 21.3522315,21.4343261 22.1282882,21.4567159 C23.4698262,21.4567159 24.0893392,20.9461913 24.0893392,19.8424293 C24.0893392,19.1785068 23.8299135,18.7891832 23.1931918,18.4968204 C22.6602774,18.2516428 22.5990292,18.1974261 22.5990292,17.9716777 C22.5990292,17.7105866 22.8103446,17.5762478 23.2213178,17.5762478 C23.4703813,17.5762478 23.8114095,17.6040037 24.1344889,17.6495235 L24.3154577,16.5294781 C23.986272,16.4774819 23.4874049,16.4349228 23.1967075,16.4349228 C21.7744922,16.4349228 21.2824716,17.1776722 21.2867275,18.0699338" id="Fill-350" fill="#FFFFFF"></path>
                        <path d="M47.2779624,21.3728929 L46.0755743,21.3728929 L46.1351571,20.9234314 C45.7863572,21.2959164 45.4290455,21.4567159 44.9631155,21.4567159 C44.0393972,21.4567159 43.428211,20.660675 43.428211,19.4523656 C43.428211,17.8458507 44.3757994,16.49173 45.496585,16.49173 C45.9895308,16.49173 46.362756,16.6930532 46.7104456,17.1504714 L46.9924461,15.4342279 L48.2460903,15.4342279 L47.2779624,21.3728929 L47.2779624,21.3728929 Z M45.4025848,20.2569183 C45.994897,20.2569183 46.4104962,19.5861493 46.4104962,18.6294939 C46.4104962,18.0157171 46.1738304,17.6822756 45.7369516,17.6822756 C45.1603678,17.6822756 44.75106,18.3554501 44.75106,19.305259 C44.75106,19.9373547 44.970332,20.2569183 45.4025848,20.2569183 L45.4025848,20.2569183 Z" id="Fill-351" fill="#FFFFFF"></path>
                        <path d="M41.6949438,16.543171 C41.5359947,18.0381069 41.253254,19.552102 41.0321316,21.0481482 L40.9742141,21.3728929 L42.2456221,21.3728929 C42.7004497,18.4192888 42.8098082,17.84289 43.5233214,17.9148705 C43.6367507,17.3103457 43.8482511,16.780947 44.0057199,16.5141198 C43.4733606,16.4030959 43.1760018,16.7039705 42.7863081,17.2757433 C42.8173948,17.0283452 42.8734619,16.7883486 42.8629146,16.543171 L41.6949438,16.543171" id="Fill-352" fill="#FFFFFF"></path>
                        <path d="M31.2311324,16.543171 C31.0714431,18.0381069 30.7883323,19.552102 30.56758,21.0481482 L30.5098476,21.3728929 L31.7816256,21.3728929 C32.2366383,18.4192888 32.3456267,17.84289 33.0580296,17.9148705 C33.1721991,17.3103457 33.3840696,16.780947 33.5411683,16.5141198 C33.0093642,16.4030959 32.7114502,16.7039705 32.3224967,17.2757433 C32.3532133,17.0283452 32.4096504,16.7883486 32.398548,16.543171 L31.2311324,16.543171" id="Fill-353" fill="#FFFFFF"></path>
                    </g>
                    <g id="Visa-dark">
                        <rect id="Rectangle" fill="#26337A" x="0" y="0" width="60" height="36" rx="2.39999986"></rect>
                        <polyline id="Fill-3" fill="#FFFFFF" points="24.8939945 23.7280563 26.7388369 12.2836056 29.6877512 12.2836056 27.8430774 23.7280563 24.8939945 23.7280563"></polyline>
                        <path d="M38.5397226,12.564507 C37.9566525,12.3348169 37.0396286,12.084338 35.89727,12.084338 C32.9817512,12.084338 30.9294525,13.6374085 30.9124175,15.8612958 C30.8938645,17.5063099 32.3769235,18.4237183 33.4949945,18.9704789 C34.6440995,19.5309296 35.0301705,19.8895775 35.0256166,20.3907042 C35.0176894,21.1571831 34.108424,21.5083944 33.2605521,21.5083944 C32.0799069,21.5083944 31.452647,21.335493 30.4828313,20.9082254 L30.1035069,20.7260282 L29.6911244,23.2877746 C30.3787659,23.6065352 31.6535253,23.8832113 32.9765226,23.8977465 C36.0750415,23.8977465 38.0883788,22.3634366 38.1119917,19.9886197 C38.1226175,18.684169 37.3368138,17.6954366 35.6349982,16.8790986 C34.6044636,16.3483944 33.9719751,15.9968451 33.9792276,15.4597183 C33.9799023,14.9841127 34.5135539,14.4748732 35.6685622,14.4748732 C36.6331493,14.4593239 37.3314166,14.6820845 37.8755253,14.9146479 L38.1403272,15.0454648 L38.5397226,12.564507" id="Fill-4" fill="#FFFFFF"></path>
                        <path d="M42.4663797,19.6705352 C42.7107733,19.0127324 43.6411217,16.4716056 43.6411217,16.4716056 C43.623918,16.5018592 43.8841659,15.8087324 44.0330959,15.3797746 L44.2321189,16.3668169 C44.2321189,16.3668169 44.7979853,19.0984225 44.9145318,19.6705352 L42.4663797,19.6705352 L42.4663797,19.6705352 Z M46.1044535,12.2952676 L43.825471,12.2952676 C43.1186018,12.2952676 42.5895041,12.4977465 42.2798378,13.2439437 L37.9004876,23.7321127 L40.9978258,23.7321127 C40.9978258,23.7321127 41.5031419,22.3211831 41.6178332,22.0115493 C41.9556664,22.0115493 44.9652995,22.0174648 45.3948857,22.0174648 C45.4832654,22.4168451 45.7539705,23.7321127 45.7539705,23.7321127 L48.4910433,23.7321127 L46.1044535,12.2952676 L46.1044535,12.2952676 Z" id="Fill-5" fill="#FFFFFF"></path>
                        <path d="M22.4200369,12.2932394 L19.5336968,20.0956056 L19.2245364,18.5095775 C18.6866682,16.6821972 17.0123447,14.7015211 15.1395041,13.7090704 L17.7801014,23.7180845 L20.9010525,23.7162254 L25.5450359,12.2932394 L22.4200369,12.2932394" id="Fill-6" fill="#FFFFFF"></path>
                        <path d="M16.8543069,12.2854648 L12.0988369,12.2854648 L12.0597069,12.5225915 C15.7600175,13.4705915 18.2083382,15.7588732 19.2245364,18.5095775 L18.1911346,13.2510423 C18.0128571,12.5258028 17.4947226,12.3108169 16.8543069,12.2854648" id="Fill-7" fill="#ED982D"></path>
                    </g>
                </g>
            </g>
        </g>
    </g>
</svg>