<?xml version="1.0" encoding="UTF-8"?>
<svg width="24px" height="20px" viewBox="0 0 24 20" version="1.1" xmlns="http://www.w3.org/2000/svg" xmlns:xlink="http://www.w3.org/1999/xlink">
    <!-- Generator: Sketch 42 (36781) - http://www.bohemiancoding.com/sketch -->
    <title>20:20</title>
    <desc>Created with Sketch.</desc>
    <defs></defs>
    <g id="Page-1" stroke="none" stroke-width="1" fill="none" fill-rule="evenodd">
        <g id="6Deals" transform="translate(-1760.000000, -167.000000)" stroke-width="2" stroke="#262B2F" fill="#262B2F">
            <g id="Group-9" transform="translate(120.000000, 142.000000)">
                <g id="Group">
                    <path d="M1658.29565,38.89256 C1657.33238,38.565855 1656.35929,38.0001927 1655.71103,37.5850172 C1654.92941,37.0842623 1654.62654,36.3518504 1654.52423,35.463314 C1655.17994,34.8086752 1655.50259,34.1180411 1655.59342,33.7438482 C1655.78886,32.9364821 1656.12674,29.7788638 1656.04336,28.7816184 C1655.95946,27.7848791 1654.73238,26.5997061 1653.64276,26.2675078 C1652.88021,26.0348389 1652.37734,26 1652.14436,26 C1652.06422,26 1652.01614,26.0040477 1652.00011,26.0057824 C1651.98437,26.0040477 1651.936,26 1651.85571,26 C1651.6228,26 1651.12037,26.0348389 1650.35753,26.2675078 C1649.26791,26.5997783 1648.04112,27.7848791 1647.95737,28.7816184 C1647.87347,29.7788638 1648.21129,32.9364821 1648.40709,33.7438482 C1648.49741,34.1180411 1648.82021,34.8086029 1649.47613,35.463314 C1649.3739,36.3518504 1649.0711,37.0842623 1648.28897,37.5850172 C1646.63556,38.64464 1642.86768,39.3474172 1642.54235,40.7985078 C1642.21681,42.2493093 1642,44 1642,44 L1650.30172,44 L1651.99715,44 L1653.04135,44 L1653.62681,44 L1662,44 C1662,44 1661.78341,42.2493093 1661.45779,40.7985078 C1661.26018,39.9160429 1659.78972,39.3998924 1658.29565,38.89256 Z" id="20:20"></path>
                </g>
            </g>
        </g>
    </g>
</svg>