<?xml version="1.0" encoding="UTF-8"?>
<svg width="24px" height="21px" viewBox="0 0 24 21" version="1.1" xmlns="http://www.w3.org/2000/svg" xmlns:xlink="http://www.w3.org/1999/xlink">
    <!-- Generator: Sketch 42 (36781) - http://www.bohemiancoding.com/sketch -->
    <title>Shape</title>
    <desc>Created with Sketch.</desc>
    <defs></defs>
    <g id="Page-1" stroke="none" stroke-width="1" fill="none" fill-rule="evenodd">
        <g id="6Deals" transform="translate(-1675.000000, -167.000000)" fill="#262B2F">
            <g id="Group-9" transform="translate(120.000000, 142.000000)">
                <g id="Group">
                    <path d="M1555,25.1768786 L1555,27.1303767 L1558,27.1303767 C1559.14806,31.8543023 1560.34235,36.5666047 1561.48,41.2931674 L1575.50502,41.2931674 C1576.69859,37.0559047 1577.95461,32.6738884 1579,29.0380558 L1560.44502,29.0380558 C1560.13014,27.7509512 1559.81618,26.4636414 1559.5,25.1768786 L1555,25.1768786 L1555,25.1768786 Z M1560.92502,30.9915442 L1576.45,30.9915442 L1574.05,39.3396791 L1562.98,39.3396791 L1560.92502,30.9915442 L1560.92502,30.9915442 Z M1564.6,41.7815395 C1563.53963,41.7815395 1562.68,42.6561163 1562.68,43.7350279 C1562.68,44.8138907 1563.53963,45.6885163 1564.6,45.6885163 C1565.66037,45.6885163 1566.52,44.8138907 1566.52,43.7350279 C1566.52,42.6561163 1565.66037,41.7815395 1564.6,41.7815395 Z M1572.76,41.7815395 C1571.69963,41.7815395 1570.84,42.6561163 1570.84,43.7350279 C1570.84,44.8138907 1571.69963,45.6885163 1572.76,45.6885163 C1573.82037,45.6885163 1574.68,44.8138907 1574.68,43.7350279 C1574.68,42.6561163 1573.82037,41.7815395 1572.76,41.7815395 Z" id="Shape"></path>
                </g>
            </g>
        </g>
    </g>
</svg>