<?xml version="1.0" encoding="UTF-8"?>
<svg width="130px" height="79px" viewBox="0 0 130 79" version="1.1" xmlns="http://www.w3.org/2000/svg" xmlns:xlink="http://www.w3.org/1999/xlink">
    <!-- Generator: Sketch 42 (36781) - http://www.bohemiancoding.com/sketch -->
    <title>Logo</title>
    <desc>Created with Sketch.</desc>
    <defs></defs>
    <g id="Page-1" stroke="none" stroke-width="1" fill="none" fill-rule="evenodd">
        <g id="6Deals" transform="translate(-1285.000000, -5045.000000)">
            <g id="Group-9" transform="translate(120.000000, 142.000000)">
                <g id="Logo" transform="translate(1165.000000, 4903.000000)">
                    <path d="M26.65,78.9185567 C12.025,78.9185567 0.1625,67.0278351 0.1625,52.3680412 C0.1625,37.7082474 12.025,25.8175258 26.65,25.8175258 C29.16875,25.8175258 30.79375,25.8175258 33.39375,26.7134021 C34.45,27.0391753 35.1,28.1793814 34.775,29.3195876 C34.45,30.3783505 33.3125,31.0298969 32.175,30.7041237 C30.14375,30.0525773 29.16875,30.0525773 26.65,30.0525773 C14.3,30.0525773 4.225,40.1515464 4.225,52.4494845 C4.225,64.828866 14.3,74.8463918 26.65,74.8463918 C31.11875,74.8463918 35.425,73.543299 39.08125,71.1 L39.73125,70.6113402 L49.80625,72.4030928 L46.39375,62.9556701 L46.8,62.1412371 C48.2625,59.1278351 48.99375,55.7886598 48.99375,52.3680412 C48.99375,47.0742268 47.85625,43.3278351 45.09375,39.6628866 C44.3625,38.7670103 44.60625,37.4639175 45.5,36.8123711 C46.39375,36.1608247 47.69375,36.3237113 48.425,37.2195876 C51.75625,41.5360825 53.21875,46.2597938 53.21875,52.3680412 C53.21875,56.114433 52.4875,59.6979381 50.94375,63.1185567 L56.225,77.6969072 L40.625,74.9278351 C36.48125,77.5340206 31.60625,78.9185567 26.65,78.9185567" id="Fill-1" fill="#3C3D3B"></path>
                    <polyline id="Fill-2" fill="#1A1918" points="63.375 44.3865979 65.4875 54.1597938 66.05625 54.1597938 68.25 44.5494845 68.81875 44.5494845 71.09375 54.1597938 71.6625 54.1597938 73.69375 44.3865979 74.18125 44.3865979 72.06875 54.6484536 70.6875 54.6484536 68.575 45.2010309 66.54375 54.6484536 65.1625 54.6484536 62.96875 44.3865979 63.375 44.3865979"></polyline>
                    <path d="M81.0875,54.1597938 L81.0875,54.6484536 C81.0875,54.6484536 79.54375,54.8113402 78.4875,54.8113402 C76.45625,54.8113402 75.80625,53.2639175 75.80625,50.9835052 C75.80625,48.214433 77.025,47.1556701 78.73125,47.1556701 C80.35625,47.1556701 81.4125,48.1329897 81.4125,50.657732 L81.4125,51.1463918 L76.375,51.1463918 C76.375,52.856701 76.8625,54.2412371 78.56875,54.2412371 C79.54375,54.3226804 81.0875,54.1597938 81.0875,54.1597938 L81.0875,54.1597938 Z M80.84375,50.7391753 C80.84375,48.4587629 80.03125,47.6443299 78.65,47.6443299 C77.35,47.6443299 76.29375,48.4587629 76.29375,50.7391753 L80.84375,50.7391753 L80.84375,50.7391753 Z" id="Fill-3" fill="#1A1918"></path>
                    <path d="M89.2125,50.8206186 C89.2125,53.1010309 88.5625,54.8113402 85.88125,54.8113402 C84.90625,54.8113402 83.85,54.6484536 83.85,54.6484536 L83.85,43.9793814 L84.3375,43.9793814 L84.3375,47.8072165 C84.3375,47.8072165 85.39375,47.2371134 86.69375,47.2371134 C88.725,47.1556701 89.2125,48.7845361 89.2125,50.8206186 L89.2125,50.8206186 Z M88.725,50.9020619 C88.725,49.1103093 88.4,47.7257732 86.775,47.7257732 C85.475,47.7257732 84.41875,48.2958763 84.41875,48.2958763 L84.41875,54.3226804 C84.41875,54.3226804 85.39375,54.4041237 85.88125,54.4041237 C88.31875,54.3226804 88.725,52.7752577 88.725,50.9020619 L88.725,50.9020619 Z" id="Fill-4" fill="#1A1918"></path>
                    <polyline id="Fill-5" fill="#1A1918" points="91.24375 47.3185567 93.03125 54.1597938 93.35625 54.1597938 95.30625 47.4 95.875 47.4 97.825 54.1597938 98.15 54.1597938 99.9375 47.3185567 100.50625 47.3185567 98.55625 54.6484536 97.5 54.6484536 95.63125 48.0515464 93.7625 54.6484536 92.625 54.6484536 90.75625 47.3185567 91.24375 47.3185567"></polyline>
                    <path d="M102.5375,44.3865979 L103.025,44.3865979 L103.025,45.2010309 L102.5375,45.2010309 L102.5375,44.3865979 Z M102.5375,47.3185567 L103.025,47.3185567 L103.025,54.6484536 L102.5375,54.6484536 L102.5375,47.3185567 Z" id="Fill-6" fill="#1A1918"></path>
                    <path d="M105.95,54.6484536 L105.95,47.3185567 L106.4375,47.3185567 L106.4375,47.8886598 C106.4375,47.8886598 107.575,47.1556701 108.875,47.1556701 C110.825,47.1556701 111.23125,48.1329897 111.23125,50.8206186 L111.23125,54.6484536 L110.74375,54.6484536 L110.74375,50.8206186 C110.74375,48.4587629 110.5,47.5628866 108.875,47.5628866 C107.575,47.5628866 106.4375,48.2958763 106.4375,48.2958763 L106.4375,54.5670103 L105.95,54.5670103" id="Fill-7" fill="#1A1918"></path>
                    <polyline id="Fill-8" fill="#1A1918" points="114.31875 54.6484536 114.31875 43.9793814 114.80625 43.9793814 114.80625 50.4134021 116.10625 50.4134021 118.70625 47.3185567 119.275 47.3185567 116.5125 50.657732 119.275 54.6484536 118.70625 54.6484536 116.10625 50.9020619 114.80625 50.9020619 114.80625 54.6484536 114.31875 54.6484536"></polyline>
                    <path d="M125.9375,54.1597938 L125.9375,54.6484536 C125.9375,54.6484536 124.39375,54.8113402 123.3375,54.8113402 C121.30625,54.8113402 120.65625,53.2639175 120.65625,50.9835052 C120.65625,48.214433 121.875,47.1556701 123.58125,47.1556701 C125.20625,47.1556701 126.2625,48.1329897 126.2625,50.657732 L126.2625,51.1463918 L121.225,51.1463918 C121.225,52.856701 121.7125,54.2412371 123.41875,54.2412371 C124.39375,54.3226804 125.9375,54.1597938 125.9375,54.1597938 L125.9375,54.1597938 Z M125.69375,50.7391753 C125.69375,48.4587629 124.88125,47.6443299 123.5,47.6443299 C122.2,47.6443299 121.14375,48.4587629 121.14375,50.7391753 L125.69375,50.7391753 L125.69375,50.7391753 Z" id="Fill-9" fill="#1A1918"></path>
                    <polygon id="Fill-10" fill="#1A1918" points="128.45625 43.9793814 128.94375 43.9793814 128.94375 54.7298969 128.45625 54.7298969"></polygon>
                    <polyline id="Fill-11" fill="#767E81" points="65.4875 37.871134 67.35625 36.8938144 67.03125 38.9298969 68.575 40.3958763 66.4625 40.7216495 65.56875 42.5948454 64.59375 40.7216495 62.48125 40.3958763 64.025 38.9298969 63.7 36.8938144 65.4875 37.871134"></polyline>
                    <polyline id="Fill-12" fill="#767E81" points="74.18125 37.871134 76.05 36.8938144 75.725 38.9298969 77.26875 40.3958763 75.075 40.7216495 74.18125 42.5948454 73.20625 40.7216495 71.09375 40.3958763 72.6375 38.9298969 72.3125 36.8938144 74.18125 37.871134"></polyline>
                    <polyline id="Fill-13" fill="#767E81" points="83.0375 37.871134 84.90625 36.8938144 84.58125 39.0113402 86.125 40.4773196 84.0125 40.8030928 83.11875 42.6762887 82.0625 40.7216495 79.95 40.3958763 81.49375 38.9298969 81.16875 36.8123711 83.0375 37.871134"></polyline>
                    <polyline id="Fill-14" fill="#767E81" points="91.65 37.871134 93.51875 36.8938144 93.19375 39.0113402 94.7375 40.4773196 92.625 40.8030928 91.73125 42.6762887 90.8375 40.8030928 88.725 40.4773196 90.26875 39.0113402 89.94375 36.8938144 91.65 37.871134"></polyline>
                    <polyline id="Fill-15" fill="#767E81" points="100.01875 37.871134 101.8875 36.8938144 101.5625 38.9298969 103.10625 40.3958763 100.99375 40.7216495 100.1 42.5948454 99.125 40.7216495 97.0125 40.3958763 98.55625 38.9298969 98.23125 36.8938144 100.01875 37.871134"></polyline>
                    <polyline id="Fill-16" fill="#767E81" points="108.63125 37.871134 110.5 36.8938144 110.175 38.9298969 111.71875 40.3958763 109.60625 40.7216495 108.7125 42.5948454 107.81875 40.7216495 105.70625 40.3958763 107.25 38.9298969 106.925 36.8938144 108.63125 37.871134"></polyline>
                    <polyline id="Fill-17" fill="#767E81" points="117.4875 37.871134 119.35625 36.8938144 119.03125 39.0113402 120.575 40.4773196 118.4625 40.8030928 117.56875 42.6762887 116.675 40.8030928 114.5625 40.4773196 116.10625 39.0113402 115.78125 36.8938144 117.4875 37.871134"></polyline>
                    <polyline id="Fill-18" fill="#767E81" points="126.1 37.871134 127.96875 36.8938144 127.64375 39.0113402 129.1875 40.4773196 127.075 40.8030928 126.18125 42.6762887 125.20625 40.8030928 123.09375 40.4773196 124.6375 39.0113402 124.3125 36.8938144 126.1 37.871134"></polyline>
                    <path d="M68.49375,0.732989691 C66.625,-0.488659794 64.26875,0.162886598 62.64375,1.38453608 C45.58125,14.2525773 34.36875,32.9030928 26.89375,52.6938144 C25.43125,50.4134021 23.48125,48.4587629 21.04375,47.2371134 C19.09375,46.2597938 16.9,46.4226804 15.19375,47.8886598 C13.975,48.9474227 13.1625,51.4721649 15.03125,52.4494845 C15.6,52.6938144 16.0875,53.0195876 16.575,53.3453608 C16.81875,53.5082474 17.0625,53.671134 17.30625,53.9154639 C17.3875,53.9969072 17.46875,54.0783505 17.55,54.1597938 C17.55,54.1597938 17.63125,54.2412371 17.7125,54.3226804 C18.6875,55.3 19.41875,56.3587629 20.06875,57.4989691 C20.23125,57.743299 20.39375,57.9876289 20.475,58.2319588 C20.55625,58.3948454 20.6375,58.557732 20.71875,58.6391753 C20.71875,58.6391753 20.71875,58.7206186 20.8,58.7206186 C21.125,59.3721649 21.45,59.942268 21.69375,60.5938144 C22.34375,61.9783505 23.075,63.4443299 23.80625,64.828866 C24.375,65.8876289 26.24375,66.1319588 27.3,66.0505155 C28.925,65.8876289 30.875,64.9103093 31.44375,63.2 C33.06875,57.9876289 34.9375,52.856701 37.05,47.8072165 C38.10625,45.2824742 39.24375,42.757732 40.4625,40.314433 C41.03125,39.1742268 41.6,37.9525773 42.25,36.8123711 C42.4125,36.4865979 42.575,36.242268 42.7375,35.9164948 C42.7375,35.9164948 42.7375,35.8350515 42.81875,35.8350515 C42.81875,35.7536082 42.9,35.6721649 42.98125,35.5907216 C43.3875,34.9391753 43.7125,34.2876289 44.11875,33.5546392 C46.8,28.8309278 49.8875,24.3515464 53.21875,20.0350515 C54.03125,18.9762887 54.84375,17.9989691 55.7375,17.0216495 C56.14375,16.5329897 56.63125,16.0443299 57.0375,15.5556701 C57.0375,15.5556701 57.0375,15.5556701 57.11875,15.4742268 C57.11875,15.4742268 57.2,15.3927835 57.28125,15.3113402 C57.60625,14.985567 57.85,14.6597938 58.175,14.3340206 C60.04375,12.3793814 62.075,10.5061856 64.10625,8.71443299 C65.4875,7.49278351 67.03125,6.27113402 68.49375,5.21237113 C69.875,4.23505155 70.11875,1.87319588 68.49375,0.732989691" id="Fill-19" fill="#D7187E"></path>
                    <polyline id="Fill-20" fill="#D8117D" points="67.03125 66.8649485 73.85625 59.6979381 78.40625 59.6979381 70.93125 67.1907216 79.3 77.8597938 74.83125 77.8597938 68.49375 69.5525773 67.03125 71.1 67.03125 77.9412371 63.5375 77.9412371 63.5375 59.6979381 67.03125 59.6979381 67.03125 66.8649485"></polyline>
                    <path d="M80.925,63.2814433 C80.925,61.3268041 82.46875,59.7793814 84.41875,59.7793814 L93.51875,59.7793814 L93.51875,62.9556701 L85.23125,62.9556701 C84.825,62.9556701 84.41875,63.2814433 84.41875,63.7701031 L84.41875,66.8649485 L91.1625,66.8649485 L91.1625,69.8783505 L84.41875,69.8783505 L84.41875,74.7649485 L93.51875,74.7649485 L93.51875,77.9412371 L80.925,77.9412371 L80.925,63.2814433" id="Fill-21" fill="#D8117D"></path>
                    <path d="M106.84375,59.6979381 L110.0125,59.6979381 L110.0125,70.0412371 C110.0125,72.1587629 109.93125,73.9505155 108.63125,75.6608247 C107.25,77.4525773 104.975,78.185567 102.8625,78.185567 C100.425,78.185567 98.15,77.2082474 96.93125,75.2536082 C95.95625,73.7061856 95.79375,71.8329897 95.79375,70.0412371 L95.79375,59.6979381 L99.2875,59.6979381 L99.2875,71.1 C99.2875,72.0773196 99.36875,73.0546392 99.9375,73.8690722 C100.66875,74.7649485 101.96875,75.0092784 103.025,75.0092784 C104.24375,75.0092784 105.38125,74.6835052 106.1125,73.6247423 C106.6,72.8917526 106.7625,71.9958763 106.7625,71.1 L106.7625,59.6979381" id="Fill-22" fill="#D8117D"></path>
                    <path d="M129.025,77.9412371 L124.8,77.9412371 L120.25,71.3443299 L117.975,71.3443299 L117.975,77.9412371 L114.48125,77.9412371 L114.48125,63.2814433 C114.48125,61.3268041 116.10625,59.7793814 118.05625,59.7793814 L120.4125,59.7793814 C121.95625,59.8608247 123.41875,59.7793814 124.88125,60.4309278 C126.75,61.3268041 127.64375,63.4443299 127.64375,65.4804124 C127.64375,67.4350515 126.9125,69.2268041 125.2875,70.285567 C124.88125,70.5298969 124.475,70.6927835 124.06875,70.8556701 L129.025,77.9412371 L129.025,77.9412371 Z M117.975,68.2494845 L120.65625,68.2494845 C122.28125,68.2494845 124.06875,67.5979381 124.06875,65.5618557 C124.06875,63.4443299 123.0125,62.7927835 120.575,62.7927835 L118.86875,62.7927835 C118.4625,62.7927835 118.05625,63.2 118.05625,63.6886598 L118.05625,68.2494845 L117.975,68.2494845 Z" id="Fill-23" fill="#D8117D"></path>
                </g>
            </g>
        </g>
    </g>
</svg>