<?xml version="1.0" encoding="UTF-8"?>
<svg width="136px" height="83px" viewBox="0 0 136 83" version="1.1" xmlns="http://www.w3.org/2000/svg" xmlns:xlink="http://www.w3.org/1999/xlink">
    <!-- Generator: Sketch 42 (36781) - http://www.bohemiancoding.com/sketch -->
    <title>wwk</title>
    <desc>Created with Sketch.</desc>
    <defs></defs>
    <g id="Page-1" stroke="none" stroke-width="1" fill="none" fill-rule="evenodd">
        <g id="6Deals" transform="translate(-1629.000000, -803.000000)" fill="#262B2F">
            <g id="Group-9" transform="translate(120.000000, 142.000000)">
                <g id="Group">
                    <g id="wwk" transform="translate(1509.000000, 661.000000)">
                        <path d="M27.900425,82.4937659 C12.5892161,82.4937659 0.170124542,70.0643647 0.170124542,54.7404453 C0.170124542,39.4165259 12.5892161,26.9871247 27.900425,26.9871247 C30.5373554,26.9871247 32.2386008,26.9871247 34.9605935,27.9235864 C36.066403,28.2641179 36.7469012,29.4559783 36.4066521,30.6478387 C36.066403,31.7545662 34.8755312,32.4356293 33.6846594,32.0950978 C31.5581026,31.4140347 30.5373554,31.4140347 27.900425,31.4140347 C14.9709597,31.4140347 4.4232381,41.9705125 4.4232381,54.8255782 C4.4232381,67.7657768 14.9709597,78.2371217 27.900425,78.2371217 C32.5788499,78.2371217 37.0871502,76.8749955 40.9149524,74.3210089 L41.5954506,73.8102116 L52.1431722,75.6831351 L48.5705569,65.8077204 L48.9958682,64.9563915 C50.5269891,61.8064748 51.2925495,58.3160265 51.2925495,54.7404453 C51.2925495,49.2068077 50.1016777,45.290695 47.2095605,41.4597152 C46.4440001,40.5232534 46.6991869,39.1611273 47.6348719,38.4800642 C48.5705569,37.7990011 49.9315532,37.9692669 50.6971136,38.9057286 C54.1846668,43.4177715 55.7157876,48.3554789 55.7157876,54.7404453 C55.7157876,58.656558 54.9502272,62.402405 53.334044,65.9779862 L58.8630917,81.2167726 L42.5311356,78.3222545 C38.1929598,81.0465069 33.0892235,82.4937659 27.900425,82.4937659" id="Fill-1"></path>
                        <polyline id="Fill-2" points="66.3485715 46.3974225 68.5601906 56.6133688 69.1556265 56.6133688 71.4523078 46.5676883 72.0477437 46.5676883 74.4294873 56.6133688 75.0249232 56.6133688 77.15148 46.3974225 77.6618536 46.3974225 75.4502346 57.1241661 74.0041759 57.1241661 71.7925569 47.2487514 69.6660001 57.1241661 68.2199415 57.1241661 65.9232602 46.3974225 66.3485715 46.3974225"></polyline>
                        <path d="M84.8921467,56.6133688 L84.8921467,57.1241661 C84.8921467,57.1241661 83.2759635,57.2944319 82.170154,57.2944319 C80.0435972,57.2944319 79.363099,55.676907 79.363099,53.2931862 C79.363099,50.3986681 80.6390331,49.2919406 82.4253408,49.2919406 C84.1265862,49.2919406 85.2323957,50.3135353 85.2323957,52.9526547 L85.2323957,53.463452 L79.9585349,53.463452 C79.9585349,55.2512426 80.4689086,56.6985017 82.2552163,56.6985017 C83.2759635,56.7836345 84.8921467,56.6133688 84.8921467,56.6133688 L84.8921467,56.6133688 Z M84.6369598,53.0377876 C84.6369598,50.6540668 83.7863371,49.8027379 82.3402785,49.8027379 C80.9792822,49.8027379 79.8734727,50.6540668 79.8734727,53.0377876 L84.6369598,53.0377876 L84.6369598,53.0377876 Z" id="Fill-3"></path>
                        <path d="M93.3983738,53.1229205 C93.3983738,55.5066413 92.7178756,57.2944319 89.9108207,57.2944319 C88.8900734,57.2944319 87.7842639,57.1241661 87.7842639,57.1241661 L87.7842639,45.9717581 L88.2946375,45.9717581 L88.2946375,49.9730037 C88.2946375,49.9730037 89.400447,49.3770735 90.7614434,49.3770735 C92.8880002,49.2919406 93.3983738,50.9945983 93.3983738,53.1229205 L93.3983738,53.1229205 Z M92.8880002,53.2080534 C92.8880002,51.3351299 92.5477511,49.8878708 90.8465056,49.8878708 C89.4855093,49.8878708 88.3796998,50.483801 88.3796998,50.483801 L88.3796998,56.7836345 C88.3796998,56.7836345 89.400447,56.8687674 89.9108207,56.8687674 C92.4626888,56.7836345 92.8880002,55.1661097 92.8880002,53.2080534 L92.8880002,53.2080534 Z" id="Fill-4"></path>
                        <polyline id="Fill-5" points="95.5249306 49.4622064 97.3963005 56.6133688 97.7365496 56.6133688 99.7780441 49.5473393 100.37348 49.5473393 102.414975 56.6133688 102.755224 56.6133688 104.626594 49.4622064 105.222029 49.4622064 103.180535 57.1241661 102.074725 57.1241661 100.118293 50.2284024 98.161861 57.1241661 96.9709892 57.1241661 95.0145569 49.4622064 95.5249306 49.4622064"></polyline>
                        <path d="M107.348586,46.3974225 L107.85896,46.3974225 L107.85896,47.2487514 L107.348586,47.2487514 L107.348586,46.3974225 Z M107.348586,49.4622064 L107.85896,49.4622064 L107.85896,57.1241661 L107.348586,57.1241661 L107.348586,49.4622064 Z" id="Fill-6"></path>
                        <path d="M110.921202,57.1241661 L110.921202,49.4622064 L111.431575,49.4622064 L111.431575,50.0581366 C111.431575,50.0581366 112.622447,49.2919406 113.983443,49.2919406 C116.024938,49.2919406 116.450249,50.3135353 116.450249,53.1229205 L116.450249,57.1241661 L115.939876,57.1241661 L115.939876,53.1229205 C115.939876,50.6540668 115.684689,49.7176051 113.983443,49.7176051 C112.622447,49.7176051 111.431575,50.483801 111.431575,50.483801 L111.431575,57.0390332 L110.921202,57.0390332" id="Fill-7"></path>
                        <polyline id="Fill-8" points="119.682616 57.1241661 119.682616 45.9717581 120.192989 45.9717581 120.192989 52.697256 121.553986 52.697256 124.275978 49.4622064 124.871414 49.4622064 121.979297 52.9526547 124.871414 57.1241661 124.275978 57.1241661 121.553986 53.2080534 120.192989 53.2080534 120.192989 57.1241661 119.682616 57.1241661"></polyline>
                        <path d="M131.84652,56.6133688 L131.84652,57.1241661 C131.84652,57.1241661 130.230337,57.2944319 129.124528,57.2944319 C126.997971,57.2944319 126.317473,55.676907 126.317473,53.2931862 C126.317473,50.3986681 127.593407,49.2919406 129.379715,49.2919406 C131.08096,49.2919406 132.186769,50.3135353 132.186769,52.9526547 L132.186769,53.463452 L126.912909,53.463452 C126.912909,55.2512426 127.423282,56.6985017 129.20959,56.6985017 C130.230337,56.7836345 131.84652,56.6133688 131.84652,56.6133688 L131.84652,56.6133688 Z M131.591334,53.0377876 C131.591334,50.6540668 130.740711,49.8027379 129.294652,49.8027379 C127.933656,49.8027379 126.827846,50.6540668 126.827846,53.0377876 L131.591334,53.0377876 L131.591334,53.0377876 Z" id="Fill-9"></path>
                        <polygon id="Fill-10" points="134.483451 45.9717581 134.993824 45.9717581 134.993824 57.209299 134.483451 57.209299"></polygon>
                        <polyline id="Fill-11" points="68.5601906 39.5867917 70.5166228 38.5651971 70.1763737 40.6935192 71.7925569 42.2259111 69.5809378 42.5664427 68.6452529 44.5244991 67.6245056 42.5664427 65.4128866 42.2259111 67.0290697 40.6935192 66.6888206 38.5651971 68.5601906 39.5867917"></polyline>
                        <polyline id="Fill-12" points="77.6618536 39.5867917 79.6182858 38.5651971 79.2780368 40.6935192 80.8942199 42.2259111 78.5975386 42.5664427 77.6618536 44.5244991 76.6411064 42.5664427 74.4294873 42.2259111 76.0456705 40.6935192 75.7054214 38.5651971 77.6618536 39.5867917"></polyline>
                        <polyline id="Fill-13" points="86.9336412 39.5867917 88.8900734 38.5651971 88.5498243 40.7786521 90.1660075 42.311044 87.9543884 42.6515756 87.0187034 44.6096319 85.9128939 42.5664427 83.7012749 42.2259111 85.317458 40.6935192 84.9772089 38.4800642 86.9336412 39.5867917"></polyline>
                        <polyline id="Fill-14" points="95.9502419 39.5867917 97.9066742 38.5651971 97.5664251 40.7786521 99.1826082 42.311044 96.9709892 42.6515756 96.0353042 44.6096319 95.0996192 42.6515756 92.8880002 42.311044 94.5041833 40.7786521 94.1639342 38.5651971 95.9502419 39.5867917"></polyline>
                        <polyline id="Fill-15" points="104.711656 39.5867917 106.668088 38.5651971 106.327839 40.6935192 107.944022 42.2259111 105.732403 42.5664427 104.796718 44.5244991 103.775971 42.5664427 101.564352 42.2259111 103.180535 40.6935192 102.840286 38.5651971 104.711656 39.5867917"></polyline>
                        <polyline id="Fill-16" points="113.728257 39.5867917 115.684689 38.5651971 115.34444 40.6935192 116.960623 42.2259111 114.749004 42.5664427 113.813319 44.5244991 112.877634 42.5664427 110.666015 42.2259111 112.282198 40.6935192 111.941949 38.5651971 113.728257 39.5867917"></polyline>
                        <polyline id="Fill-17" points="123.000044 39.5867917 124.956476 38.5651971 124.616227 40.7786521 126.23241 42.311044 124.020791 42.6515756 123.085106 44.6096319 122.149421 42.6515756 119.937802 42.311044 121.553986 40.7786521 121.213736 38.5651971 123.000044 39.5867917"></polyline>
                        <polyline id="Fill-18" points="132.016645 39.5867917 133.973077 38.5651971 133.632828 40.7786521 135.249011 42.311044 133.037392 42.6515756 132.101707 44.6096319 131.08096 42.6515756 128.869341 42.311044 130.485524 40.7786521 130.145275 38.5651971 132.016645 39.5867917"></polyline>
                        <path d="M71.7074946,0.766195968 C69.7510624,-0.510797312 67.2842565,0.170265771 65.5830111,1.44725905 C47.7199341,14.8982549 35.9813407,34.3936857 28.1556118,55.0809768 C26.6244909,52.697256 24.5829964,50.6540668 22.0311282,49.3770735 C19.9896337,48.3554789 17.6929524,48.5257447 15.9066447,50.0581366 C14.6307106,51.1648641 13.7800879,53.8039836 15.7365202,54.8255782 C16.3319561,55.0809768 16.8423297,55.4215084 17.3527033,55.7620399 C17.6078901,55.9323057 17.863077,56.1025715 18.1182638,56.3579701 C18.203326,56.443103 18.2883883,56.5282359 18.3734506,56.6133688 C18.3734506,56.6133688 18.4585129,56.6985017 18.5435751,56.7836345 C19.5643224,57.8052292 20.3298828,58.9119567 21.010381,60.1038171 C21.1805055,60.3592157 21.3506301,60.6146144 21.4356923,60.870013 C21.5207546,61.0402788 21.6058169,61.2105446 21.6908792,61.2956775 C21.6908792,61.2956775 21.6908792,61.3808104 21.7759414,61.3808104 C22.1161905,62.0618734 22.4564396,62.6578036 22.7116264,63.3388667 C23.3921246,64.7861258 24.157685,66.3185177 24.9232455,67.7657768 C25.5186814,68.8725043 27.4751136,69.1279029 28.5809231,69.04277 C30.2821685,68.8725043 32.3236631,67.8509096 32.919099,66.063119 C34.6203444,60.6146144 36.5767766,55.2512426 38.7883957,49.9730037 C39.8942052,47.3338843 41.085077,44.6947648 42.3610111,42.1407783 C42.956447,40.9489179 43.5518829,39.6719246 44.232381,38.4800642 C44.4025056,38.1395326 44.5726301,37.884134 44.7427547,37.5436024 C44.7427547,37.5436024 44.7427547,37.4584696 44.8278169,37.4584696 C44.8278169,37.3733367 44.9128792,37.2882038 44.9979415,37.2030709 C45.4232528,36.5220078 45.7635019,35.8409447 46.1888133,35.0747488 C48.9958682,30.1370414 52.2282345,25.4547327 55.7157876,20.9426898 C56.5664104,19.8359623 57.4170331,18.8143677 58.352718,17.792773 C58.7780294,17.2819757 59.288403,16.7711784 59.7137144,16.2603811 C59.7137144,16.2603811 59.7137144,16.2603811 59.7987767,16.1752482 C59.7987767,16.1752482 59.8838389,16.0901153 59.9689012,16.0049825 C60.3091503,15.6644509 60.5643371,15.3239194 60.9045862,14.9833878 C62.8610184,12.9401986 64.9875752,10.9821422 67.114132,9.10921873 C68.5601906,7.83222545 70.1763737,6.55523217 71.7074946,5.44850466 C73.1535532,4.42691004 73.40874,1.95805636 71.7074946,0.766195968" id="Fill-19"></path>
                        <polyline id="Fill-20" points="70.1763737 69.8940989 77.3216045 62.402405 82.0850917 62.402405 74.2593628 70.2346304 83.0207767 81.3870384 78.3423518 81.3870384 71.7074946 72.7034841 70.1763737 74.3210089 70.1763737 81.4721713 66.5186961 81.4721713 66.5186961 62.402405 70.1763737 62.402405 70.1763737 69.8940989"></polyline>
                        <path d="M84.7220221,66.1482519 C84.7220221,64.1050627 86.3382053,62.4875379 88.3796998,62.4875379 L97.9066742,62.4875379 L97.9066742,65.8077204 L89.2303225,65.8077204 C88.8050111,65.8077204 88.3796998,66.1482519 88.3796998,66.6590492 L88.3796998,69.8940989 L95.4398683,69.8940989 L95.4398683,73.0440157 L88.3796998,73.0440157 L88.3796998,78.1519888 L97.9066742,78.1519888 L97.9066742,81.4721713 L84.7220221,81.4721713 L84.7220221,66.1482519" id="Fill-21"></path>
                        <path d="M111.856887,62.402405 L115.174315,62.402405 L115.174315,73.2142814 C115.174315,75.4277364 115.089253,77.3006599 113.728257,79.0884505 C112.282198,80.961374 109.900454,81.72757 107.688835,81.72757 C105.136967,81.72757 102.755224,80.7059753 101.47929,78.6627861 C100.458542,77.0452613 100.288418,75.0872049 100.288418,73.2142814 L100.288418,62.402405 L103.946095,62.402405 L103.946095,74.3210089 C103.946095,75.3426036 104.031158,76.3641982 104.626594,77.215527 C105.392154,78.1519888 106.75315,78.4073874 107.85896,78.4073874 C109.134894,78.4073874 110.325766,78.0668559 111.091326,76.9601284 C111.6017,76.1939324 111.771824,75.2574707 111.771824,74.3210089 L111.771824,62.402405" id="Fill-22"></path>
                        <path d="M135.078887,81.4721713 L130.655649,81.4721713 L125.892161,74.5764076 L123.510418,74.5764076 L123.510418,81.4721713 L119.85274,81.4721713 L119.85274,66.1482519 C119.85274,64.1050627 121.553986,62.4875379 123.59548,62.4875379 L126.062286,62.4875379 C127.678469,62.5726707 129.20959,62.4875379 130.740711,63.1686009 C132.697143,64.1050627 133.632828,66.3185177 133.632828,68.4468398 C133.632828,70.4900291 132.867268,72.3629526 131.166022,73.4696801 C130.740711,73.7250787 130.315399,73.8953445 129.890088,74.0656103 L135.078887,81.4721713 L135.078887,81.4721713 Z M123.510418,71.3413579 L126.317473,71.3413579 C128.018718,71.3413579 129.890088,70.6602949 129.890088,68.5319727 C129.890088,66.3185177 128.784279,65.6374546 126.23241,65.6374546 L124.446103,65.6374546 C124.020791,65.6374546 123.59548,66.063119 123.59548,66.5739164 L123.59548,71.3413579 L123.510418,71.3413579 Z" id="Fill-23"></path>
                    </g>
                </g>
            </g>
        </g>
    </g>
</svg>