<?xml version="1.0" encoding="UTF-8"?>
<svg width="70px" height="62px" viewBox="0 0 70 62" version="1.1" xmlns="http://www.w3.org/2000/svg" xmlns:xlink="http://www.w3.org/1999/xlink">
    <!-- Generator: Sketch 48.2 (47327) - http://www.bohemiancoding.com/sketch -->
    <title>Shape</title>
    <desc>Created with Sketch.</desc>
    <defs></defs>
    <g id="Footer" stroke="none" stroke-width="1" fill="none" fill-rule="evenodd" transform="translate(-1235.000000, -204.000000)">
        <path d="M1296.6915,213.789474 L1285.9321,213.789474 L1285.9321,204 L1254.09954,204 L1254.09954,213.789474 L1243.34013,213.789474 C1238.75624,213.789474 1235,217.64 1235,222.338947 L1235,257.450526 C1235,262.149474 1238.75624,266 1243.34013,266 L1296.65967,266 C1301.27539,266 1304.9998,262.149474 1304.9998,257.450526 L1304.9998,222.338947 C1305.03163,217.64 1301.27539,213.789474 1296.6915,213.789474 Z M1252.50791,228.343158 L1257.28279,232.226316 L1257.28279,246.421053 L1247.73302,246.421053 L1247.73302,232.226316 L1252.50791,228.343158 Z M1260.46605,249.684211 L1260.46605,230.66 L1254.09954,225.471579 L1254.09954,217.052632 L1285.9321,217.052632 L1285.9321,262.736842 L1254.09954,262.736842 L1254.09954,249.684211 L1260.46605,249.684211 Z M1257.28279,207.263158 L1282.74884,207.263158 L1282.74884,213.789474 L1257.28279,213.789474 L1257.28279,207.263158 Z M1238.18326,257.450526 L1238.18326,222.338947 C1238.18326,219.434737 1240.50703,217.052632 1243.34013,217.052632 L1250.91628,217.052632 L1250.91628,225.471579 L1244.54977,230.66 L1244.54977,249.684211 L1250.91628,249.684211 L1250.91628,262.736842 L1243.34013,262.736842 C1240.50703,262.736842 1238.18326,260.354737 1238.18326,257.450526 Z M1301.84838,257.450526 C1301.84838,260.354737 1299.5246,262.736842 1296.6915,262.736842 L1289.11535,262.736842 L1289.11535,217.052632 L1296.6915,217.052632 C1299.5246,217.052632 1301.84838,219.434737 1301.84838,222.338947 L1301.84838,257.450526 Z" id="Shape" fill="#D6B26F" fill-rule="nonzero"></path>
    </g>
</svg>