<?xml version="1.0" encoding="UTF-8"?>
<svg width="70px" height="60px" viewBox="0 0 70 60" version="1.1" xmlns="http://www.w3.org/2000/svg" xmlns:xlink="http://www.w3.org/1999/xlink">
    <!-- Generator: Sketch 48.2 (47327) - http://www.bohemiancoding.com/sketch -->
    <title>Shape</title>
    <desc>Created with Sketch.</desc>
    <defs></defs>
    <g id="Footer" stroke="none" stroke-width="1" fill="none" fill-rule="evenodd" transform="translate(-344.000000, -204.000000)">
        <path d="M407.572727,227.059459 C407.604545,226.962162 407.636364,226.832432 407.636364,226.702703 L407.636364,205.621622 C407.636364,204.713514 406.936364,204 406.045455,204 L351.954545,204 C351.063636,204 350.363636,204.713514 350.363636,205.621622 L350.363636,226.702703 C350.363636,226.832432 350.395455,226.92973 350.427273,227.059459 C346.513636,230.108108 344,234.875676 344,240.389189 C344,240.551351 344.031818,240.681081 344.095455,240.843243 C344.031818,241.005405 344,241.135135 344,241.297297 L344,252.648649 L344,254.27027 L344,262.378378 C344,263.286486 344.7,264 345.590909,264 C346.481818,264 347.181818,263.286486 347.181818,262.378378 L347.181818,255.891892 L410.818182,255.891892 L410.818182,262.378378 C410.818182,263.286486 411.518182,264 412.409091,264 C413.3,264 414,263.286486 414,262.378378 L414,255.891892 L414,246.162162 L414,241.297297 C414,241.135135 413.968182,241.005405 413.904545,240.843243 C413.936364,240.713514 414,240.551351 414,240.389189 C414,234.908108 411.486364,230.140541 407.572727,227.059459 Z M353.545455,207.243243 L404.454545,207.243243 L404.454545,225.113514 C402.513636,224.205405 400.35,223.654054 398.059091,223.524324 C398.090909,223.524324 398.090909,223.491892 398.090909,223.459459 L398.090909,219.048649 C398.090909,216.486486 395.768182,213.72973 392.3,213.72973 L388.004545,213.72973 C384.218182,213.72973 382.181818,216.454054 382.181818,219.048649 L382.181818,223.459459 L375.818182,223.459459 L375.818182,219.048649 C375.818182,216.486486 373.495455,213.72973 370.027273,213.72973 L365.731818,213.72973 C361.945455,213.72973 359.909091,216.454054 359.909091,219.048649 L359.909091,223.459459 C359.909091,223.491892 359.909091,223.524324 359.909091,223.524324 C357.618182,223.621622 355.486364,224.172973 353.545455,225.081081 L353.545455,207.243243 Z M394.909091,223.459459 L385.363636,223.459459 L385.363636,219.048649 C385.363636,218.335135 385.904545,216.972973 388.004545,216.972973 L392.3,216.972973 C394.272727,216.972973 394.909091,218.497297 394.909091,219.048649 L394.909091,223.459459 Z M372.636364,223.459459 L363.090909,223.459459 L363.090909,219.048649 C363.090909,218.335135 363.631818,216.972973 365.731818,216.972973 L370.027273,216.972973 C372,216.972973 372.636364,218.497297 372.636364,219.048649 L372.636364,223.459459 Z M360.704545,226.702703 L397.168182,226.702703 C404.581818,226.702703 410.372727,232.345946 410.722727,239.675676 L347.245455,239.675676 C347.627273,232.345946 353.386364,226.702703 360.704545,226.702703 Z M347.181818,252.648649 L347.181818,242.918919 L410.818182,242.918919 L410.818182,246.162162 L410.818182,252.648649 L347.181818,252.648649 Z" id="Shape" fill="#D6B26F" fill-rule="nonzero"></path>
    </g>
</svg>