<?xml version="1.0" encoding="UTF-8"?>
<svg width="79px" height="72px" viewBox="0 0 79 72" version="1.1" xmlns="http://www.w3.org/2000/svg" xmlns:xlink="http://www.w3.org/1999/xlink">
    <!-- Generator: Sketch 48.2 (47327) - http://www.bohemiancoding.com/sketch -->
    <title>Shape</title>
    <desc>Created with Sketch.</desc>
    <defs></defs>
    <g id="Footer" stroke="none" stroke-width="1" fill="none" fill-rule="evenodd" transform="translate(-801.000000, -198.000000)">
        <path d="M873.103175,200.128696 C872.785714,199.784348 872.34127,199.565217 871.865079,199.565217 L842.087302,199.565217 C842.087302,198.688696 841.388889,198 840.5,198 C839.611111,198 838.912698,198.688696 838.912698,199.565217 L838.912698,201.130435 L838.912698,216.782609 L838.912698,218.347826 L809.134921,218.347826 C808.65873,218.347826 808.214286,218.566957 807.896825,218.911304 L801.357143,226.737391 C800.880952,227.30087 800.880952,228.146087 801.357143,228.74087 L807.896825,236.566957 C808.214286,236.911304 808.65873,237.130435 809.134921,237.130435 L838.912698,237.130435 L838.912698,268.434783 C838.912698,269.311304 839.611111,270 840.5,270 C841.388889,270 842.087302,269.311304 842.087302,268.434783 L842.087302,235.565217 L842.087302,219.913043 L842.087302,218.347826 L871.865079,218.347826 C872.34127,218.347826 872.785714,218.128696 873.103175,217.784348 L879.642857,209.958261 C880.119048,209.394783 880.119048,208.549565 879.642857,207.954783 L873.103175,200.128696 Z M809.865079,234 L804.626984,227.73913 L809.865079,221.478261 L838.912698,221.478261 L838.912698,234 L809.865079,234 Z M871.134921,215.217391 L842.087302,215.217391 L842.087302,202.695652 L871.134921,202.695652 L876.373016,208.956522 L871.134921,215.217391 Z" id="Shape" fill="#D6B26F" fill-rule="nonzero"></path>
    </g>
</svg>