<?xml version="1.0" encoding="UTF-8" standalone="no"?>
<svg width="420px" height="338px" viewBox="0 0 420 338" version="1.1" xmlns="http://www.w3.org/2000/svg" xmlns:xlink="http://www.w3.org/1999/xlink" xmlns:sketch="http://www.bohemiancoding.com/sketch/ns">
    <!-- Generator: Sketch 3.5.1 (25234) - http://www.bohemiancoding.com/sketch -->
    <title>tb-logo.e8ee0e7e1a8b</title>
    <desc>Created with Sketch.</desc>
    <defs></defs>
    <g id="Page-1" stroke="none" stroke-width="1" fill="none" fill-rule="evenodd" sketch:type="MSPage">
        <g id="Artboard-1" sketch:type="MSArtboardGroup" transform="translate(0.000000, -1462.000000)">
            <g id="tb-logo.e8ee0e7e1a8b" sketch:type="MSLayerGroup" transform="translate(-58.000000, 1462.000000)">
                <path d="M380.722362,15.5874333 C400.225765,29.9608833 412.979357,53.0648733 412.979357,79.1145333 C412.979357,100.727943 404.903266,121.465933 390.835238,135.697423 C383.967008,142.629803 477.114409,73.7437133 477.114409,73.7437133 C477.114409,73.7437133 376.186962,12.2632033 380.722362,15.5992633 L380.722362,15.5874333 Z M339.027472,337.363433 L447.734966,337.363433 L414.483262,294.822753 C398.26003,319.547453 369.804245,336.109453 339.015631,337.375263 L339.027472,337.363433 Z" id="Shape" fill="#F37033" sketch:type="MSShapeGroup"></path>
                <path d="M253.375915,337.363433 L127.616265,274.581623 L155.610221,274.581623 L155.610221,62.4342333 L127.616265,62.4342333 L127.616265,0.208433333 L334.172345,0.208433333 C377.77376,0.208433333 413.121458,35.5328133 413.121458,79.0908733 C413.121458,117.420073 388.230047,149.905253 352.195526,157.074233 C397.786359,160.741533 429.08417,199.851513 429.08417,246.816613 C429.08417,296.195033 387.637958,335.399653 339.584036,337.387093 L253.375915,337.387093 L253.375915,337.363433 Z" id="Shape" fill="#000000" sketch:type="MSShapeGroup"></path>
                <ellipse id="Oval" fill="#FFFFFF" sketch:type="MSShapeGroup" cx="296.24314" cy="84.6746333" rx="50.9906826" ry="50.93998"></ellipse>
                <ellipse id="Oval" fill="#000000" sketch:type="MSShapeGroup" cx="316.539942" cy="75.7311533" rx="25.2585058" ry="25.23339"></ellipse>
                <path d="M24.5809822,195.841143 L253.364073,195.841143 L253.364073,337.363433 L24.5809822,337.363433 C11.3774032,337.363433 0.660596962,326.787413 0.660596962,313.703433 C0.660596962,300.643113 11.3537197,290.043433 24.5809822,290.043433 L24.5809822,290.516633 C11.3774032,290.516633 0.660596962,279.940613 0.660596962,266.856633 C0.660596962,253.796313 11.3537197,243.196633 24.5809822,243.196633 C11.3774032,243.196633 0.660596962,232.596953 0.660596962,219.536633 C0.660596962,206.440823 11.3655615,195.841143 24.5809822,195.841143 L24.5809822,195.841143 Z" id="Shape" fill="#27AAE1" sketch:type="MSShapeGroup"></path>
                <path d="M128.279405,178.486533 L297.261532,178.486533 L297.261532,287.985013 L128.279405,287.985013 C118.059953,287.985013 109.782552,279.786823 109.782552,269.684003 C109.782552,259.557523 118.071795,251.347503 128.291247,251.347503 L128.291247,251.702403 C118.071795,251.702403 109.794394,243.504213 109.794394,233.365903 C109.794394,223.263083 118.083637,215.076723 128.303088,215.076723 C118.083637,215.076723 109.806236,206.866703 109.806236,196.740223 C109.806236,186.661063 118.095478,178.462873 128.31493,178.462873 L128.279405,178.486533 Z" id="Shape" fill="#FFDE17" sketch:type="MSShapeGroup"></path>
            </g>
        </g>
    </g>
</svg>