<?xml version="1.0" encoding="UTF-8" standalone="no"?>
<svg width="191px" height="92px" viewBox="0 0 191 92" version="1.1" xmlns="http://www.w3.org/2000/svg" xmlns:xlink="http://www.w3.org/1999/xlink" xmlns:sketch="http://www.bohemiancoding.com/sketch/ns">
    <!-- Generator: Sketch 3.5.1 (25234) - http://www.bohemiancoding.com/sketch -->
    <title>logo</title>
    <desc>Created with Sketch.</desc>
    <defs></defs>
    <g id="Page-1" stroke="none" stroke-width="1" fill="none" fill-rule="evenodd" sketch:type="MSPage">
        <g id="logo" sketch:type="MSLayerGroup">
            <g id="Page-1" sketch:type="MSShapeGroup">
                <g id="Red">
                    <g id="Rectangle-3-+-®-+-Layer">
                        <rect id="Rectangle-3" fill="#E1270F" x="0" y="0" width="191" height="92"></rect>
                        <g id="®-+-Layer" transform="translate(25.000000, 20.000000)" fill="#FFFFFF">
                            <g id="Group">
                                <path d="M137.909091,10.9956943 C137.909091,10.3823218 138.017269,9.81687758 138.233627,9.29934458 C138.449985,8.78181159 138.746756,8.33233133 139.123947,7.95089035 C139.501139,7.56944936 139.950123,7.27139316 140.470916,7.0567128 C140.991708,6.84203245 141.558443,6.73469388 142.17114,6.73469388 C142.783837,6.73469388 143.350572,6.84203245 143.871364,7.0567128 C144.392156,7.27139316 144.841141,7.56944936 145.218333,7.95089035 C145.595524,8.33233133 145.891337,8.78181159 146.105781,9.29934458 C146.320225,9.81687758 146.427445,10.3823218 146.427445,10.9956943 C146.427445,11.6090667 146.320225,12.174511 146.105781,12.692044 C145.891337,13.209577 145.595524,13.6590572 145.218333,14.0404982 C144.841141,14.4219392 144.392156,14.7209538 143.871364,14.9375509 C143.350572,15.154148 142.783837,15.262445 142.17114,15.262445 C141.558443,15.262445 140.991708,15.154148 140.470916,14.9375509 C139.950123,14.7209538 139.501139,14.4219392 139.123947,14.0404982 C138.746756,13.6590572 138.449985,13.209577 138.233627,12.692044 C138.017269,12.174511 137.909091,11.6090667 137.909091,10.9956943 L137.909091,10.9956943 L137.909091,10.9956943 Z M138.828131,10.9956943 C138.828131,11.4825586 138.910461,11.9301221 139.075123,12.3383982 C139.239785,12.7466742 139.471458,13.0983997 139.770147,13.3935852 C140.068837,13.6887707 140.42209,13.9206986 140.829916,14.0893761 C141.237742,14.2580535 141.684812,14.3423909 142.17114,14.3423909 C142.657468,14.3423909 143.104538,14.2580535 143.512364,14.0893761 C143.92019,13.9206986 144.272486,13.6887707 144.569261,13.3935852 C144.866035,13.0983997 145.096751,12.7466742 145.261413,12.3383982 C145.426075,11.9301221 145.508405,11.4825586 145.508405,10.9956943 C145.508405,10.516497 145.426075,10.0708503 145.261413,9.6587407 C145.096751,9.24663109 144.866035,8.89394723 144.569261,8.60067853 C144.272486,8.30740983 143.92019,8.07644023 143.512364,7.90776281 C143.104538,7.73908539 142.657468,7.65474794 142.17114,7.65474794 C141.684812,7.65474794 141.237742,7.73908539 140.829916,7.90776281 C140.42209,8.07644023 140.068837,8.30740983 139.770147,8.60067853 C139.471458,8.89394723 139.239785,9.24663109 139.075123,9.6587407 C138.910461,10.0708503 138.828131,10.516497 138.828131,10.9956943 L138.828131,10.9956943 L138.828131,10.9956943 Z M140.700676,13.117569 L140.700676,8.72431079 L142.48706,8.72431079 C142.919777,8.72431079 143.274944,8.85752562 143.552572,9.12395928 C143.8302,9.39039293 143.969012,9.7287011 143.969012,10.1388939 C143.969012,10.4992502 143.877109,10.7934729 143.6933,11.0215708 C143.509491,11.2496687 143.268246,11.4058846 142.969556,11.4902233 L143.969012,13.117569 L143.038484,13.117569 L142.125188,11.5649777 L142.148164,11.5477267 L141.476116,11.5477267 L141.476116,13.117569 L140.700676,13.117569 L140.700676,13.117569 Z M141.476116,10.7829318 L142.464084,10.7829318 C142.66704,10.7829318 142.837443,10.7302209 142.9753,10.6247975 C143.113157,10.5193741 143.182084,10.3574079 143.182084,10.1388939 C143.182084,9.95871576 143.113157,9.80537495 142.9753,9.67886689 C142.837443,9.55235882 142.66704,9.48910574 142.464084,9.48910574 L141.476116,9.48910574 L141.476116,10.7829318 L141.476116,10.7829318 Z" id="®"></path>
                                <path d="M34.4015357,41.5482076 L0.420454545,41.5482076 L0.420454545,39.7054581 L4.60652976,39.7054581 L4.60652976,2.35906652 L0.420454545,2.35906652 L0.420454545,0.516316939 L20.4889916,0.516316939 L20.4889916,2.35906652 L14.948598,2.35906652 L14.948598,39.7054581 L21.8433101,39.7054581 C23.4849164,39.7054581 24.9520801,39.3983362 26.2448451,38.7840833 C27.53761,38.1698303 28.6251579,37.2484648 29.5075213,36.0199589 C30.3898847,34.791453 31.0978168,33.5936778 31.6313389,32.4265972 C32.164861,31.2595166 32.7188948,29.8160439 33.293457,28.0961357 L35.017135,28.0961357 L34.4015357,41.5482076 L34.4015357,41.5482076 Z M52.6624494,34.2888911 L52.6624494,28.0235425 C51.8006061,28.0644927 51.092674,28.1156797 50.5386319,28.177105 C49.9845897,28.2385303 49.3074373,28.3818538 48.5071542,28.6070799 C47.7068711,28.832306 47.0707582,29.1087156 46.5987964,29.4363172 C46.1268345,29.7639188 45.7164391,30.234839 45.3675978,30.8490919 C45.0187564,31.4633448 44.8443384,32.1799625 44.8443384,32.9989664 C44.8443384,34.1865221 45.1521349,35.2921608 45.7677373,36.3159156 C46.3833397,37.3396705 47.2656898,37.8515403 48.4148143,37.8515403 C49.7280993,37.8515403 50.7643478,37.4829941 51.5235907,36.7458906 C52.2828337,36.008787 52.6624494,35.1897954 52.6624494,34.2888911 L52.6624494,34.2888911 L52.6624494,34.2888911 Z M52.6624494,26.5493429 L52.6624494,22.4338688 C52.6624494,20.386359 52.4982913,19.0964472 52.16997,18.5640947 C51.6364479,17.7450908 50.3642221,17.3355949 48.3532543,17.3355949 C47.7786921,17.3355949 47.0912798,17.4584437 46.2909967,17.7041449 C45.4907136,17.949846 45.0905781,18.3183923 45.0905781,18.8097946 C45.0905781,19.0145456 45.2957758,19.4445162 45.7061774,20.0997193 C46.116579,20.7549224 46.3217767,21.2667922 46.3217767,21.635344 C46.3217767,22.9457502 45.9832004,23.9899646 45.3060378,24.7680183 C44.6288752,25.546072 43.6541861,25.935093 42.3819412,25.935093 C41.2738569,25.935093 40.3402073,25.597259 39.5809644,24.9215807 C38.8217214,24.2459025 38.4421057,23.3552491 38.4421057,22.2495938 C38.4421057,20.7344366 39.0679587,19.4649996 40.3196835,18.4412447 C41.5714084,17.4174898 42.946233,16.7111095 44.4441988,16.3220827 C45.9421646,15.9330558 47.429848,15.7385453 48.9072937,15.7385453 C52.5598678,15.7385453 55.3608166,16.1582785 57.3102241,16.9977575 C59.2596316,17.8372365 60.2343208,18.7688395 60.2343208,19.7925944 L60.2343208,34.718866 C60.2343208,36.602575 60.8293941,37.5444154 62.0195587,37.5444154 C62.2247595,37.5444154 62.5017764,37.4522788 62.8506178,37.2680029 C63.1994591,37.0837271 63.4354365,36.8892165 63.558557,36.6844656 L64.6666357,37.8515403 C63.8458325,39.1209964 62.9429626,40.0218871 61.9579988,40.5542397 C60.973035,41.0865922 59.7418487,41.3527645 58.264403,41.3527645 C57.0331983,41.3527645 55.894351,40.9125565 54.8478269,40.0321273 C53.8013029,39.1516981 53.1138906,38.1791455 52.7855693,37.1144405 C50.3641999,39.940004 47.491432,41.3527645 44.1671791,41.3527645 C42.320372,41.3527645 40.6582705,40.8408947 39.1808248,39.8171399 C37.7033791,38.793385 36.9646674,37.4010992 36.9646674,35.6402408 C36.9646674,33.9612828 37.5084413,32.4973353 38.5960055,31.2483543 C39.6835697,29.9993733 41.089174,29.057533 42.8128607,28.4228049 C44.5365473,27.7880769 46.2089087,27.3273941 47.8299949,27.0407427 C49.4510812,26.7540914 51.0618833,26.5902931 52.6624494,26.5493429 L52.6624494,26.5493429 L52.6624494,26.5493429 Z M61.6054283,17.8269948 L61.6054283,16.1070952 L76.4413714,16.1070952 L76.4413714,17.8269948 L73.5480547,17.8269948 L79.5193678,31.0947918 L79.7656076,31.0947918 L84.4441622,19.6697444 C84.6904032,19.0554915 84.6391037,18.5948087 84.2902624,18.2876822 C83.941421,17.9805558 83.4797262,17.8269948 82.905164,17.8269948 L80.6274466,17.8269948 L80.6274466,16.1070952 L90.3539155,16.1070952 L90.3539155,17.8269948 L88.4455576,17.8269948 C88.1993167,17.8269948 87.9735992,17.8884192 87.7683984,18.0112698 C87.5631976,18.1341204 87.3682598,18.3286309 87.1835791,18.5948072 C86.9988984,18.8609834 86.8655199,19.0862061 86.7834395,19.270482 C86.7013592,19.4547579 86.5782406,19.741405 86.41408,20.1304318 C86.2499193,20.5194587 86.1473205,20.7549188 86.1062803,20.8368192 L73.9174142,49.0923128 C72.4810087,52.3273782 70.4700711,53.9448867 67.8845411,53.9448867 C66.8585372,53.9448867 65.9454073,53.5558656 65.1451243,52.7778119 C64.3448412,51.9997582 63.9447056,51.1193422 63.9447056,50.1365375 C63.9447056,49.0308822 64.2832819,48.1402288 64.9604445,47.4645506 C65.6376071,46.7888724 66.4891776,46.4510384 67.5151816,46.4510384 C68.5001454,46.4510384 69.341456,46.8400594 70.0391387,47.6181131 C70.654741,48.3142664 71.1472156,48.5804387 71.516577,48.4166379 C71.7628179,48.3347375 71.9782755,48.2221262 72.1629562,48.0788005 C72.347637,47.9354748 72.5117951,47.7512017 72.6554357,47.5259756 C72.7990762,47.3007495 72.9016751,47.1164764 72.9632353,46.9731507 C73.0247956,46.8298251 73.1171345,46.6046024 73.240255,46.2974759 C73.3633755,45.9903494 73.4454546,45.7958389 73.4864947,45.7139385 L75.7026522,40.4928147 L64.3140652,17.8269948 L61.6054283,17.8269948 L61.6054283,17.8269948 Z M111.351448,27.5321426 L97.8698232,27.5321426 L97.8698232,35.4559658 C97.8698232,37.0120733 98.2802187,38.117712 99.1010218,38.7729151 C99.921825,39.4281182 101.173531,39.7557149 102.856178,39.7557149 C105.359627,39.7557149 107.493683,39.1414712 109.25841,37.9129653 C111.023137,36.6844594 112.254323,34.9031526 112.952006,32.5689915 L114.367884,33.0603914 C113.588121,35.8040545 112.151737,37.8720083 110.058689,39.264315 C107.965641,40.6566216 105.42119,41.3527645 102.425258,41.3527645 C98.3622824,41.3527645 94.9252207,40.2368884 92.1139698,38.0051028 C89.302719,35.7733171 87.8971146,32.6713863 87.8971146,28.6992174 C87.8971146,24.7270484 89.3540184,21.5739307 92.2678696,19.2397695 C95.1817209,16.9056084 98.5264436,15.7385453 102.302138,15.7385453 C105.46223,15.7385453 108.242659,16.74181 110.643509,18.7483696 C113.044358,20.7549292 114.244765,23.2938032 114.244765,26.3650679 C114.244765,26.6517193 114.183205,26.876942 114.060085,27.0407427 C113.936964,27.2045435 113.742026,27.3273923 113.475265,27.4092927 C113.208504,27.4911931 112.993047,27.54238 112.828886,27.5628551 C112.664726,27.5833302 112.387709,27.5833302 111.997827,27.5628551 C111.607946,27.54238 111.392488,27.5321426 111.351448,27.5321426 L111.351448,27.5321426 L111.351448,27.5321426 Z M97.8698232,25.935093 L105.934174,25.935093 L105.934174,19.9154444 C105.934174,18.1955362 104.49779,17.3355949 101.624979,17.3355949 C99.1215293,17.3355949 97.8698232,18.2774353 97.8698232,20.1611443 L97.8698232,25.935093 L97.8698232,25.935093 Z M126.646292,15.8613953 L126.646292,22.3110188 L126.769412,22.3110188 C127.385014,20.3863596 128.328924,18.8098008 129.601169,17.5812949 C130.873414,16.352789 132.453436,15.7385453 134.341283,15.7385453 C135.900809,15.7385453 137.142256,16.1992281 138.065659,17.1206075 C138.989063,18.0419869 139.450758,19.2807117 139.450758,20.8368192 C139.450758,22.065325 139.030102,23.0890645 138.188779,23.9080685 C137.347456,24.7270724 136.311207,25.1365682 135.080003,25.1365682 C133.971918,25.1365682 133.048529,24.7987341 132.309806,24.1230559 C131.571083,23.4473777 131.201727,22.5567243 131.201727,21.451069 C131.201727,20.7958659 131.447964,19.8745003 131.940446,18.6869446 C132.022526,18.5231439 131.940447,18.4207699 131.694206,18.3798197 C130.791323,18.2569691 129.703775,19.3011834 128.43153,21.512494 L128.18529,21.9424689 C127.159286,23.8671281 126.646292,25.7712836 126.646292,27.6549926 L126.646292,38.7114901 L131.263287,38.7114901 L131.263287,40.4313897 L115.011465,40.4313897 L115.011465,38.7114901 L118.151022,38.7114901 L118.151022,17.8269948 L114.888346,17.8269948 L114.888346,16.1070952 L118.151022,16.1070952 C119.094946,16.1070952 120.51081,16.0661456 122.398657,15.9842453 C124.286504,15.9023449 125.702369,15.8613953 126.646292,15.8613953 L126.646292,15.8613953 L126.646292,15.8613953 Z" id="Layer"></path>
                            </g>
                        </g>
                    </g>
                </g>
            </g>
        </g>
    </g>
</svg>