<?xml version="1.0" encoding="UTF-8"?>
<svg width="5793px" height="306px" viewBox="0 0 5793 306" version="1.1" xmlns="http://www.w3.org/2000/svg" xmlns:xlink="http://www.w3.org/1999/xlink">
    <!-- Generator: Sketch 42 (36781) - http://www.bohemiancoding.com/sketch -->
    <title>Combined Shape</title>
    <desc>Created with Sketch.</desc>
    <defs></defs>
    <g id="Page-1" stroke="none" stroke-width="1" fill="none" fill-rule="evenodd">
        <g id="Name-of-Art" transform="translate(-2672.000000, -5227.000000)" fill="#FFFFFF">
            <path d="M8464.87329,5243.3 L8464.87329,5500.232 L8453.64129,5500.232 L8291.12829,5298.758 L8291.12829,5489 L8262.69729,5489 L8262.69729,5236.631 L8273.92929,5236.631 L8436.44229,5437.403 L8436.44229,5243.3 L8464.87329,5243.3 Z M7963.30605,5366.15 C7963.30605,5296.652 8018.41305,5239.79 8087.20905,5239.79 C8156.00505,5239.79 8211.46305,5296.652 8211.46305,5366.15 C8211.46305,5435.999 8156.00505,5492.159 8087.20905,5492.159 C8018.41305,5492.159 7963.30605,5435.999 7963.30605,5366.15 Z M7991.73705,5366.15 C7991.73705,5422.31 8034.20805,5465.483 8087.20905,5465.483 C8140.21005,5465.483 8183.03205,5422.31 8183.03205,5366.15 C8183.03205,5310.341 8140.21005,5266.817 8087.20905,5266.817 C8034.20805,5266.817 7991.73705,5310.341 7991.73705,5366.15 Z M7909.26382,5243.3 L7909.26382,5489 L7880.83282,5489 L7880.83282,5243.3 L7909.26382,5243.3 Z M7837.32059,5243.3 L7837.32059,5270.327 L7760.10059,5270.327 L7760.10059,5489 L7731.66959,5489 L7731.66959,5270.327 L7654.44959,5270.327 L7654.44959,5243.3 L7837.32059,5243.3 Z M7546.70435,5236.631 L7558.28735,5236.631 L7669.90535,5489 L7640.07035,5489 L7611.99035,5424.767 L7493.35235,5424.767 L7464.92135,5489 L7435.08635,5489 L7546.70435,5236.631 Z M7552.67135,5287.526 L7504.23335,5398.442 L7600.75835,5398.442 L7552.67135,5287.526 Z M7175.35812,5366.15 C7175.35812,5296.652 7229.76312,5239.79 7299.26112,5239.79 C7358.22912,5239.79 7399.99812,5275.241 7416.14412,5323.328 L7385.60712,5323.328 C7374.37512,5293.493 7343.83812,5266.817 7299.96312,5266.817 C7245.55812,5266.817 7203.78912,5310.341 7203.78912,5366.15 C7203.78912,5422.31 7245.55812,5465.834 7299.96312,5465.834 C7343.83812,5465.834 7376.48112,5438.807 7386.30912,5407.217 L7416.84612,5407.217 C7402.45512,5456.708 7358.22912,5492.159 7299.26112,5492.159 C7229.76312,5492.159 7175.35812,5435.999 7175.35812,5366.15 Z M7121.31588,5243.3 L7121.31588,5489 L7092.88488,5489 L7092.88488,5243.3 L7121.31588,5243.3 Z M7048.67065,5270.327 L6922.66165,5270.327 L6922.66165,5345.792 L7037.78965,5345.792 L7037.78965,5372.819 L6922.66165,5372.819 L6922.66165,5489 L6894.23065,5489 L6894.23065,5243.3 L7048.67065,5243.3 L7048.67065,5270.327 Z M6828.95641,5243.3 L6828.95641,5489 L6800.52541,5489 L6800.52541,5243.3 L6828.95641,5243.3 Z M6757.01318,5243.3 L6757.01318,5270.327 L6679.79318,5270.327 L6679.79318,5489 L6651.36218,5489 L6651.36218,5270.327 L6574.14218,5270.327 L6574.14218,5243.3 L6757.01318,5243.3 Z M6412.34295,5384.402 L6412.34295,5489 L6383.91195,5489 L6383.91195,5243.3 L6475.52295,5243.3 C6521.50395,5243.3 6559.41195,5261.903 6559.41195,5315.255 C6559.41195,5360.534 6529.22595,5379.839 6491.66895,5382.998 L6563.62395,5489 L6532.73595,5489 L6460.78095,5384.402 L6412.34295,5384.402 Z M6412.34295,5357.375 L6476.22495,5357.375 C6506.05995,5357.375 6530.98095,5347.898 6530.98095,5314.553 C6530.98095,5281.208 6506.76195,5270.327 6475.52295,5270.327 L6412.34295,5270.327 L6412.34295,5357.375 Z M6084.52071,5366.15 C6084.52071,5296.652 6139.62771,5239.79 6208.42371,5239.79 C6277.21971,5239.79 6332.67771,5296.652 6332.67771,5366.15 C6332.67771,5435.999 6277.21971,5492.159 6208.42371,5492.159 C6139.62771,5492.159 6084.52071,5435.999 6084.52071,5366.15 Z M6112.95171,5366.15 C6112.95171,5422.31 6155.42271,5465.483 6208.42371,5465.483 C6261.42471,5465.483 6304.24671,5422.31 6304.24671,5366.15 C6304.24671,5310.341 6261.42471,5266.817 6208.42371,5266.817 C6155.42271,5266.817 6112.95171,5310.341 6112.95171,5366.15 Z M6060.66448,5270.327 L5934.65548,5270.327 L5934.65548,5345.792 L6049.78348,5345.792 L6049.78348,5372.819 L5934.65548,5372.819 L5934.65548,5489 L5906.22448,5489 L5906.22448,5243.3 L6060.66448,5243.3 L6060.66448,5270.327 Z M5640.23,5532.946 L5615.886,5532.946 L5741.902,5227.214 L5765.888,5227.214 L5640.23,5532.946 Z M5529.574,5532.946 L5505.23,5532.946 L5631.246,5227.214 L5655.232,5227.214 L5529.574,5532.946 Z M5419.692,5435.09 C5413.7253,5445.83005 5408.17636,5456.39095 5403.045,5466.773 C5397.91364,5477.15505 5392.96136,5487.95461 5388.188,5499.172 L5381.028,5499.172 C5380.55066,5496.78532 5380.133,5494.75668 5379.775,5493.086 C5379.417,5491.41532 5378.82034,5490.16234 5377.985,5489.327 C5377.14966,5488.49166 5376.01601,5487.895 5374.584,5487.537 C5373.15199,5487.179 5371.12335,5487 5368.498,5487 L5204.892,5487 L5204.892,5478.766 C5205.84667,5478.766 5207.93498,5478.64667 5211.157,5478.408 C5214.37902,5478.16933 5217.83965,5477.871 5221.539,5477.513 C5225.23835,5477.155 5228.69898,5476.67767 5231.921,5476.081 C5235.14302,5475.48433 5237.112,5474.828 5237.828,5474.112 C5239.26001,5472.67999 5240.334,5469.87569 5241.05,5465.699 C5241.766,5461.52231 5242.303,5456.92803 5242.661,5451.916 C5243.019,5446.90397 5243.25767,5442.07102 5243.377,5437.417 C5243.49633,5432.76298 5243.556,5429.48134 5243.556,5427.572 L5243.556,5308 C5243.556,5301.07863 5243.43667,5293.97837 5243.198,5286.699 C5242.95933,5279.41963 5241.88534,5272.31937 5239.976,5265.398 C5239.49866,5263.48866 5238.60367,5262.05667 5237.291,5261.102 C5235.97833,5260.14733 5234.54634,5259.43134 5232.995,5258.954 C5231.44366,5258.47666 5229.71334,5258.238 5227.804,5258.238 C5225.89466,5258.238 5224.10468,5258.11867 5222.434,5257.88 L5210.62,5256.806 L5210.62,5248.214 L5368.498,5248.214 L5381.028,5242.128 L5385.682,5248.214 C5382.34065,5256.56738 5379.41701,5264.86096 5376.911,5273.095 C5374.40499,5281.32904 5371.95868,5289.74196 5369.572,5298.334 L5365.634,5298.334 C5364.67933,5293.56064 5363.72467,5288.84702 5362.77,5284.193 C5361.81533,5279.53898 5360.02535,5275.06402 5357.4,5270.768 C5355.49066,5267.66532 5353.34268,5265.27868 5350.956,5263.608 C5348.56932,5261.93732 5345.94401,5260.744 5343.08,5260.028 C5340.21599,5259.312 5337.17302,5258.954 5333.951,5258.954 L5301.194,5258.954 C5294.5113,5258.954 5287.94803,5259.312 5281.504,5260.028 C5280.31066,5265.9947 5279.47534,5271.78231 5278.998,5277.391 C5278.52066,5282.99969 5278.282,5288.7873 5278.282,5294.754 L5278.282,5355.256 L5306.206,5355.256 C5311.93403,5355.256 5316.58798,5354.77867 5320.168,5353.824 C5323.74802,5352.86933 5326.67166,5351.31801 5328.939,5349.17 C5331.20634,5347.02199 5333.17532,5344.21768 5334.846,5340.757 C5336.51668,5337.29632 5338.42599,5333.17936 5340.574,5328.406 L5349.524,5328.406 C5348.09199,5341.29406 5347.07767,5354.00294 5346.481,5366.533 C5345.88433,5379.06306 5345.82466,5391.77194 5346.302,5404.66 L5339.5,5404.66 C5339.02266,5402.98932 5338.24701,5400.48335 5337.173,5397.142 C5336.09899,5393.80065 5334.90567,5390.34002 5333.593,5386.76 C5332.28033,5383.17998 5330.84834,5379.89835 5329.297,5376.915 C5327.74566,5373.93165 5326.37334,5371.84334 5325.18,5370.65 C5324.22533,5369.934 5322.19668,5369.33734 5319.094,5368.86 C5315.99132,5368.38266 5312.65002,5368.02467 5309.07,5367.786 C5305.48998,5367.54733 5302.08902,5367.36833 5298.867,5367.249 C5295.64498,5367.12967 5293.43734,5367.07 5292.244,5367.07 L5278.282,5367.07 L5278.282,5437.954 C5278.282,5443.9207 5278.58033,5449.76797 5279.177,5455.496 C5279.77367,5461.22403 5280.54933,5467.0713 5281.504,5473.038 C5287.4707,5474.70868 5293.37764,5475.723 5299.225,5476.081 C5305.07236,5476.439 5311.09864,5476.618 5317.304,5476.618 C5328.76006,5476.618 5338.90329,5475.72301 5347.734,5473.933 C5356.56471,5472.14299 5364.73896,5469.39835 5372.257,5465.699 C5379.77504,5461.99965 5386.93497,5457.28603 5393.737,5451.558 C5400.53903,5445.82997 5407.75863,5438.90871 5415.396,5430.794 L5419.692,5435.09 Z M5045.236,5487 L5045.236,5478.766 L5066.537,5478.766 C5070.95236,5478.766 5075.12898,5478.587 5079.067,5478.229 C5083.00502,5477.871 5085.92866,5477.334 5087.838,5476.618 C5090.94068,5475.66333 5092.492,5473.63468 5092.492,5470.532 C5092.492,5466.47465 5092.01467,5462.35769 5091.06,5458.181 C5090.10533,5454.00431 5089.15067,5449.88735 5088.196,5445.83 C5083.18397,5423.15655 5078.17203,5400.60278 5073.16,5378.168 C5068.14797,5355.73322 5063.49402,5333.06011 5059.198,5310.148 L4991.178,5480.556 C4976.85793,5450.24518 4962.71707,5420.23315 4948.755,5390.519 C4934.79293,5360.80485 4920.17474,5331.15081 4904.9,5301.556 L4889.864,5425.782 C4889.38666,5430.55536 4888.84967,5435.50764 4888.253,5440.639 C4887.65633,5445.77036 4887.358,5450.72264 4887.358,5455.496 C4887.358,5458.12135 4887.716,5461.04498 4888.432,5464.267 C4889.148,5467.48902 4890.46066,5470.05466 4892.37,5471.964 C4894.04068,5473.63468 4896.72565,5474.88766 4900.425,5475.723 C4904.12435,5476.55834 4908.12198,5477.21466 4912.418,5477.692 C4916.71402,5478.16934 4920.95031,5478.46767 4925.127,5478.587 C4929.30369,5478.70633 4932.46599,5478.766 4934.614,5478.766 L4934.614,5487 L4802.87,5487 L4802.87,5478.766 C4811.70071,5478.28866 4820.65062,5477.75167 4829.72,5477.155 C4838.78938,5476.55833 4847.50062,5474.70868 4855.854,5471.606 C4858.71801,5470.65133 4861.10466,5468.50335 4863.014,5465.162 C4864.92334,5461.82065 4866.47466,5458.06169 4867.668,5453.885 C4868.86134,5449.70831 4869.75633,5445.59135 4870.353,5441.534 C4870.94967,5437.47665 4871.48666,5434.13535 4871.964,5431.51 L4887.358,5329.48 C4888.31267,5323.99064 4889.148,5318.38203 4889.864,5312.654 C4890.58,5306.92597 4890.938,5301.31736 4890.938,5295.828 C4890.938,5290.33864 4889.86401,5285.02836 4887.716,5279.897 C4885.56799,5274.76564 4882.46535,5270.17135 4878.408,5266.114 C4875.06665,5262.77265 4871.96401,5260.68434 4869.1,5259.849 C4866.23599,5259.01366 4862.65602,5258.35734 4858.36,5257.88 C4850.00662,5257.164 4841.65338,5256.806 4833.3,5256.806 L4834.732,5248.214 C4846.42673,5248.93 4858.24061,5249.288 4870.174,5249.288 C4877.33404,5249.288 4884.55363,5249.04934 4891.833,5248.572 C4899.11237,5248.09466 4906.33196,5247.61734 4913.492,5247.14 C4921.36804,5260.02806 4928.8263,5273.1546 4935.867,5286.52 C4942.9077,5299.8854 4949.88863,5313.36993 4956.81,5326.974 L5002.992,5418.264 C5008.48136,5404.42126 5013.79164,5390.57874 5018.923,5376.736 C5024.05436,5362.89326 5029.24531,5349.05074 5034.496,5335.208 C5039.98536,5320.41059 5045.59397,5305.79241 5051.322,5291.353 C5057.05003,5276.91359 5062.41997,5262.17608 5067.432,5247.14 C5071.48935,5247.37867 5075.36765,5247.498 5079.067,5247.498 L5090.702,5247.498 C5098.57804,5247.498 5106.45396,5247.19967 5114.33,5246.603 C5122.20604,5246.00633 5130.08196,5245.35 5137.958,5244.634 L5140.106,5252.868 C5134.1393,5253.82267 5128.23236,5254.83699 5122.385,5255.911 C5116.53764,5256.98501 5110.75003,5258.23799 5105.022,5259.67 C5101.68065,5260.386 5098.33935,5261.22133 5094.998,5262.176 C5091.65665,5263.13067 5089.986,5265.63665 5089.986,5269.694 L5089.986,5270.052 C5089.986,5272.91601 5090.28433,5276.73464 5090.881,5281.508 C5091.47767,5286.28136 5092.134,5291.23364 5092.85,5296.365 C5093.566,5301.49636 5094.40133,5306.50831 5095.356,5311.401 C5096.31067,5316.29369 5097.146,5320.29132 5097.862,5323.394 C5100.72601,5336.52073 5103.53032,5349.52794 5106.275,5362.416 C5109.01968,5375.30406 5111.82399,5388.31127 5114.688,5401.438 C5115.16534,5403.34734 5116.17966,5407.94163 5117.731,5415.221 C5119.28234,5422.50037 5121.13199,5430.31662 5123.28,5438.67 C5125.42801,5447.02338 5127.69532,5454.77996 5130.082,5461.94 C5132.46868,5469.10004 5134.61666,5473.51532 5136.526,5475.186 C5137.95801,5476.37934 5140.82198,5477.27433 5145.118,5477.871 C5149.41402,5478.46767 5154.00831,5478.82567 5158.901,5478.945 C5163.79369,5479.06433 5168.32831,5479.06433 5172.505,5478.945 C5176.68169,5478.82567 5179.48599,5478.766 5180.918,5478.766 L5180.918,5487 L5045.236,5487 Z M4662.188,5487 L4662.188,5478.766 L4683.489,5478.766 C4687.90436,5478.766 4692.08098,5478.587 4696.019,5478.229 C4699.95702,5477.871 4702.88066,5477.334 4704.79,5476.618 C4707.89268,5475.66333 4709.444,5473.63468 4709.444,5470.532 C4709.444,5466.47465 4708.96667,5462.35769 4708.012,5458.181 C4707.05733,5454.00431 4706.10267,5449.88735 4705.148,5445.83 C4700.13597,5423.15655 4695.12403,5400.60278 4690.112,5378.168 C4685.09997,5355.73322 4680.44602,5333.06011 4676.15,5310.148 L4608.13,5480.556 C4593.80993,5450.24518 4579.66907,5420.23315 4565.707,5390.519 C4551.74493,5360.80485 4537.12674,5331.15081 4521.852,5301.556 L4506.816,5425.782 C4506.33866,5430.55536 4505.80167,5435.50764 4505.205,5440.639 C4504.60833,5445.77036 4504.31,5450.72264 4504.31,5455.496 C4504.31,5458.12135 4504.668,5461.04498 4505.384,5464.267 C4506.1,5467.48902 4507.41266,5470.05466 4509.322,5471.964 C4510.99268,5473.63468 4513.67765,5474.88766 4517.377,5475.723 C4521.07635,5476.55834 4525.07398,5477.21466 4529.37,5477.692 C4533.66602,5478.16934 4537.90231,5478.46767 4542.079,5478.587 C4546.25569,5478.70633 4549.41799,5478.766 4551.566,5478.766 L4551.566,5487 L4419.822,5487 L4419.822,5478.766 C4428.65271,5478.28866 4437.60262,5477.75167 4446.672,5477.155 C4455.74138,5476.55833 4464.45262,5474.70868 4472.806,5471.606 C4475.67001,5470.65133 4478.05666,5468.50335 4479.966,5465.162 C4481.87534,5461.82065 4483.42666,5458.06169 4484.62,5453.885 C4485.81334,5449.70831 4486.70833,5445.59135 4487.305,5441.534 C4487.90167,5437.47665 4488.43866,5434.13535 4488.916,5431.51 L4504.31,5329.48 C4505.26467,5323.99064 4506.1,5318.38203 4506.816,5312.654 C4507.532,5306.92597 4507.89,5301.31736 4507.89,5295.828 C4507.89,5290.33864 4506.81601,5285.02836 4504.668,5279.897 C4502.51999,5274.76564 4499.41735,5270.17135 4495.36,5266.114 C4492.01865,5262.77265 4488.91601,5260.68434 4486.052,5259.849 C4483.18799,5259.01366 4479.60802,5258.35734 4475.312,5257.88 C4466.95862,5257.164 4458.60538,5256.806 4450.252,5256.806 L4451.684,5248.214 C4463.37873,5248.93 4475.19261,5249.288 4487.126,5249.288 C4494.28604,5249.288 4501.50563,5249.04934 4508.785,5248.572 C4516.06437,5248.09466 4523.28396,5247.61734 4530.444,5247.14 C4538.32004,5260.02806 4545.7783,5273.1546 4552.819,5286.52 C4559.8597,5299.8854 4566.84063,5313.36993 4573.762,5326.974 L4619.944,5418.264 C4625.43336,5404.42126 4630.74364,5390.57874 4635.875,5376.736 C4641.00636,5362.89326 4646.19731,5349.05074 4651.448,5335.208 C4656.93736,5320.41059 4662.54597,5305.79241 4668.274,5291.353 C4674.00203,5276.91359 4679.37197,5262.17608 4684.384,5247.14 C4688.44135,5247.37867 4692.31965,5247.498 4696.019,5247.498 L4707.654,5247.498 C4715.53004,5247.498 4723.40596,5247.19967 4731.282,5246.603 C4739.15804,5246.00633 4747.03396,5245.35 4754.91,5244.634 L4757.058,5252.868 C4751.0913,5253.82267 4745.18436,5254.83699 4739.337,5255.911 C4733.48964,5256.98501 4727.70203,5258.23799 4721.974,5259.67 C4718.63265,5260.386 4715.29135,5261.22133 4711.95,5262.176 C4708.60865,5263.13067 4706.938,5265.63665 4706.938,5269.694 L4706.938,5270.052 C4706.938,5272.91601 4707.23633,5276.73464 4707.833,5281.508 C4708.42967,5286.28136 4709.086,5291.23364 4709.802,5296.365 C4710.518,5301.49636 4711.35333,5306.50831 4712.308,5311.401 C4713.26267,5316.29369 4714.098,5320.29132 4714.814,5323.394 C4717.67801,5336.52073 4720.48232,5349.52794 4723.227,5362.416 C4725.97168,5375.30406 4728.77599,5388.31127 4731.64,5401.438 C4732.11734,5403.34734 4733.13166,5407.94163 4734.683,5415.221 C4736.23434,5422.50037 4738.08399,5430.31662 4740.232,5438.67 C4742.38001,5447.02338 4744.64732,5454.77996 4747.034,5461.94 C4749.42068,5469.10004 4751.56866,5473.51532 4753.478,5475.186 C4754.91001,5476.37934 4757.77398,5477.27433 4762.07,5477.871 C4766.36602,5478.46767 4770.96031,5478.82567 4775.853,5478.945 C4780.74569,5479.06433 4785.28031,5479.06433 4789.457,5478.945 C4793.63369,5478.82567 4796.43799,5478.766 4797.87,5478.766 L4797.87,5487 L4662.188,5487 Z M4397.996,5369.218 C4397.996,5386.87942 4394.17737,5403.28759 4386.54,5418.443 C4378.90263,5433.59841 4368.81906,5446.72494 4356.289,5457.823 C4343.75894,5468.92106 4329.43908,5477.6323 4313.329,5483.957 C4297.21892,5490.2817 4280.69142,5493.444 4263.746,5493.444 C4246.56191,5493.444 4229.97475,5490.40103 4213.984,5484.315 C4197.99325,5478.22897 4183.85239,5469.69672 4171.561,5458.718 C4159.26961,5447.73928 4149.48437,5434.73208 4142.205,5419.696 C4134.92563,5404.65992 4131.286,5388.19209 4131.286,5370.292 C4131.286,5352.39191 4134.8063,5335.62574 4141.847,5319.993 C4148.8877,5304.36026 4158.37461,5290.75639 4170.308,5279.181 C4182.24139,5267.60561 4196.14359,5258.53637 4212.015,5251.973 C4227.88641,5245.40963 4244.77191,5242.128 4262.672,5242.128 C4280.09475,5242.128 4296.92059,5245.40963 4313.15,5251.973 C4329.37941,5258.53637 4343.75894,5267.48628 4356.289,5278.823 C4368.81906,5290.15972 4378.90263,5303.58459 4386.54,5319.098 C4394.17737,5334.61141 4397.996,5351.31791 4397.996,5369.218 Z M4353.246,5360.626 C4353.246,5347.49927 4351.21735,5334.49206 4347.16,5321.604 C4343.10265,5308.71594 4337.25537,5297.08105 4329.618,5286.699 C4321.98063,5276.31695 4312.49372,5267.90403 4301.157,5261.46 C4289.82028,5255.01597 4276.99207,5251.794 4262.672,5251.794 C4247.39726,5251.794 4234.39005,5255.55296 4223.65,5263.071 C4212.90995,5270.58904 4204.13903,5280.13561 4197.337,5291.711 C4190.53497,5303.28639 4185.52302,5315.99526 4182.301,5329.838 C4179.07898,5343.68074 4177.468,5357.04594 4177.468,5369.934 C4177.468,5382.82206 4179.07898,5396.00827 4182.301,5409.493 C4185.52302,5422.97773 4190.53497,5435.20928 4197.337,5446.188 C4204.13903,5457.16672 4212.90995,5466.1763 4223.65,5473.217 C4234.39005,5480.2577 4247.39726,5483.778 4262.672,5483.778 C4272.93472,5483.778 4282.48129,5481.86869 4291.312,5478.05 C4300.14271,5474.23131 4308.13796,5469.10003 4315.298,5462.656 C4322.45804,5456.21197 4328.60364,5448.81338 4333.735,5440.46 C4338.86636,5432.10662 4342.98332,5423.27605 4346.086,5413.968 C4348.71135,5406.33063 4350.56099,5398.63371 4351.635,5390.877 C4352.70901,5383.12029 4353.246,5375.30404 4353.246,5367.428 L4353.246,5360.626 Z M3974.494,5487 L3974.494,5478.766 C3975.21,5478.766 3977.35798,5478.64667 3980.938,5478.408 C3984.51802,5478.16933 3988.39631,5477.871 3992.573,5477.513 C3996.74969,5477.155 4000.68765,5476.67767 4004.387,5476.081 C4008.08635,5475.48433 4010.41333,5474.828 4011.368,5474.112 C4012.80001,5472.91866 4013.874,5470.23369 4014.59,5466.057 C4015.306,5461.88031 4015.843,5457.34569 4016.201,5452.453 C4016.559,5447.56031 4016.79767,5442.84669 4016.917,5438.312 C4017.03633,5433.77731 4017.096,5430.55534 4017.096,5428.646 L4017.096,5372.798 L3890.364,5372.798 L3890.364,5426.856 C3890.364,5433.5387 3890.543,5440.75829 3890.901,5448.515 C3891.259,5456.27171 3892.39266,5463.37197 3894.302,5469.816 C3894.77934,5471.48668 3895.25666,5472.68 3895.734,5473.396 C3896.21134,5474.112 3897.28532,5474.70866 3898.956,5475.186 C3903.72936,5476.61801 3908.68164,5477.45333 3913.813,5477.692 C3918.94436,5477.93067 3923.89664,5478.28866 3928.67,5478.766 L3928.67,5487 L3813.752,5487 L3813.752,5478.766 C3814.468,5478.766 3816.55632,5478.64667 3820.017,5478.408 C3823.47768,5478.16933 3827.29631,5477.871 3831.473,5477.513 C3835.64969,5477.155 3839.58765,5476.67767 3843.287,5476.081 C3846.98635,5475.48433 3849.31333,5474.828 3850.268,5474.112 C3851.46134,5473.15733 3852.47566,5470.53202 3853.311,5466.236 C3854.14634,5461.93998 3854.743,5457.28603 3855.101,5452.274 C3855.459,5447.26197 3855.69767,5442.48869 3855.817,5437.954 C3855.93633,5433.41931 3855.996,5430.31668 3855.996,5428.646 L3855.996,5306.568 C3855.996,5300.12397 3855.817,5293.2027 3855.459,5285.804 C3855.101,5278.4053 3853.96734,5271.60336 3852.058,5265.398 C3851.58066,5263.72732 3851.10334,5262.534 3850.626,5261.818 C3850.14866,5261.102 3849.07468,5260.50534 3847.404,5260.028 C3841.91464,5258.59599 3836.30603,5257.82033 3830.578,5257.701 C3824.84997,5257.58167 3819.24136,5257.28334 3813.752,5256.806 L3813.752,5248.214 L3928.67,5248.214 L3928.67,5256.806 C3927.47666,5256.806 3925.32868,5256.86567 3922.226,5256.985 C3919.12332,5257.10433 3915.84168,5257.343 3912.381,5257.701 C3908.92032,5258.059 3905.57902,5258.53633 3902.357,5259.133 C3899.13498,5259.72967 3897.04667,5260.50533 3896.092,5261.46 C3894.89866,5262.65334 3893.88434,5265.33831 3893.049,5269.515 C3892.21366,5273.69169 3891.617,5278.28597 3891.259,5283.298 C3890.901,5288.31003 3890.66233,5293.08331 3890.543,5297.618 C3890.42367,5302.15269 3890.364,5305.25532 3890.364,5306.926 L3890.364,5360.268 L4017.096,5360.268 L4017.096,5308.716 C4017.096,5302.27197 4016.97667,5294.99271 4016.738,5286.878 C4016.49933,5278.76329 4015.42534,5271.60336 4013.516,5265.398 C4013.03866,5263.72732 4012.50167,5262.534 4011.905,5261.818 C4011.30833,5261.102 4010.17468,5260.50534 4008.504,5260.028 C4003.01464,5258.59599 3997.40603,5257.82033 3991.678,5257.701 C3985.94997,5257.58167 3980.22203,5257.28334 3974.494,5256.806 L3974.494,5248.214 L4099.794,5248.214 L4099.794,5256.806 C4098.83933,5256.806 4096.33335,5256.86567 4092.276,5256.985 C4088.21865,5257.10433 4083.86302,5257.28333 4079.209,5257.522 C4074.55498,5257.76067 4070.08002,5258.238 4065.784,5258.954 C4061.48798,5259.67 4058.74334,5260.50533 4057.55,5261.46 C4056.11799,5262.65334 4054.98434,5265.33831 4054.149,5269.515 C4053.31366,5273.69169 4052.717,5278.22631 4052.359,5283.119 C4052.001,5288.01169 4051.822,5292.72531 4051.822,5297.26 L4051.822,5429.004 C4051.822,5435.20936 4051.94133,5442.07096 4052.18,5449.589 C4052.41867,5457.10704 4053.49266,5463.8493 4055.402,5469.816 C4055.87934,5471.48668 4056.41633,5472.68 4057.013,5473.396 C4057.60967,5474.112 4058.74332,5474.70866 4060.414,5475.186 C4066.14203,5477.09534 4072.7053,5478.05 4080.104,5478.05 C4087.5027,5478.05 4094.06597,5478.28866 4099.794,5478.766 L4099.794,5487 L3974.494,5487 Z M3715.684,5464.804 C3712.34265,5468.14535 3708.94168,5471.48665 3705.481,5474.828 C3702.02032,5478.16935 3698.38069,5481.21232 3694.562,5483.957 C3690.74331,5486.70168 3686.68602,5488.96899 3682.39,5490.759 C3678.09398,5492.54901 3673.44003,5493.444 3668.428,5493.444 C3661.98397,5493.444 3655.54003,5492.54901 3649.096,5490.759 C3642.65197,5488.96899 3636.68536,5486.40335 3631.196,5483.062 C3622.84262,5478.28864 3616.04069,5472.62037 3610.79,5466.057 C3605.53931,5459.49363 3601.06435,5452.5127 3597.365,5445.114 C3593.66565,5437.7153 3590.56301,5430.13771 3588.057,5422.381 C3585.55099,5414.62429 3582.98535,5407.16604 3580.36,5400.006 C3577.73465,5392.84596 3574.81102,5386.22303 3571.589,5380.137 C3568.36698,5374.05097 3564.13069,5369.09869 3558.88,5365.28 C3553.62931,5361.46131 3547.8417,5359.49233 3541.517,5359.373 C3535.1923,5359.25367 3528.92736,5359.194 3522.722,5359.194 L3522.722,5437.417 C3522.722,5441.11635 3522.84133,5444.93498 3523.08,5448.873 C3523.31867,5452.81102 3523.67666,5456.62965 3524.154,5460.329 C3524.63134,5464.02835 3525.34733,5467.19065 3526.302,5469.816 C3526.77934,5471.72534 3527.25666,5472.97833 3527.734,5473.575 C3528.21134,5474.17167 3529.40466,5474.70866 3531.314,5475.186 C3536.08736,5476.85668 3541.9943,5477.75167 3549.035,5477.871 C3556.0757,5477.99033 3562.10197,5478.28866 3567.114,5478.766 L3567.114,5487 L3437.876,5487 L3437.876,5478.766 C3438.83067,5478.766 3441.45598,5478.64667 3445.752,5478.408 C3450.04802,5478.16933 3454.70197,5477.871 3459.714,5477.513 C3464.72603,5477.155 3469.43964,5476.73734 3473.855,5476.26 C3478.27036,5475.78266 3481.07466,5475.06667 3482.268,5474.112 C3483.70001,5472.91866 3484.774,5470.17402 3485.49,5465.878 C3486.206,5461.58198 3486.743,5456.92803 3487.101,5451.916 C3487.459,5446.90397 3487.69767,5442.07102 3487.817,5437.417 C3487.93633,5432.76298 3487.996,5429.48134 3487.996,5427.572 L3487.996,5308 C3487.996,5301.79464 3487.87667,5294.69437 3487.638,5286.699 C3487.39933,5278.70363 3486.32534,5271.60336 3484.416,5265.398 C3483.93866,5263.48866 3483.46134,5262.23567 3482.984,5261.639 C3482.50666,5261.04233 3481.31334,5260.50534 3479.404,5260.028 C3473.4373,5258.35732 3467.41103,5257.46233 3461.325,5257.343 C3455.23897,5257.22367 3449.2127,5257.04467 3443.246,5256.806 L3443.246,5248.214 L3546.35,5248.214 C3554.46471,5248.214 3562.69862,5248.63166 3571.052,5249.467 C3579.40538,5250.30234 3587.40063,5251.79399 3595.038,5253.942 C3607.21006,5257.28335 3616.93563,5263.36929 3624.215,5272.2 C3631.49437,5281.03071 3635.134,5291.88994 3635.134,5304.778 C3635.134,5311.93804 3633.88101,5319.15763 3631.375,5326.437 C3628.86899,5333.71637 3624.87136,5339.74264 3619.382,5344.516 C3613.17664,5350.00536 3605.95704,5353.64499 3597.723,5355.435 C3589.48896,5357.22501 3581.43404,5358.59733 3573.558,5359.552 C3579.04736,5360.74534 3583.99964,5362.11766 3588.415,5363.669 C3592.83036,5365.22034 3597.06665,5368.02465 3601.124,5372.082 C3606.13603,5377.33269 3610.96898,5383.77663 3615.623,5391.414 C3620.27702,5399.05137 3624.03599,5406.2113 3626.9,5412.894 L3637.998,5438.312 C3639.90734,5442.60802 3642.41332,5446.84431 3645.516,5451.021 C3648.61868,5455.19769 3652.19865,5458.95665 3656.256,5462.298 C3660.31335,5465.63935 3664.66898,5468.32432 3669.323,5470.353 C3673.97702,5472.38168 3678.80997,5473.396 3683.822,5473.396 C3688.59536,5473.396 3693.36864,5471.66568 3698.142,5468.205 C3702.91536,5464.74432 3706.97265,5461.46268 3710.314,5458.36 L3715.684,5464.804 Z M3596.112,5305.136 C3596.112,5297.7373 3594.32202,5291.11436 3590.742,5285.267 C3587.16198,5279.41964 3582.50803,5274.52702 3576.78,5270.589 C3571.05197,5266.65098 3564.72737,5263.66768 3557.806,5261.639 C3550.88463,5259.61032 3544.20203,5258.596 3537.758,5258.596 C3535.37132,5258.596 3533.10401,5258.71533 3530.956,5258.954 C3528.80799,5259.19267 3526.54068,5259.43133 3524.154,5259.67 C3524.154,5263.96602 3523.975,5268.32164 3523.617,5272.737 C3523.259,5277.15236 3523.08,5281.50798 3523.08,5285.804 L3522.722,5349.528 C3528.45003,5349.528 3534.11831,5349.40867 3539.727,5349.17 C3545.33569,5348.93133 3550.88464,5348.21534 3556.374,5347.022 C3567.11405,5344.87399 3576.42196,5340.33937 3584.298,5333.418 C3592.17404,5326.49663 3596.112,5317.06939 3596.112,5305.136 Z M3408.532,5369.218 C3408.532,5386.87942 3404.71337,5403.28759 3397.076,5418.443 C3389.43863,5433.59841 3379.35506,5446.72494 3366.825,5457.823 C3354.29494,5468.92106 3339.97508,5477.6323 3323.865,5483.957 C3307.75492,5490.2817 3291.22742,5493.444 3274.282,5493.444 C3257.09791,5493.444 3240.51075,5490.40103 3224.52,5484.315 C3208.52925,5478.22897 3194.38839,5469.69672 3182.097,5458.718 C3169.80561,5447.73928 3160.02037,5434.73208 3152.741,5419.696 C3145.46163,5404.65992 3141.822,5388.19209 3141.822,5370.292 C3141.822,5352.39191 3145.3423,5335.62574 3152.383,5319.993 C3159.4237,5304.36026 3168.91061,5290.75639 3180.844,5279.181 C3192.77739,5267.60561 3206.67959,5258.53637 3222.551,5251.973 C3238.42241,5245.40963 3255.30791,5242.128 3273.208,5242.128 C3290.63075,5242.128 3307.45659,5245.40963 3323.686,5251.973 C3339.91541,5258.53637 3354.29494,5267.48628 3366.825,5278.823 C3379.35506,5290.15972 3389.43863,5303.58459 3397.076,5319.098 C3404.71337,5334.61141 3408.532,5351.31791 3408.532,5369.218 Z M3363.782,5360.626 C3363.782,5347.49927 3361.75335,5334.49206 3357.696,5321.604 C3353.63865,5308.71594 3347.79137,5297.08105 3340.154,5286.699 C3332.51663,5276.31695 3323.02972,5267.90403 3311.693,5261.46 C3300.35628,5255.01597 3287.52807,5251.794 3273.208,5251.794 C3257.93326,5251.794 3244.92605,5255.55296 3234.186,5263.071 C3223.44595,5270.58904 3214.67503,5280.13561 3207.873,5291.711 C3201.07097,5303.28639 3196.05902,5315.99526 3192.837,5329.838 C3189.61498,5343.68074 3188.004,5357.04594 3188.004,5369.934 C3188.004,5382.82206 3189.61498,5396.00827 3192.837,5409.493 C3196.05902,5422.97773 3201.07097,5435.20928 3207.873,5446.188 C3214.67503,5457.16672 3223.44595,5466.1763 3234.186,5473.217 C3244.92605,5480.2577 3257.93326,5483.778 3273.208,5483.778 C3283.47072,5483.778 3293.01729,5481.86869 3301.848,5478.05 C3310.67871,5474.23131 3318.67396,5469.10003 3325.834,5462.656 C3332.99404,5456.21197 3339.13964,5448.81338 3344.271,5440.46 C3349.40236,5432.10662 3353.51932,5423.27605 3356.622,5413.968 C3359.24735,5406.33063 3361.09699,5398.63371 3362.171,5390.877 C3363.24501,5383.12029 3363.782,5375.30404 3363.782,5367.428 L3363.782,5360.626 Z M2978.228,5487 L2978.228,5478.766 C2978.46667,5478.766 2980.67431,5478.70633 2984.851,5478.587 C2989.02769,5478.46767 2993.68164,5478.229 2998.813,5477.871 C3003.94436,5477.513 3008.77731,5477.03567 3013.312,5476.439 C3017.84669,5475.84233 3020.71066,5475.06667 3021.904,5474.112 C3023.33601,5472.91866 3024.41,5470.29335 3025.126,5466.236 C3025.842,5462.17865 3026.379,5457.70369 3026.737,5452.811 C3027.095,5447.91831 3027.33367,5443.32402 3027.453,5439.028 C3027.57233,5434.73198 3027.632,5431.62934 3027.632,5429.72 L3027.632,5306.568 C3027.632,5299.8853 3027.51267,5292.90437 3027.274,5285.625 C3027.03533,5278.34563 3025.96134,5271.60336 3024.052,5265.398 C3023.57466,5263.72732 3023.03767,5262.534 3022.441,5261.818 C3021.84433,5261.102 3020.71068,5260.50534 3019.04,5260.028 C3012.3573,5258.11866 3005.61503,5257.164 2998.813,5257.164 C2992.01097,5257.164 2985.14937,5257.04467 2978.228,5256.806 L2978.228,5248.214 L3116.058,5248.214 L3116.058,5256.806 L3108.182,5256.806 C3103.64731,5256.806 3098.63536,5256.985 3093.146,5257.343 C3087.65664,5257.701 3082.46569,5258.17833 3077.573,5258.775 C3072.68031,5259.37167 3069.51801,5260.26666 3068.086,5261.46 C3066.89266,5262.65334 3065.99767,5264.62232 3065.401,5267.367 C3064.80433,5270.11168 3064.38667,5272.19999 3064.148,5273.632 C3063.19333,5279.12136 3062.65633,5284.49131 3062.537,5289.742 C3062.41767,5294.99269 3062.358,5300.36264 3062.358,5305.852 L3062.358,5429.004 C3062.358,5435.44803 3062.47733,5442.30963 3062.716,5449.589 C3062.95467,5456.86837 3064.02866,5463.61064 3065.938,5469.816 C3066.41534,5471.72534 3066.89266,5472.97833 3067.37,5473.575 C3067.84734,5474.17167 3069.04066,5474.70866 3070.95,5475.186 C3073.33668,5476.14067 3076.61831,5476.85666 3080.795,5477.334 C3084.97169,5477.81134 3089.32731,5478.10967 3093.862,5478.229 C3098.39669,5478.34833 3102.69265,5478.46767 3106.75,5478.587 C3110.80735,5478.70633 3113.90999,5478.766 3116.058,5478.766 L3116.058,5487 L2978.228,5487 Z M2948.168,5369.576 C2948.168,5386.76009 2944.76703,5403.46659 2937.965,5419.696 C2931.16297,5435.92541 2921.31806,5449.88727 2908.43,5461.582 C2901.7473,5467.5487 2894.7067,5472.26232 2887.308,5475.723 C2879.9093,5479.18368 2872.21237,5481.74932 2864.217,5483.42 C2856.22163,5485.09068 2848.04738,5486.105 2839.694,5486.463 C2831.34062,5486.821 2822.86804,5487 2814.276,5487 L2672.508,5487 L2672.508,5478.766 C2673.46267,5478.766 2676.56531,5478.70633 2681.816,5478.587 C2687.06669,5478.46767 2692.6753,5478.28867 2698.642,5478.05 C2704.6087,5477.81133 2710.15764,5477.39367 2715.289,5476.797 C2720.42036,5476.20033 2723.58266,5475.30534 2724.776,5474.112 C2726.20801,5472.91866 2727.34166,5469.99502 2728.177,5465.341 C2729.01234,5460.68698 2729.609,5455.67503 2729.967,5450.305 C2730.325,5444.93497 2730.56367,5439.74403 2730.683,5434.732 C2730.80233,5429.71997 2730.862,5426.25934 2730.862,5424.35 L2730.862,5300.303 C2730.862,5296.36498 2730.74267,5292.30769 2730.504,5288.131 C2730.26533,5283.95431 2729.84767,5279.89702 2729.251,5275.959 C2728.65433,5272.02098 2727.87867,5268.50068 2726.924,5265.398 C2726.44666,5263.48866 2725.96934,5262.23567 2725.492,5261.639 C2725.01466,5261.04233 2723.82134,5260.50534 2721.912,5260.028 C2715.70664,5258.11866 2708.96437,5257.164 2701.685,5257.164 C2694.40563,5257.164 2687.54403,5257.04467 2681.1,5256.806 L2681.1,5248.214 L2796.018,5248.214 C2807.47406,5248.214 2818.92994,5248.51233 2830.386,5249.109 C2841.84206,5249.70567 2853.17861,5251.55532 2864.396,5254.658 C2877.28406,5258.23802 2888.91895,5263.7273 2899.301,5271.126 C2909.68305,5278.5247 2918.51363,5287.35528 2925.793,5297.618 C2933.07237,5307.88072 2938.62131,5319.15761 2942.44,5331.449 C2946.25869,5343.74039 2948.168,5356.44927 2948.168,5369.576 Z M2905.566,5367.428 C2905.566,5352.63059 2903.47769,5338.25107 2899.301,5324.289 C2895.12431,5310.32693 2888.14338,5297.61806 2878.358,5286.162 C2873.10731,5280.1953 2867.55836,5275.36235 2861.711,5271.663 C2855.86364,5267.96365 2849.65837,5265.09968 2843.095,5263.071 C2836.53163,5261.04232 2829.67004,5259.72967 2822.51,5259.133 C2815.34996,5258.53633 2807.95137,5258.238 2800.314,5258.238 C2795.30197,5258.238 2790.23036,5258.47666 2785.099,5258.954 C2779.96764,5259.43134 2774.89603,5259.90866 2769.884,5260.386 C2768.69066,5264.44335 2767.736,5269.6343 2767.02,5275.959 C2766.304,5282.2837 2765.82667,5288.90663 2765.588,5295.828 C2765.34933,5302.74937 2765.23,5309.49163 2765.23,5316.055 L2765.23,5403.228 C2765.23,5408.00136 2765.28967,5412.65531 2765.409,5417.19 C2765.52833,5421.72469 2765.70733,5426.37864 2765.946,5431.152 C2766.18467,5438.31204 2766.304,5445.5913 2766.304,5452.99 C2766.304,5460.3887 2767.25866,5467.54863 2769.168,5474.47 C2776.08937,5474.94734 2783.12996,5475.30533 2790.29,5475.544 C2797.45004,5475.78267 2804.49063,5475.902 2811.412,5475.902 C2817.85603,5475.902 2823.94197,5475.723 2829.67,5475.365 C2835.39803,5475.007 2840.82764,5474.11201 2845.959,5472.68 C2851.09036,5471.24799 2856.10231,5469.15968 2860.995,5466.415 C2865.88769,5463.67032 2870.60131,5459.91136 2875.136,5455.138 C2885.87605,5443.44327 2893.63264,5429.83941 2898.406,5414.326 C2903.17936,5398.81259 2905.566,5383.18008 2905.566,5367.428 Z" id="Combined-Shape"></path>
        </g>
    </g>
</svg>