<?xml version="1.0" encoding="utf-8"?>
<!-- Generator: Adobe Illustrator 16.0.4, SVG Export Plug-In . SVG Version: 6.00 Build 0)  -->
<!DOCTYPE svg PUBLIC "-//W3C//DTD SVG 1.1//EN" "http://www.w3.org/Graphics/SVG/1.1/DTD/svg11.dtd">
<svg version="1.1" xmlns="http://www.w3.org/2000/svg" xmlns:xlink="http://www.w3.org/1999/xlink" x="0px" y="0px" width="1200px"
	 height="1200px" viewBox="0 0 1200 1200" enable-background="new 0 0 1200 1200" xml:space="preserve">
<g id="background">
</g>
<g id="text">
	<g>
		<path fill="#FFFFFF" d="M317.913,401.912h-15.884v-9.775h95.304c10.02,0,14.173,4.155,14.173,14.175v12.951h-10.264v-11.974
			c0-3.664-1.955-5.377-5.376-5.377h-67.445v70.135H396.6v9.775h-68.179v66.223c0,3.666,1.954,5.376,5.377,5.376h69.4
			c3.421,0,5.375-1.71,5.375-5.376v-11.972h10.263v12.952c0,10.018-4.154,14.173-14.174,14.173h-72.576
			c-10.02,0-14.174-4.155-14.174-14.173V401.912z"/>
		<path fill="#FFFFFF" d="M491.171,472.781l-39.1-64.269c-3.664-5.865-8.307-6.601-13.197-6.601h-4.152v-9.775h4.152
			c12.221,0,17.107,1.958,24.438,14.175l24.193,40.322c4.887,8.307,11.241,19.06,11.241,19.06h0.488c0,0,5.132-10.753,10.264-19.06
			l24.436-40.322c7.332-12.218,12.219-14.175,24.439-14.175h4.152v9.775h-4.152c-4.888,0-9.531,0.735-13.198,6.601l-39.342,64.269
			l55.473,90.416h-12.464l-39.589-65.001c-5.131-8.553-10.994-18.328-10.994-18.328h-0.491c0,0-5.131,10.018-10.263,18.573
			l-39.098,64.755h-12.464L491.171,472.781z"/>
		<path fill="#FFFFFF" d="M598.94,401.912h-15.888v-9.775h69.648c29.811,0,52.052,18.82,52.052,49.852
			c0,31.038-22.241,50.339-52.052,50.339h-43.256v70.87H598.94V401.912z M652.211,482.556c24.926,0,41.541-14.908,41.541-40.568
			c0-25.659-16.615-40.077-41.541-40.077h-42.766v80.645H652.211z"/>
		<path fill="#FFFFFF" d="M813.496,389.206c47.646,0,86.504,38.122,86.504,87.239c0,50.34-38.857,89.683-86.504,89.683
			c-47.652,0-86.508-39.342-86.508-89.683C726.988,427.328,765.844,389.206,813.496,389.206z M813.496,555.866
			c41.783,0,75.506-34.699,75.506-79.42c0-43.496-33.723-76.975-75.506-76.975c-41.791,0-75.518,33.479-75.518,76.975
			C737.979,521.167,771.705,555.866,813.496,555.866z"/>
		<path fill="#FFFFFF" d="M402.952,667.786c0-22.581-16.396-40.32-43.546-40.32c-20.43,0-37.364,10.483-37.364,22.851v9.138h-11.558
			v-11.829c0-23.385,31.987-31.451,49.19-31.451c37.097,0,55.376,24.731,55.376,51.612c0,66.934-103.493,63.171-103.493,123.114
			c0,4.033,2.151,5.914,5.912,5.914h89.246c3.765,0,5.916-1.881,5.916-5.914v-13.172h11.291v14.247
			c0,11.021-4.571,15.592-15.592,15.592h-92.739c-11.022,0-15.591-4.571-15.591-15.592C300,721.279,402.952,728,402.952,667.786z"/>
		<path fill="#FFFFFF" d="M459.672,713.484c0-54.3,15.59-97.311,63.439-97.311c47.848,0,63.439,43.011,63.439,97.311
			c0,54.568-15.591,97.31-63.439,97.31C475.263,810.794,459.672,768.053,459.672,713.484z M574.454,713.484
			c0-48.386-11.29-86.019-51.343-86.019s-51.341,37.633-51.341,86.019c0,48.653,11.288,86.02,51.341,86.02
			S574.454,762.138,574.454,713.484z"/>
		<path fill="#FFFFFF" d="M722.569,667.786c0-22.581-16.397-40.32-43.552-40.32c-20.424,0-37.363,10.483-37.363,22.851v9.138H630.1
			v-11.829c0-23.385,31.989-31.451,49.194-31.451c37.091,0,55.372,24.731,55.372,51.612c0,66.934-103.494,63.171-103.494,123.114
			c0,4.033,2.148,5.914,5.914,5.914h89.246c3.762,0,5.912-1.881,5.912-5.914v-13.172h11.295v14.247
			c0,11.021-4.57,15.592-15.59,15.592h-92.744c-11.021,0-15.592-4.571-15.592-15.592C619.613,721.279,722.569,728,722.569,667.786z"
			/>
		<path fill="#FFFFFF" d="M788.426,776.385c0,0,12.902,23.119,43.545,23.119c29.302,0,52.148-20.967,52.148-49.193
			c0-28.494-22.847-49.729-52.148-49.729c-21.504,0-36.553,11.289-36.553,11.289l-8.608-2.955l8.608-73.924
			c1.341-11.021,4.566-15.592,15.587-15.592h58.603c10.747,0,15.317,4.57,15.317,15.592v14.246h-11.288v-13.17
			c0-4.033-2.146-5.914-5.91-5.914h-54.838c-3.765,0-5.376,1.881-5.916,5.914l-5.912,50.267c-0.807,7.255-1.883,11.56-1.883,11.56
			h0.535c0,0,13.176-8.604,32.258-8.604c36.021,0,64.248,27.149,64.248,61.02c0,33.871-28.767,60.483-64.248,60.483
			c-36.553,0-52.953-27.149-52.953-27.149L788.426,776.385z"/>
	</g>
</g>
</svg>
