<?xml version="1.0" encoding="utf-8"?>
<!-- Generator: Adobe Illustrator 16.0.4, SVG Export Plug-In . SVG Version: 6.00 Build 0)  -->
<!DOCTYPE svg PUBLIC "-//W3C//DTD SVG 1.1//EN" "http://www.w3.org/Graphics/SVG/1.1/DTD/svg11.dtd">
<svg version="1.1" id="Layer_7" xmlns="http://www.w3.org/2000/svg" xmlns:xlink="http://www.w3.org/1999/xlink" x="0px" y="0px"
	 width="1200px" height="600px" viewBox="0 0 1200 600" enable-background="new 0 0 1200 600" xml:space="preserve">
<g>
	<path fill="#FFFFFF" d="M231.505,284.326h-14.61v38.251h-7.29v-38.251h-14.61v-6.902h36.51V284.326z"/>
	<path fill="#FFFFFF" d="M289.941,300c0,13.481-9.773,23.416-23.642,23.416s-23.641-9.935-23.641-23.416
		c0-13.481,9.772-23.415,23.641-23.415S289.941,286.519,289.941,300z M250.303,300c0,9.74,6.772,16.417,15.997,16.417
		s15.997-6.677,15.997-16.417s-6.773-16.416-15.997-16.416S250.303,290.26,250.303,300z"/>
	<path fill="#FFFFFF" d="M344.665,304.773c0,12.545-8.482,18.609-19.157,18.609c-10.676,0-19.158-6.064-19.158-18.609v-27.35h7.289
		v26.802c0,8.61,4.87,12.159,11.869,12.159s11.869-3.549,11.869-12.159v-26.802h7.289V304.773z"/>
	<path fill="#FFFFFF" d="M403.424,286.035l-6.096,4.063c-2.742-3.999-7.225-6.515-12.61-6.515c-9.225,0-15.998,6.676-15.998,16.416
		s6.773,16.417,15.998,16.417c5.354,0,9.772-2.42,12.578-6.483l5.934,4.354c-3.838,5.645-10.611,9.129-18.512,9.129
		c-13.869,0-23.641-9.935-23.641-23.416c0-13.481,9.772-23.415,23.641-23.415C392.749,276.585,399.876,280.165,403.424,286.035z"/>
	<path fill="#FFFFFF" d="M427.446,296.388h24.382v-18.964h7.289v45.153h-7.289V303.29h-24.382v19.287h-7.29v-45.153h7.29V296.388z"
		/>
	<path fill="#FFFFFF" d="M521.162,277.424c14.126,0,23.447,8.966,23.447,22.576s-9.32,22.577-23.447,22.577h-17.932v-45.153H521.162
		z M510.519,284.326v31.348h10.643c10.611,0,15.804-6.579,15.804-15.674c0-9.191-5.193-15.674-15.804-15.674H510.519z"/>
	<path fill="#FFFFFF" d="M585.467,306.612c0,10.836-6.773,16.771-15.74,16.771c-7.901,0-12.094-3.741-14.48-6.935l4.87-4.999
		c1.935,2.742,4.934,4.936,9.579,4.936c5.289,0,8.482-3.451,8.482-10.482v-28.479h7.289V306.612z"/>
	<path fill="#FFFFFF" d="M669.153,286.035l-6.096,4.063c-2.741-3.999-7.225-6.515-12.61-6.515c-9.224,0-15.997,6.676-15.997,16.416
		s6.773,16.417,15.997,16.417c5.354,0,9.772-2.42,12.578-6.483l5.935,4.354c-3.839,5.645-10.61,9.129-18.513,9.129
		c-13.868,0-23.64-9.935-23.64-23.416c0-13.481,9.771-23.415,23.64-23.415C658.478,276.585,665.605,280.165,669.153,286.035z"/>
	<path fill="#FFFFFF" d="M730.072,300c0,13.481-9.771,23.416-23.641,23.416c-13.868,0-23.641-9.935-23.641-23.416
		c0-13.481,9.772-23.415,23.641-23.415C720.301,276.585,730.072,286.519,730.072,300z M690.435,300
		c0,9.74,6.773,16.417,15.997,16.417c9.225,0,15.997-6.677,15.997-16.417s-6.772-16.416-15.997-16.416
		C697.208,283.584,690.435,290.26,690.435,300z"/>
	<path fill="#FFFFFF" d="M786.186,322.577h-6.58l-25.188-32.672l-0.033,32.672h-7.289v-45.153h6.58l25.221,32.671v-32.671h7.289
		V322.577z"/>
	<path fill="#FFFFFF" d="M845.556,286.035l-6.097,4.063c-2.741-3.999-7.225-6.515-12.61-6.515c-9.223,0-15.996,6.676-15.996,16.416
		s6.773,16.417,15.996,16.417c5.354,0,9.773-2.42,12.579-6.483l5.935,4.354c-3.839,5.645-10.611,9.129-18.514,9.129
		c-13.868,0-23.641-9.935-23.641-23.416c0-13.481,9.772-23.415,23.641-23.415C834.88,276.585,842.007,280.165,845.556,286.035z"/>
	<path fill="#FFFFFF" d="M895.218,322.577h-32.929v-45.153h32.51v6.837h-25.221v12.159h24.35v6.837h-24.35v12.481h25.64V322.577z"/>
	<path fill="#FFFFFF" d="M920.757,304.839v17.738h-7.29v-45.153h17.514c10.417,0,15.996,5.257,15.996,13.707
		c0,8.45-5.579,13.708-15.996,13.708H920.757z M920.757,284.293v13.675h10.03c5.901,0,8.61-2.193,8.61-6.838
		c0-4.644-2.709-6.837-8.61-6.837H920.757z"/>
	<path fill="#FFFFFF" d="M994.995,284.326h-14.61v38.251h-7.288v-38.251h-14.611v-6.902h36.51V284.326z"/>
</g>
</svg>
