<?xml version="1.0" encoding="UTF-8"?>
<svg width="228px" height="43px" viewBox="0 0 228 43" version="1.1" xmlns="http://www.w3.org/2000/svg" xmlns:xlink="http://www.w3.org/1999/xlink">
    <!-- Generator: Sketch 48.2 (47327) - http://www.bohemiancoding.com/sketch -->
    <title>Group</title>
    <desc>Created with Sketch.</desc>
    <defs></defs>
    <g id="Hero-Zoom" stroke="none" stroke-width="1" fill="none" fill-rule="evenodd" transform="translate(-726.000000, -27.000000)">
        <g id="Group-3">
            <g id="Group" transform="translate(726.000000, 15.000000)">
                <path d="M33.0542562,43.146696 C33.0542562,45.5269215 32.3248432,47.5711973 30.8659954,49.279585 C29.4071475,50.9879726 27.3916642,52.1300798 24.8194851,52.7059408 C22.7847762,53.1666296 20.8652683,53.4353607 19.0609039,53.5121422 C17.2565394,53.5889237 11.9586976,53.6273138 3.16721967,53.6273138 C1.9387162,53.6273138 1.20930321,53.6081187 0.978958809,53.569728 C0.748614408,53.5313373 0.633443935,53.3969717 0.633443935,53.1666273 C0.633443935,52.8211107 1.257284,52.648355 2.50498283,52.648355 C3.75268167,52.648355 4.53008236,52.4660018 4.83720823,52.1012898 C5.1443341,51.7365778 5.29789473,50.8440067 5.29789473,49.4235495 L5.24030892,16.4844649 C5.24030892,15.3711336 4.35733529,14.7952813 2.59136155,14.7568905 C1.24768588,14.7184998 0.575858123,14.5457441 0.575858123,14.2386182 C0.575858123,13.8931016 0.998149856,13.7203459 1.84274599,13.7203459 C2.6489514,13.7971274 3.43594963,13.8355175 4.2037643,13.8355175 L18.0243592,13.8355175 C26.8926187,13.8355175 31.3266819,16.86834 31.3266819,22.9340759 C31.3266819,27.963262 28.0251283,31.0728647 21.4219222,32.2629775 L21.3067505,32.4933207 C25.1842146,33.2995261 27.8715257,34.3168653 29.3687643,35.5453688 C31.8257712,37.5800776 33.0542562,40.113828 33.0542562,43.146696 Z M22.8039817,23.1644191 C22.8039817,17.5977628 21.0764246,14.8144763 17.6212586,14.8144763 C16.3927551,14.8144763 15.5673667,14.8720616 15.1450686,14.9872338 C14.3004725,15.2559689 13.8781808,15.8510164 13.8781808,16.772394 L13.8781808,31.9750484 C17.294956,31.9750484 19.6367556,31.380001 20.9036499,30.1898882 C22.1705441,28.9997755 22.8039817,26.6579759 22.8039817,23.1644191 Z M23.8405263,42.8587669 C23.8405263,37.4456735 22.2857249,34.2976806 19.1760755,33.4146937 C17.947572,33.0691771 16.1816248,32.8964214 13.8781808,32.8964214 L13.9933524,36.2363985 C13.9933524,37.1961668 13.9549622,38.5590174 13.8781808,40.3249912 C13.83979,41.207978 13.8205949,42.8587548 13.8205949,45.277371 C13.8205949,49.4235702 13.9357654,51.6310043 14.1661098,51.8997394 C14.4732357,52.3220375 15.3370142,52.5331834 16.7574714,52.5331834 C21.4795316,52.5331834 23.8405263,49.3084101 23.8405263,42.8587669 Z" id="B" fill="#222B3E"></path>
                <path d="M49.5237986,53.1090415 C49.5237986,53.4161674 48.7943856,53.569728 47.3355377,53.569728 C46.9900211,53.569728 45.9150967,53.5313378 44.1107322,53.4545564 C43.1893546,53.4161656 42.2871859,53.3969706 41.404199,53.3969706 C40.5596029,53.3969706 38.9856064,53.4353607 36.6821624,53.5121422 L34.954588,53.569728 C34.1099919,53.6081187 33.6877002,53.4737532 33.6877002,53.1666273 C33.6877002,52.8595014 34.129187,52.7251359 35.0121739,52.7635266 C36.3558495,52.8019174 37.1332502,52.6675518 37.3443993,52.3604259 C37.5555483,52.0533001 37.6611212,50.9015953 37.6611212,48.9052772 L37.6611212,18.5575541 C37.6611212,17.2522692 37.5267557,16.4748685 37.2580205,16.2253287 C36.9892854,15.975789 36.2022872,15.851021 34.8970022,15.851021 C33.9372339,15.851021 33.4573569,15.7166554 33.4573569,15.4479203 C33.4573569,15.1407944 33.956429,14.9680387 34.954588,14.929648 C39.2543502,14.776085 42.7670496,14.1234524 45.4927917,12.9717303 C45.454401,14.1234524 45.4352059,20.860925 45.4352059,33.1843505 L45.4352059,47.5232177 C45.4352059,50.1337876 45.5023887,51.6597964 45.6367562,52.1012898 C45.7711238,52.5427832 46.2414032,52.7443315 47.0476086,52.7059408 L48.775183,52.648355 C49.2742625,52.648355 49.5237986,52.8019156 49.5237986,53.1090415 Z" id="l" fill="#222B3E"></path>
                <path d="M74.9767276,50.4600941 C74.9767276,50.76722 74.6696063,51.1895117 74.0553546,51.726982 C72.404553,53.2242206 70.3698747,53.9728287 67.9512585,53.9728287 C66.3772384,53.9728287 65.2351312,53.6465123 64.5249026,52.9938699 C63.8146741,52.3412274 63.3443946,51.1703276 63.1140502,49.4811353 C61.3864672,52.6291755 59.0254726,54.2031719 56.0309953,54.2031719 C54.3801938,54.2031719 53.0461358,53.6849048 52.0287814,52.648355 C51.0114269,51.6118052 50.5027574,50.2681497 50.5027574,48.6173481 C50.5027574,43.7801157 54.6488944,40.920049 62.9412928,40.0370621 L62.9412928,38.8277601 C62.9412928,34.9886867 62.8069273,32.627692 62.5381921,31.7447051 L62.4806063,31.4567761 C61.943136,29.5372394 60.5802855,28.5774855 58.3920136,28.5774855 C57.1251194,28.5774855 56.1077803,28.942192 55.3399656,29.6716159 C54.5721509,30.4010398 54.1882493,31.1112578 54.1882493,31.802291 C54.1882493,32.1861983 54.6489312,32.4165392 55.5703088,32.4933207 C56.9523752,32.6084929 57.6433981,33.4530764 57.6433981,35.0270964 C57.6433981,35.8716926 57.3650694,36.572313 56.8084038,37.1289786 C56.2517382,37.6856442 55.5319227,37.9639729 54.6489358,37.9639729 C53.5356046,37.9639729 52.6238383,37.628059 51.9136098,36.9562212 C51.2033812,36.2843833 50.8482722,35.4302023 50.8482722,34.3936525 C50.8482722,32.742851 51.6736606,31.2456348 53.3244622,29.9019592 C54.9752637,28.5582835 57.1443076,27.8864557 59.8316589,27.8864557 C63.8242952,27.8864557 66.6075817,28.5966736 68.1816017,30.0171308 C69.4484959,31.2072435 70.0819335,33.280312 70.0819335,36.2363985 L70.0819335,46.0835724 C70.0819335,48.0031091 70.1011286,49.1164236 70.1395193,49.4235495 C70.331473,51.0359603 70.8881303,51.8421536 71.8095079,51.8421536 C72.4621504,51.8421536 73.2683437,51.3814717 74.228112,50.4600941 C74.4200657,50.2681405 74.5736263,50.1721651 74.6887985,50.1721651 C74.8807522,50.1721651 74.9767276,50.2681405 74.9767276,50.4600941 Z M62.9412928,43.6073825 L62.9412928,40.7856777 C59.2173917,41.5151016 57.355469,43.6265603 57.355469,47.120117 C57.355469,49.8074684 58.2768328,51.1511239 60.119588,51.1511239 C61.1561378,51.1511239 61.8855508,50.5752715 62.3078489,49.4235495 C62.7301469,48.2718275 62.9412928,46.3331246 62.9412928,43.6073825 Z" id="a" fill="#222B3E"></path>
                <path d="M96.6865788,33.8177944 C96.6865788,34.739172 96.4178477,35.4877801 95.8803774,36.0636411 C95.3429072,36.6395021 94.6518843,36.9274283 93.8072882,36.9274283 C91.7725793,36.9274283 90.7552401,36.0252595 90.7552401,34.2208951 C90.7552401,33.7602063 90.8800082,33.2131465 91.1295479,32.5796994 C91.3790877,31.9462523 91.5038557,31.495168 91.5038557,31.2264328 C91.5038557,30.4970089 91.2255271,29.8731688 90.6688614,29.3548939 C90.1121958,28.836619 89.4307705,28.5774855 88.6245651,28.5774855 C85.1310083,28.5774855 83.3842562,32.4740865 83.3842562,40.2674054 C83.3842562,44.7207304 84.1520593,47.9071135 85.6876887,49.8266502 C86.8778014,51.2854981 88.3366274,52.0149111 90.0642104,52.0149111 C91.8685749,52.0149111 93.7113024,50.8440113 95.5924484,48.5021765 C95.8227928,48.1950507 96.0339386,48.04149 96.2258923,48.04149 C96.3794552,48.04149 96.4562356,48.1566605 96.4562356,48.3870049 C96.4562356,49.1164288 95.7652127,50.133768 94.3831463,51.4390529 C92.3868282,53.3201989 89.9874433,54.2607577 87.1849198,54.2607577 C83.7297538,54.2607577 80.7833092,53.0226752 78.3454976,50.5464729 C75.907686,48.0702705 74.6887985,45.0662407 74.6887985,41.5342932 C74.6887985,37.6952199 75.9748688,34.4608491 78.5470479,31.8310839 C81.1192271,29.2013186 84.2864151,27.8864557 88.048707,27.8864557 C90.4673232,27.8864557 92.5115991,28.4623081 94.181596,29.6140301 C95.8515929,30.7657521 96.6865788,32.1669929 96.6865788,33.8177944 Z" id="c" fill="#222B3E"></path>
                <path d="M127.552574,53.1666273 C127.552574,53.4353624 126.842356,53.569728 125.421899,53.569728 L124.44294,53.569728 C123.713516,53.569728 122.72497,53.5505329 121.477271,53.5121422 C120.229572,53.4737515 119.02988,53.4545564 117.878158,53.4545564 C116.457701,53.4545564 115.382776,53.4737515 114.653352,53.5121422 C113.923928,53.5505329 113.405661,53.569728 113.098535,53.569728 C112.561065,53.569728 112.292334,53.4353624 112.292334,53.1666273 C112.292334,52.8978922 112.810601,52.7443315 113.847151,52.7059408 C114.499793,52.6675501 114.82611,52.4564042 114.82611,52.0724969 C114.82611,51.6885895 114.019916,50.1913734 112.407506,47.5808035 C111.946817,46.8897703 111.274989,45.8148459 110.392002,44.355998 C109.77775,43.2810575 108.894777,41.8798167 107.743055,40.1522337 L107.743055,48.674934 C107.743055,50.7096428 107.810238,51.8997377 107.944605,52.2452543 C108.078973,52.5907709 108.510862,52.7635266 109.240286,52.7635266 C109.47063,52.7635266 109.662581,52.7443315 109.816144,52.7059408 L110.27683,52.7059408 C110.660738,52.7059408 110.852689,52.8595014 110.852689,53.1666273 C110.852689,53.4737532 110.641543,53.6273138 110.219245,53.6273138 L109.988901,53.6273138 L108.49167,53.569728 L106.591339,53.569728 L103.021018,53.5121422 L97.4351944,53.5121422 C97.2432407,53.5505329 97.0320948,53.569728 96.8017504,53.569728 C96.3794524,53.569728 96.1683065,53.4353624 96.1683065,53.1666273 C96.1683065,52.8978922 96.6673785,52.7443315 97.6655376,52.7059408 C98.9324318,52.6675501 99.6522473,52.5523796 99.8250056,52.3604259 C99.9977639,52.1684723 100.084142,51.2087183 100.084142,49.4811353 L100.026556,19.1334123 C100.026556,17.6361737 99.8633977,16.7148099 99.5370765,16.3692933 C99.2107553,16.0237767 98.3373792,15.870216 96.9169221,15.9086068 C96.1874981,15.9086068 95.8227916,15.7742412 95.8227916,15.5055061 C95.8227916,15.2751617 95.8995719,15.1407961 96.0531349,15.1024054 C96.2066978,15.0640147 96.7633551,15.0256245 97.7231234,14.9872338 C101.600588,14.8336708 104.326289,14.3345988 105.900309,13.4900027 C106.437779,13.1828768 106.898461,13.0101211 107.282368,12.9717303 C107.435931,13.5092006 107.531907,14.5457349 107.570297,16.0813642 L107.685469,22.2430461 C107.72386,24.3161457 107.743055,27.2146026 107.743055,30.9385038 L107.743055,39.3460324 C108.357306,38.8469528 109.355451,37.8296137 110.737517,36.2939843 L113.328879,33.3571079 C115.171634,31.2840083 116.092998,30.1706937 116.092998,30.0171308 C116.092998,29.8251771 115.977827,29.7100066 115.747483,29.6716159 C115.517138,29.6332252 114.749335,29.594835 113.44405,29.5564443 C112.561063,29.5564443 112.119576,29.3836886 112.119576,29.038172 C112.119576,28.7310461 112.349917,28.5774855 112.810606,28.5774855 L117.187128,28.6926571 L121.678821,28.5774855 C122.369855,28.5774855 122.715366,28.6926559 122.715366,28.9230003 C122.715366,29.1533447 121.928368,29.3069054 120.354348,29.3836868 C119.317798,29.4220776 118.473214,29.767589 117.820572,30.4202315 C116.630459,31.5719535 115.114048,33.1843401 113.271293,35.2574397 L119.893661,45.277371 C120.239178,45.853232 120.795835,46.7170106 121.56365,47.8687326 C121.678822,48.0222955 121.966748,48.4445873 122.427437,49.1356205 L123.406396,50.5176799 L123.867082,51.2087097 C124.28938,51.8613522 124.634892,52.2740464 124.903627,52.4468047 C125.172362,52.619563 125.681032,52.7059408 126.429651,52.7059408 C127.17827,52.7059408 127.552574,52.8595014 127.552574,53.1666273 Z" id="k" fill="#222B3E"></path>
                <path d="M160.146144,43.146696 C160.146144,45.5269215 159.416731,47.5711973 157.957883,49.279585 C156.499035,50.9879726 154.483552,52.1300798 151.911373,52.7059408 C149.876664,53.1666296 147.957156,53.4353607 146.152792,53.5121422 C144.348427,53.5889237 139.050585,53.6273138 130.259107,53.6273138 C129.030604,53.6273138 128.301191,53.6081187 128.070846,53.569728 C127.840502,53.5313373 127.725332,53.3969717 127.725332,53.1666273 C127.725332,52.8211107 128.349172,52.648355 129.596871,52.648355 C130.844569,52.648355 131.62197,52.4660018 131.929096,52.1012898 C132.236222,51.7365778 132.389782,50.8440067 132.389782,49.4235495 L132.332197,16.4844649 C132.332197,15.3711336 131.449223,14.7952813 129.683249,14.7568905 C128.339574,14.7184998 127.667746,14.5457441 127.667746,14.2386182 C127.667746,13.8931016 128.090038,13.7203459 128.934634,13.7203459 C129.740839,13.7971274 130.527837,13.8355175 131.295652,13.8355175 L145.116247,13.8355175 C153.984506,13.8355175 158.41857,16.86834 158.41857,22.9340759 C158.41857,27.963262 155.117016,31.0728647 148.51381,32.2629775 L148.398638,32.4933207 C152.276102,33.2995261 154.963413,34.3168653 156.460652,35.5453688 C158.917659,37.5800776 160.146144,40.113828 160.146144,43.146696 Z M149.895869,23.1644191 C149.895869,17.5977628 148.168312,14.8144763 144.713146,14.8144763 C143.484643,14.8144763 142.659254,14.8720616 142.236956,14.9872338 C141.39236,15.2559689 140.970068,15.8510164 140.970068,16.772394 L140.970068,31.9750484 C144.386844,31.9750484 146.728643,31.380001 147.995538,30.1898882 C149.262432,28.9997755 149.895869,26.6579759 149.895869,23.1644191 Z M150.932414,42.8587669 C150.932414,37.4456735 149.377613,34.2976806 146.267963,33.4146937 C145.03946,33.0691771 143.273512,32.8964214 140.970068,32.8964214 L141.08524,36.2363985 C141.08524,37.1961668 141.04685,38.5590174 140.970068,40.3249912 C140.931678,41.207978 140.912483,42.8587548 140.912483,45.277371 C140.912483,49.4235702 141.027653,51.6310043 141.257998,51.8997394 C141.565123,52.3220375 142.428902,52.5331834 143.849359,52.5331834 C148.571419,52.5331834 150.932414,49.3084101 150.932414,42.8587669 Z" id="B" fill="#222B3E"></path>
                <path d="M171.663306,16.6572223 C171.663306,17.7321629 171.2986,18.6535267 170.569176,19.4213413 C169.839752,20.189156 168.956778,20.5730576 167.920229,20.5730576 C166.845288,20.5730576 165.943119,20.2083511 165.213695,19.4789271 C164.484271,18.7495032 164.119565,17.8281394 164.119565,16.7148081 C164.119565,15.6398676 164.484271,14.756894 165.213695,14.0658608 C165.943119,13.3748276 166.883678,13.0293162 168.0354,13.0293162 C169.07195,13.0293162 169.935729,13.3748276 170.626762,14.0658608 C171.317795,14.756894 171.663306,15.6206725 171.663306,16.6572223 Z M175.809485,53.1666273 C175.809485,53.4353624 175.636729,53.569728 175.291213,53.569728 L167.6323,53.4545564 L162.104062,53.569728 C161.873717,53.569728 161.585791,53.5889231 161.240274,53.6273138 L160.722002,53.6273138 C160.261313,53.6273138 160.030972,53.4737532 160.030972,53.1666273 C160.030972,52.9362829 160.472459,52.8019174 161.355446,52.7635266 C162.660731,52.7251359 163.428534,52.5811728 163.658878,52.331633 C163.889223,52.0820933 164.004393,51.3238877 164.004393,50.0569935 L164.004393,33.5298653 C164.004393,32.0710175 163.879625,31.1976414 163.630086,30.9097109 C163.380546,30.6217804 162.62234,30.4778173 161.355446,30.4778173 C160.549241,30.4778173 160.078961,30.4586222 159.944594,30.4202315 C159.810226,30.3818407 159.743043,30.2474752 159.743043,30.0171308 C159.743043,29.7483956 160.030969,29.6140301 160.60683,29.6140301 C164.829811,29.5756394 168.438486,28.9230067 171.432963,27.6561125 C171.509745,28.1168013 171.60572,29.3836765 171.720892,31.4567761 L171.778478,38.7701742 L171.778478,49.596307 C171.778478,51.170327 171.922441,52.0916908 172.210372,52.3604259 C172.498302,52.6291611 173.486849,52.7635266 175.176041,52.7635266 C175.598339,52.7635266 175.809485,52.8978922 175.809485,53.1666273 Z M198.498295,32.1478058 C198.498295,33.2611371 198.171979,34.1729033 197.519336,34.8831319 C196.866694,35.5933605 196.02211,35.9484694 194.98556,35.9484694 C192.912461,35.9484694 191.875926,34.9887155 191.875926,33.0691788 C191.875926,32.4165364 192.125463,31.7639037 192.624542,31.1112612 C192.739714,30.9576983 192.797299,30.8233327 192.797299,30.7081605 C192.797299,30.3626439 192.547763,30.1898882 192.048684,30.1898882 C190.743399,30.1898882 189.745255,31.2072274 189.054222,33.2419363 C188.670314,34.3936583 188.478364,37.2153349 188.478364,41.7070507 L188.478364,45.910815 L188.535949,50.9783664 C188.535949,52.0149163 189.054217,52.5715735 190.090766,52.648355 C190.705018,52.6867457 191.434431,52.7059408 192.279027,52.7059408 C192.701325,52.7443315 192.912471,52.8786971 192.912471,53.1090415 C192.912471,53.4161674 192.739715,53.569728 192.394199,53.569728 L191.242483,53.569728 C190.896966,53.5313373 189.226994,53.5121422 186.232517,53.5121422 C186.38608,53.5121422 185.522301,53.5313373 183.641155,53.569728 L180.819451,53.6273138 L178.63119,53.6273138 C178.247282,53.6657045 177.805796,53.6848996 177.306716,53.6848996 C176.884418,53.6848996 176.673272,53.5505341 176.673272,53.2817989 C176.673272,53.0130638 176.942003,52.8786983 177.479473,52.8786983 C179.053493,52.8403075 180.00365,52.6771493 180.329971,52.3892188 C180.656292,52.1012883 180.819451,51.2471073 180.819451,49.8266502 L180.761865,34.2784809 C180.761865,32.973196 180.579511,32.0710272 180.2148,31.5719477 C179.850088,31.0728682 179.034297,30.7657469 177.767402,30.6505747 C176.769243,30.5737932 176.202989,30.516208 176.068621,30.4778173 C175.934253,30.4394265 175.867071,30.305061 175.867071,30.0747166 C175.867071,29.8443722 176.020631,29.7292017 176.327757,29.7292017 C176.673274,29.7292017 176.99959,29.7483968 177.306716,29.7867875 L178.458432,29.7867875 C181.414519,29.7867875 184.600902,29.172545 188.017677,27.9440415 C188.209631,28.7118562 188.305606,29.5948298 188.305606,30.5929889 L188.305606,33.011593 C189.03503,31.1304471 189.831626,29.8059866 190.695417,29.038172 C191.559209,28.2703573 192.682121,27.8864557 194.064187,27.8864557 C195.369472,27.8864557 196.434799,28.2895524 197.2602,29.0957578 C198.085601,29.9019632 198.498295,30.9193024 198.498295,32.1478058 Z" id="ir" fill="#222B3E"></path>
                <path d="M227.060858,52.4180118 C227.060858,52.6867469 226.676956,52.8211124 225.909142,52.8211124 L223.31778,52.7635266 C221.436634,52.7251359 219.459541,53.1858178 217.386441,54.1455861 C217.156097,54.2223676 217.021731,54.2607577 216.983341,54.2607577 C216.637824,54.2607577 216.445873,53.9152463 216.407483,53.2242131 C216.407483,52.8786965 216.349897,52.3988196 216.234725,51.7845678 C214.699096,53.4353694 212.664417,54.2607577 210.130629,54.2607577 C206.752244,54.2607577 203.968958,53.0130776 201.780686,50.5176799 C199.592414,48.0222823 198.498295,44.8550943 198.498295,41.0160209 C198.498295,37.1001661 199.611609,33.9425756 201.838272,31.5431548 C204.064935,29.143734 207.001782,27.9440415 210.648901,27.9440415 C213.029127,27.9440415 214.96783,28.8270152 216.465068,30.5929889 L216.465068,22.5309752 C216.465068,19.0758092 216.311508,17.0315333 216.004382,16.3980862 C215.697256,15.7646391 214.679917,15.4671154 212.952334,15.5055061 C211.954175,15.5055061 211.455103,15.3711405 211.455103,15.1024054 C211.455103,14.8336703 211.685444,14.6993047 212.146132,14.6993047 C215.639689,14.6993047 218.979633,14.1810376 222.166064,13.1444878 C222.626753,12.9909249 222.953069,12.9141445 223.145023,12.9141445 C223.567321,12.9141445 223.778466,13.3748264 223.778466,14.296204 L223.836052,17.1754946 L223.893638,22.7037326 L223.893638,50.1721651 C223.893638,50.8248075 223.989614,51.2662944 224.181567,51.4966388 C224.450302,51.8421554 225.12213,51.995716 226.197071,51.9573253 C226.772932,51.9189345 227.060858,52.0724952 227.060858,52.4180118 Z M216.407483,47.2352887 L216.407483,34.6815816 C216.407483,32.9539986 216.119556,31.6679283 215.543695,30.8233322 C214.814271,29.7483916 213.796932,29.2109294 212.491647,29.2109294 C208.806137,29.2109294 206.963409,33.2994812 206.963409,41.4767074 C206.963409,45.1238271 207.433689,47.9455037 208.374262,49.9418218 C209.314835,51.93814 210.629698,52.9362841 212.31889,52.9362841 C213.317049,52.9362841 214.24801,52.4851997 215.111802,51.5830175 C215.975593,50.6808352 216.407483,49.2316068 216.407483,47.2352887 Z" id="d" fill="#222B3E"></path>
                <path d="M171.999674,17.0098624 C171.999674,18.216598 171.589997,19.2505446 170.772036,20.1117024 C169.952682,20.9728601 168.961933,21.403439 167.799788,21.403439 C166.593052,21.403439 165.581401,20.9951554 164.763441,20.1758015 C163.944087,19.357841 163.53441,18.3238943 163.53441,17.0739615 C163.53441,15.8686194 163.944087,14.87787 164.763441,14.1031067 C165.581401,13.32695 166.63625,12.9395683 167.927986,12.9395683 C169.091525,12.9395683 170.059979,13.32695 170.836135,14.1031067 C171.612292,14.87787 171.999674,15.8477175 171.999674,17.0098624" id="Fill-2" fill="#D6B26F"></path>
            </g>
        </g>
    </g>
</svg>