<?xml version="1.0" encoding="UTF-8"?>
<svg width="36px" height="29px" viewBox="0 0 36 29" version="1.1" xmlns="http://www.w3.org/2000/svg" xmlns:xlink="http://www.w3.org/1999/xlink">
    <!-- Generator: Sketch 48.2 (47327) - http://www.bohemiancoding.com/sketch -->
    <title>Shape</title>
    <desc>Created with Sketch.</desc>
    <defs></defs>
    <g id="Hero-Zoom" stroke="none" stroke-width="1" fill="none" fill-rule="evenodd" transform="translate(-1488.000000, -38.000000)">
        <g id="Group-3" fill="#FFFFFF" fill-rule="nonzero" stroke="#D6B26F" stroke-width="3">
            <path d="M1513.38464,40 C1510.56893,40 1507.51214,41.25 1506,43.75 C1504.48786,41.25 1501.431,40 1498.61536,40 C1493.68907,40 1490,43.0708807 1490,48.2230114 C1490,50.4450994 1490.89729,53.331179 1492.92307,55.7269886 C1494.94879,58.1229403 1496.15379,59.3988636 1500.07686,61.9769886 C1504,64.5552557 1506,65 1506,65 C1506,65 1508,64.5552557 1511.92314,61.9769886 C1515.84621,59.3988636 1517.05129,58.1229403 1519.07693,55.7269886 C1521.10264,53.331179 1522,50.4450284 1522,48.2230114 C1522,43.0708097 1518.31093,40 1513.38464,40 Z" id="Shape"></path>
        </g>
    </g>
</svg>